<?xml version="1.0" encoding="UTF-8"?>
<svg xmlns="http://www.w3.org/2000/svg" xmlns:xlink="http://www.w3.org/1999/xlink" width="200px" height="200px" viewBox="0 0 200 200" version="1.1">
<g id="surface1">
<rect x="0" y="0" width="200" height="200" style="fill:rgb(100%,100%,100%);fill-opacity:1;stroke:none;"/>
<path style=" stroke:none;fill-rule:nonzero;fill:rgb(100%,100%,100%);fill-opacity:1;" d="M 73.777344 79.167969 L 69.878906 79.167969 L 72.996094 61.316406 L 120.136719 61.316406 L 123.253906 79.167969 L 117.234375 79.167969 L 116.859375 77.082031 C 116.390625 74.457031 115.621094 72.441406 114.558594 71.027344 C 113.546875 69.683594 112.308594 68.738281 110.832031 68.191406 C 109.175781 67.574219 107.285156 67.269531 105.152344 67.269531 L 100.285156 67.269531 L 100.285156 64.730469 L 102.820312 64.730469 L 102.820312 108.621094 C 102.820312 109.074219 102.859375 109.398438 102.941406 109.601562 C 102.941406 109.613281 102.945312 109.621094 102.949219 109.625 C 102.941406 109.613281 102.929688 109.597656 102.917969 109.578125 C 102.863281 109.511719 102.800781 109.457031 102.722656 109.410156 C 103.089844 109.628906 103.855469 109.738281 105.019531 109.738281 L 107.558594 109.738281 L 107.558594 115.691406 L 85.644531 115.691406 L 85.644531 109.738281 L 88.183594 109.738281 C 89.332031 109.738281 90.078125 109.636719 90.417969 109.429688 C 90.332031 109.480469 90.265625 109.539062 90.214844 109.605469 C 90.199219 109.625 90.191406 109.640625 90.183594 109.652344 C 90.183594 109.648438 90.1875 109.636719 90.191406 109.628906 C 90.269531 109.417969 90.308594 109.082031 90.308594 108.621094 L 90.308594 64.730469 L 92.847656 64.730469 L 92.847656 67.269531 L 87.910156 67.269531 C 85.824219 67.269531 83.957031 67.574219 82.300781 68.191406 C 80.832031 68.738281 79.605469 69.675781 78.621094 71.007812 C 77.5625 72.4375 76.777344 74.472656 76.265625 77.117188 L 75.867188 79.167969 Z M 73.777344 74.097656 L 73.777344 76.636719 L 71.285156 76.152344 C 71.945312 72.753906 73.03125 70.035156 74.542969 67.992188 C 76.128906 65.851562 78.121094 64.332031 80.535156 63.4375 C 82.753906 62.609375 85.214844 62.195312 87.910156 62.195312 L 95.382812 62.195312 L 95.382812 108.621094 C 95.382812 111.105469 94.605469 112.824219 93.046875 113.765625 C 91.898438 114.460938 90.277344 114.808594 88.183594 114.808594 L 88.183594 112.273438 L 90.714844 112.273438 L 90.714844 113.152344 L 88.183594 113.152344 L 88.183594 110.617188 L 105.019531 110.617188 L 105.019531 113.152344 L 102.484375 113.152344 L 102.484375 112.273438 L 105.019531 112.273438 L 105.019531 114.808594 C 102.933594 114.808594 101.3125 114.46875 100.152344 113.785156 C 98.550781 112.84375 97.75 111.121094 97.75 108.621094 L 97.75 62.195312 L 105.152344 62.195312 C 107.894531 62.195312 110.375 62.609375 112.597656 63.4375 C 115.003906 64.332031 117.003906 65.84375 118.609375 67.972656 C 120.160156 70.035156 121.242188 72.769531 121.851562 76.1875 L 119.355469 76.636719 L 119.355469 74.097656 L 120.234375 74.097656 L 120.234375 76.636719 L 117.738281 77.070312 L 115.503906 64.289062 L 118.003906 63.855469 L 118.003906 66.386719 L 75.128906 66.386719 L 75.128906 63.855469 L 77.628906 64.289062 L 75.394531 77.070312 L 72.894531 76.636719 L 72.894531 74.097656 Z M 73.777344 74.097656 "/>
<path style=" stroke:none;fill-rule:nonzero;fill:rgb(0%,0%,0%);fill-opacity:1;" d="M 73.777344 76.636719 L 72.894531 76.636719 L 75.128906 63.855469 L 118.003906 63.855469 L 120.234375 76.636719 L 119.351562 76.636719 C 118.8125 73.617188 117.886719 71.238281 116.578125 69.503906 C 115.269531 67.765625 113.648438 66.535156 111.710938 65.820312 C 109.769531 65.097656 107.585938 64.738281 105.152344 64.738281 L 100.285156 64.738281 L 100.285156 108.621094 C 100.285156 110.152344 100.667969 111.148438 101.433594 111.605469 C 102.203125 112.054688 103.394531 112.277344 105.019531 112.277344 L 105.019531 113.152344 L 88.175781 113.152344 L 88.175781 112.277344 C 89.796875 112.277344 90.980469 112.054688 91.726562 111.605469 C 92.472656 111.148438 92.84375 110.152344 92.84375 108.621094 L 92.84375 64.738281 L 87.910156 64.738281 C 85.519531 64.738281 83.355469 65.097656 81.417969 65.820312 C 79.480469 66.535156 77.863281 67.765625 76.578125 69.503906 C 75.292969 71.238281 74.359375 73.617188 73.777344 76.636719 Z M 73.777344 76.636719 "/>
<path style=" stroke:none;fill-rule:nonzero;fill:rgb(100%,100%,100%);fill-opacity:1;" d="M 92.746094 79.167969 L 88.847656 79.167969 L 91.964844 61.316406 L 139.105469 61.316406 L 142.222656 79.167969 L 136.207031 79.167969 L 135.832031 77.082031 C 135.359375 74.457031 134.59375 72.441406 133.527344 71.027344 C 132.519531 69.683594 131.277344 68.738281 129.800781 68.191406 C 128.148438 67.574219 126.253906 67.269531 124.125 67.269531 L 119.253906 67.269531 L 119.253906 64.730469 L 121.792969 64.730469 L 121.792969 108.621094 C 121.792969 109.074219 121.832031 109.398438 121.910156 109.601562 C 121.914062 109.613281 121.917969 109.621094 121.917969 109.625 C 121.910156 109.613281 121.902344 109.597656 121.886719 109.578125 C 121.835938 109.511719 121.769531 109.457031 121.691406 109.410156 C 122.0625 109.628906 122.828125 109.738281 123.988281 109.738281 L 126.527344 109.738281 L 126.527344 115.691406 L 104.613281 115.691406 L 104.613281 109.738281 L 107.152344 109.738281 C 108.300781 109.738281 109.046875 109.636719 109.386719 109.429688 C 109.304688 109.480469 109.238281 109.539062 109.183594 109.605469 C 109.171875 109.625 109.160156 109.640625 109.152344 109.652344 C 109.152344 109.648438 109.160156 109.636719 109.164062 109.628906 C 109.242188 109.417969 109.28125 109.082031 109.28125 108.621094 L 109.28125 64.730469 L 111.816406 64.730469 L 111.816406 67.269531 L 106.878906 67.269531 C 104.796875 67.269531 102.925781 67.574219 101.273438 68.191406 C 99.804688 68.738281 98.578125 69.675781 97.589844 71.007812 C 96.535156 72.4375 95.75 74.472656 95.234375 77.117188 L 94.839844 79.167969 Z M 92.746094 74.097656 L 92.746094 76.636719 L 90.253906 76.152344 C 90.917969 72.753906 92.003906 70.035156 93.515625 67.992188 C 95.097656 65.851562 97.09375 64.332031 99.503906 63.4375 C 101.726562 62.609375 104.1875 62.195312 106.878906 62.195312 L 114.355469 62.195312 L 114.355469 108.621094 C 114.355469 111.105469 113.574219 112.824219 112.015625 113.765625 C 110.871094 114.460938 109.246094 114.808594 107.152344 114.808594 L 107.152344 112.273438 L 109.6875 112.273438 L 109.6875 113.152344 L 107.152344 113.152344 L 107.152344 110.617188 L 123.988281 110.617188 L 123.988281 113.152344 L 121.453125 113.152344 L 121.453125 112.273438 L 123.988281 112.273438 L 123.988281 114.808594 C 121.90625 114.808594 120.285156 114.46875 119.121094 113.785156 C 117.519531 112.84375 116.722656 111.121094 116.722656 108.621094 L 116.722656 62.195312 L 124.125 62.195312 C 126.863281 62.195312 129.347656 62.609375 131.570312 63.4375 C 133.972656 64.332031 135.972656 65.84375 137.582031 67.972656 C 139.128906 70.035156 140.214844 72.769531 140.824219 76.1875 L 138.328125 76.636719 L 138.328125 74.097656 L 139.207031 74.097656 L 139.207031 76.636719 L 136.707031 77.070312 L 134.476562 64.289062 L 136.972656 63.855469 L 136.972656 66.386719 L 94.097656 66.386719 L 94.097656 63.855469 L 96.597656 64.289062 L 94.363281 77.070312 L 91.867188 76.636719 L 91.867188 74.097656 Z M 92.746094 74.097656 "/>
<path style=" stroke:none;fill-rule:nonzero;fill:rgb(0%,0%,0%);fill-opacity:1;" d="M 92.746094 76.636719 L 91.863281 76.636719 L 94.097656 63.855469 L 136.972656 63.855469 L 139.207031 76.636719 L 138.324219 76.636719 C 137.785156 73.617188 136.859375 71.238281 135.546875 69.503906 C 134.242188 67.765625 132.621094 66.535156 130.683594 65.820312 C 128.742188 65.097656 126.558594 64.738281 124.121094 64.738281 L 119.253906 64.738281 L 119.253906 108.621094 C 119.253906 110.152344 119.640625 111.148438 120.40625 111.605469 C 121.171875 112.054688 122.367188 112.277344 123.988281 112.277344 L 123.988281 113.152344 L 107.148438 113.152344 L 107.148438 112.277344 C 108.769531 112.277344 109.953125 112.054688 110.699219 111.605469 C 111.441406 111.148438 111.816406 110.152344 111.816406 108.621094 L 111.816406 64.738281 L 106.878906 64.738281 C 104.492188 64.738281 102.328125 65.097656 100.390625 65.820312 C 98.449219 66.535156 96.835938 67.765625 95.546875 69.503906 C 94.265625 71.238281 93.332031 73.617188 92.746094 76.636719 Z M 92.746094 76.636719 "/>
<path style=" stroke:none;fill-rule:nonzero;fill:rgb(0%,0%,0%);fill-opacity:1;" d="M 54.550781 124.199219 L 54.386719 124.199219 L 54.816406 121.707031 L 63.160156 121.707031 L 63.601562 124.199219 L 63.425781 124.199219 C 63.320312 123.613281 63.140625 123.148438 62.886719 122.808594 C 62.628906 122.472656 62.3125 122.230469 61.933594 122.089844 C 61.5625 121.953125 61.136719 121.882812 60.660156 121.882812 L 59.71875 121.882812 L 59.71875 130.425781 C 59.71875 130.722656 59.789062 130.917969 59.933594 131.007812 C 60.085938 131.089844 60.316406 131.132812 60.636719 131.132812 L 60.636719 131.308594 L 57.359375 131.308594 L 57.359375 131.132812 C 57.675781 131.132812 57.90625 131.089844 58.050781 131.007812 C 58.195312 130.917969 58.269531 130.722656 58.269531 130.425781 L 58.269531 121.882812 L 57.300781 121.882812 C 56.839844 121.882812 56.421875 121.953125 56.042969 122.089844 C 55.664062 122.230469 55.351562 122.472656 55.101562 122.808594 C 54.851562 123.148438 54.667969 123.613281 54.550781 124.199219 Z M 54.550781 124.199219 "/>
<path style=" stroke:none;fill-rule:nonzero;fill:rgb(0%,0%,0%);fill-opacity:1;" d="M 64.382812 121.882812 L 64.382812 121.707031 L 67.699219 121.707031 L 67.699219 121.882812 C 67.382812 121.882812 67.144531 121.925781 66.992188 122.007812 C 66.839844 122.089844 66.769531 122.316406 66.769531 122.675781 L 66.769531 127.882812 C 66.769531 128.980469 66.992188 129.804688 67.441406 130.347656 C 67.894531 130.894531 68.519531 131.167969 69.308594 131.167969 C 69.871094 131.167969 70.363281 131.074219 70.792969 130.890625 C 71.21875 130.703125 71.554688 130.378906 71.800781 129.917969 C 72.042969 129.457031 72.167969 128.808594 72.167969 127.972656 L 72.167969 122.542969 C 72.152344 122.253906 72.0625 122.074219 71.910156 122 C 71.757812 121.921875 71.535156 121.882812 71.234375 121.882812 L 71.234375 121.707031 L 73.277344 121.707031 L 73.277344 121.882812 C 73.027344 121.882812 72.804688 121.925781 72.617188 122.007812 C 72.433594 122.089844 72.339844 122.316406 72.339844 122.675781 L 72.339844 127.972656 C 72.339844 128.230469 72.320312 128.511719 72.285156 128.824219 C 72.25 129.128906 72.171875 129.441406 72.050781 129.75 C 71.925781 130.0625 71.746094 130.347656 71.5 130.605469 C 71.261719 130.863281 70.933594 131.074219 70.527344 131.230469 C 70.121094 131.386719 69.609375 131.464844 68.992188 131.464844 C 68.0625 131.464844 67.332031 131.308594 66.792969 131 C 66.257812 130.691406 65.878906 130.261719 65.652344 129.722656 C 65.425781 129.179688 65.316406 128.566406 65.316406 127.882812 L 65.316406 122.675781 C 65.316406 122.316406 65.238281 122.089844 65.082031 122.007812 C 64.933594 121.925781 64.699219 121.882812 64.382812 121.882812 Z M 64.382812 121.882812 "/>
<path style=" stroke:none;fill-rule:nonzero;fill:rgb(0%,0%,0%);fill-opacity:1;" d="M 74.257812 126.722656 C 74.257812 125.621094 74.46875 124.683594 74.890625 123.917969 C 75.316406 123.148438 75.886719 122.566406 76.597656 122.167969 C 77.308594 121.765625 78.101562 121.566406 78.972656 121.566406 C 79.386719 121.566406 79.726562 121.597656 80 121.667969 C 80.277344 121.730469 80.515625 121.804688 80.714844 121.890625 C 80.917969 121.980469 81.097656 122.058594 81.257812 122.125 C 81.417969 122.191406 81.582031 122.222656 81.75 122.222656 C 81.925781 122.222656 82.058594 122.179688 82.140625 122.082031 C 82.222656 121.980469 82.265625 121.855469 82.265625 121.707031 L 82.433594 121.707031 L 82.632812 124.660156 L 82.472656 124.660156 C 82.273438 123.796875 81.878906 123.121094 81.292969 122.625 C 80.707031 122.128906 79.972656 121.882812 79.089844 121.882812 C 78.027344 121.882812 77.222656 122.246094 76.667969 122.964844 C 76.117188 123.691406 75.839844 124.707031 75.839844 126.023438 C 75.839844 126.535156 75.902344 127.074219 76.035156 127.640625 C 76.167969 128.207031 76.371094 128.738281 76.648438 129.222656 C 76.925781 129.707031 77.285156 130.105469 77.730469 130.417969 C 78.183594 130.722656 78.722656 130.875 79.347656 130.875 C 80.128906 130.875 80.652344 130.695312 80.933594 130.332031 C 81.214844 129.964844 81.355469 129.429688 81.355469 128.722656 L 81.355469 127.015625 C 81.355469 126.761719 81.285156 126.597656 81.132812 126.523438 C 80.988281 126.449219 80.710938 126.410156 80.300781 126.410156 L 80.300781 126.242188 L 83.722656 126.242188 L 83.722656 126.410156 C 83.480469 126.410156 83.261719 126.449219 83.074219 126.523438 C 82.890625 126.597656 82.800781 126.761719 82.800781 127.015625 L 82.816406 131.308594 L 82.632812 131.308594 C 82.632812 130.820312 82.597656 130.480469 82.535156 130.285156 C 82.464844 130.089844 82.316406 129.992188 82.089844 129.992188 C 81.949219 129.992188 81.808594 130.035156 81.667969 130.125 C 81.527344 130.214844 81.335938 130.367188 81.089844 130.582031 C 80.679688 130.945312 80.285156 131.183594 79.898438 131.300781 C 79.515625 131.410156 79.078125 131.464844 78.589844 131.464844 C 78.027344 131.464844 77.488281 131.367188 76.964844 131.175781 C 76.449219 130.980469 75.984375 130.691406 75.574219 130.300781 C 75.167969 129.910156 74.847656 129.421875 74.605469 128.832031 C 74.375 128.238281 74.257812 127.535156 74.257812 126.722656 Z M 77.089844 118.597656 L 77.230469 118.597656 C 77.265625 118.828125 77.382812 119.003906 77.582031 119.132812 C 77.785156 119.253906 78.015625 119.339844 78.265625 119.382812 C 78.515625 119.421875 78.738281 119.441406 78.933594 119.441406 C 79.128906 119.441406 79.347656 119.421875 79.597656 119.382812 C 79.855469 119.339844 80.078125 119.253906 80.273438 119.132812 C 80.472656 119.003906 80.59375 118.828125 80.632812 118.597656 L 80.773438 118.597656 C 80.773438 119.160156 80.609375 119.578125 80.285156 119.847656 C 79.960938 120.117188 79.523438 120.257812 78.972656 120.273438 C 78.417969 120.273438 77.964844 120.148438 77.617188 119.890625 C 77.265625 119.628906 77.089844 119.199219 77.089844 118.597656 Z M 77.089844 118.597656 "/>
<path style=" stroke:none;fill-rule:nonzero;fill:rgb(0%,0%,0%);fill-opacity:1;" d="M 84.441406 121.882812 L 84.441406 121.707031 L 88.199219 121.707031 C 88.6875 121.707031 89.167969 121.730469 89.632812 121.785156 C 90.105469 121.832031 90.527344 121.9375 90.910156 122.089844 C 91.285156 122.246094 91.589844 122.488281 91.816406 122.808594 C 92.042969 123.128906 92.160156 123.558594 92.160156 124.089844 C 92.160156 124.769531 91.964844 125.316406 91.574219 125.722656 C 91.183594 126.128906 90.675781 126.335938 90.050781 126.339844 L 90.050781 126.398438 C 90.886719 126.398438 91.546875 126.589844 92.027344 126.972656 C 92.507812 127.355469 92.75 127.871094 92.75 128.535156 C 92.75 128.824219 92.703125 129.128906 92.609375 129.449219 C 92.519531 129.765625 92.339844 130.070312 92.074219 130.355469 C 91.808594 130.640625 91.421875 130.871094 90.917969 131.050781 C 90.410156 131.222656 89.746094 131.308594 88.925781 131.308594 L 84.441406 131.308594 L 84.441406 131.132812 C 84.757812 131.132812 84.988281 131.097656 85.132812 131.015625 C 85.277344 130.941406 85.351562 130.75 85.351562 130.449219 L 85.351562 122.542969 C 85.34375 122.257812 85.269531 122.078125 85.125 122 C 84.980469 121.921875 84.753906 121.882812 84.441406 121.882812 Z M 88.449219 126.449219 L 86.816406 126.449219 L 86.816406 130.449219 C 86.816406 130.65625 86.851562 130.808594 86.917969 130.910156 C 86.988281 131.007812 87.125 131.074219 87.324219 131.105469 C 87.527344 131.136719 87.832031 131.148438 88.226562 131.148438 C 89.214844 131.148438 89.953125 130.941406 90.441406 130.515625 C 90.929688 130.089844 91.175781 129.417969 91.175781 128.5 C 91.175781 127.949219 91.050781 127.523438 90.808594 127.222656 C 90.570312 126.925781 90.242188 126.722656 89.824219 126.617188 C 89.414062 126.503906 88.957031 126.449219 88.449219 126.449219 Z M 86.816406 122.542969 L 86.816406 126.292969 L 88.207031 126.292969 C 88.675781 126.292969 89.097656 126.238281 89.476562 126.125 C 89.851562 126.007812 90.152344 125.792969 90.375 125.472656 C 90.597656 125.160156 90.707031 124.699219 90.707031 124.089844 C 90.707031 123.375 90.527344 122.828125 90.160156 122.449219 C 89.792969 122.074219 89.226562 121.882812 88.457031 121.882812 C 88.011719 121.882812 87.671875 121.898438 87.433594 121.925781 C 87.195312 121.949219 87.027344 122.003906 86.941406 122.097656 C 86.859375 122.191406 86.816406 122.335938 86.816406 122.542969 Z M 86.816406 122.542969 "/>
<path style=" stroke:none;fill-rule:nonzero;fill:rgb(0%,0%,0%);fill-opacity:1;" d="M 95.527344 131.308594 L 93.476562 131.308594 L 93.476562 131.132812 C 93.691406 131.132812 93.910156 131.054688 94.136719 130.898438 C 94.363281 130.746094 94.523438 130.546875 94.621094 130.308594 L 97.496094 123.433594 L 97.121094 122.542969 C 97.011719 122.273438 96.847656 122.097656 96.628906 122.015625 C 96.410156 121.929688 96.171875 121.882812 95.910156 121.882812 L 95.910156 121.707031 L 98.21875 121.707031 L 101.675781 129.972656 C 101.859375 130.410156 102.0625 130.710938 102.285156 130.882812 C 102.511719 131.050781 102.785156 131.132812 103.109375 131.132812 L 103.109375 131.308594 L 99.410156 131.308594 L 99.410156 131.132812 L 99.769531 131.132812 C 100.113281 131.132812 100.308594 131.023438 100.351562 130.800781 C 100.402344 130.578125 100.359375 130.308594 100.226562 129.992188 L 99.476562 128.160156 L 95.683594 128.160156 L 94.816406 130.257812 C 94.703125 130.535156 94.722656 130.753906 94.878906 130.910156 C 95.035156 131.058594 95.253906 131.132812 95.527344 131.132812 Z M 97.585938 123.632812 L 95.769531 127.992188 L 99.402344 127.992188 Z M 97.585938 123.632812 "/>
<path style=" stroke:none;fill-rule:nonzero;fill:rgb(0%,0%,0%);fill-opacity:1;" d="M 107.425781 124.199219 L 107.261719 124.199219 L 107.691406 121.707031 L 116.035156 121.707031 L 116.476562 124.199219 L 116.300781 124.199219 C 116.195312 123.613281 116.011719 123.148438 115.761719 122.808594 C 115.503906 122.472656 115.1875 122.230469 114.808594 122.089844 C 114.4375 121.953125 114.011719 121.882812 113.535156 121.882812 L 112.59375 121.882812 L 112.59375 130.425781 C 112.59375 130.722656 112.664062 130.917969 112.808594 131.007812 C 112.957031 131.089844 113.191406 131.132812 113.511719 131.132812 L 113.511719 131.308594 L 110.234375 131.308594 L 110.234375 131.132812 C 110.550781 131.132812 110.78125 131.089844 110.925781 131.007812 C 111.070312 130.917969 111.144531 130.722656 111.144531 130.425781 L 111.144531 121.882812 L 110.175781 121.882812 C 109.714844 121.882812 109.292969 121.953125 108.917969 122.089844 C 108.539062 122.230469 108.226562 122.472656 107.976562 122.808594 C 107.726562 123.148438 107.542969 123.613281 107.425781 124.199219 Z M 107.425781 124.199219 "/>
<path style=" stroke:none;fill-rule:nonzero;fill:rgb(0%,0%,0%);fill-opacity:1;" d="M 117.257812 121.882812 L 117.257812 121.707031 L 120.574219 121.707031 L 120.574219 121.882812 C 120.257812 121.882812 120.019531 121.925781 119.867188 122.007812 C 119.714844 122.089844 119.640625 122.316406 119.640625 122.675781 L 119.640625 127.882812 C 119.640625 128.980469 119.867188 129.804688 120.316406 130.347656 C 120.769531 130.894531 121.394531 131.167969 122.183594 131.167969 C 122.742188 131.167969 123.238281 131.074219 123.667969 130.890625 C 124.09375 130.703125 124.429688 130.378906 124.675781 129.917969 C 124.917969 129.457031 125.042969 128.808594 125.042969 127.972656 L 125.042969 122.542969 C 125.023438 122.253906 124.9375 122.074219 124.785156 122 C 124.632812 121.921875 124.410156 121.882812 124.105469 121.882812 L 124.105469 121.707031 L 126.148438 121.707031 L 126.148438 121.882812 C 125.898438 121.882812 125.679688 121.925781 125.492188 122.007812 C 125.308594 122.089844 125.214844 122.316406 125.214844 122.675781 L 125.214844 127.972656 C 125.214844 128.230469 125.195312 128.511719 125.160156 128.824219 C 125.125 129.128906 125.042969 129.441406 124.925781 129.75 C 124.800781 130.0625 124.617188 130.347656 124.375 130.605469 C 124.136719 130.863281 123.808594 131.074219 123.398438 131.230469 C 122.992188 131.386719 122.480469 131.464844 121.867188 131.464844 C 120.9375 131.464844 120.203125 131.308594 119.667969 131 C 119.132812 130.691406 118.753906 130.261719 118.523438 129.722656 C 118.300781 129.179688 118.191406 128.566406 118.191406 127.882812 L 118.191406 122.675781 C 118.191406 122.316406 118.113281 122.089844 117.957031 122.007812 C 117.808594 121.925781 117.574219 121.882812 117.257812 121.882812 Z M 117.257812 121.882812 "/>
<path style=" stroke:none;fill-rule:nonzero;fill:rgb(0%,0%,0%);fill-opacity:1;" d="M 126.808594 121.707031 L 129.332031 121.707031 L 134.421875 128.816406 L 134.414062 122.589844 C 134.414062 122.242188 134.335938 122.035156 134.183594 121.972656 C 134.027344 121.914062 133.792969 121.882812 133.488281 121.882812 L 133.488281 121.707031 L 135.515625 121.707031 L 135.515625 121.882812 C 135.21875 121.882812 134.996094 121.910156 134.839844 121.964844 C 134.683594 122.023438 134.597656 122.207031 134.582031 122.523438 L 134.597656 131.308594 L 134.421875 131.308594 L 128.332031 122.800781 L 128.332031 130.425781 C 128.332031 130.773438 128.410156 130.980469 128.566406 131.042969 C 128.722656 131.105469 128.957031 131.132812 129.265625 131.132812 L 129.265625 131.308594 L 127.222656 131.308594 L 127.222656 131.132812 C 127.539062 131.132812 127.773438 131.105469 127.921875 131.042969 C 128.078125 130.980469 128.15625 130.773438 128.15625 130.425781 L 128.15625 122.566406 C 128 122.300781 127.808594 122.121094 127.582031 122.023438 C 127.359375 121.929688 127.097656 121.882812 126.808594 121.882812 Z M 126.808594 121.707031 "/>
<path style=" stroke:none;fill-rule:nonzero;fill:rgb(0%,0%,0%);fill-opacity:1;" d="M 138.09375 131.308594 L 136.042969 131.308594 L 136.042969 131.132812 C 136.261719 131.132812 136.480469 131.054688 136.703125 130.898438 C 136.929688 130.746094 137.089844 130.546875 137.1875 130.308594 L 140.0625 123.433594 L 139.6875 122.542969 C 139.582031 122.273438 139.417969 122.097656 139.195312 122.015625 C 138.980469 121.929688 138.738281 121.882812 138.480469 121.882812 L 138.480469 121.707031 L 140.785156 121.707031 L 144.246094 129.972656 C 144.425781 130.410156 144.628906 130.710938 144.855469 130.882812 C 145.082031 131.050781 145.355469 131.132812 145.675781 131.132812 L 145.675781 131.308594 L 141.980469 131.308594 L 141.980469 131.132812 L 142.335938 131.132812 C 142.679688 131.132812 142.875 131.023438 142.917969 130.800781 C 142.96875 130.578125 142.925781 130.308594 142.792969 129.992188 L 142.042969 128.160156 L 138.253906 128.160156 L 137.386719 130.257812 C 137.269531 130.535156 137.289062 130.753906 137.445312 130.910156 C 137.605469 131.058594 137.824219 131.132812 138.09375 131.132812 Z M 140.152344 123.632812 L 138.335938 127.992188 L 141.96875 127.992188 Z M 140.152344 123.632812 "/>
<path style=" stroke:none;fill-rule:nonzero;fill:rgb(0%,0%,0%);fill-opacity:1;" d="M 56.953125 141.292969 L 56.953125 141.199219 C 57.121094 141.199219 57.242188 141.175781 57.320312 141.132812 C 57.398438 141.089844 57.4375 140.988281 57.4375 140.824219 L 57.4375 136.65625 C 57.4375 136.496094 57.398438 136.394531 57.320312 136.347656 C 57.242188 136.304688 57.121094 136.28125 56.953125 136.28125 L 56.953125 136.191406 L 58.695312 136.191406 L 58.695312 136.28125 C 58.527344 136.28125 58.40625 136.304688 58.328125 136.347656 C 58.25 136.386719 58.210938 136.480469 58.210938 136.632812 L 58.210938 138.613281 L 60.355469 138.613281 L 60.355469 136.65625 C 60.355469 136.496094 60.316406 136.394531 60.238281 136.347656 C 60.160156 136.304688 60.035156 136.28125 59.871094 136.28125 L 59.871094 136.191406 L 61.613281 136.191406 L 61.613281 136.28125 C 61.445312 136.28125 61.324219 136.304688 61.246094 136.347656 C 61.167969 136.394531 61.128906 136.496094 61.128906 136.65625 L 61.128906 140.832031 C 61.128906 140.996094 61.167969 141.097656 61.246094 141.140625 C 61.324219 141.179688 61.445312 141.199219 61.613281 141.199219 L 61.613281 141.292969 L 59.871094 141.292969 L 59.871094 141.199219 C 60.035156 141.199219 60.160156 141.175781 60.238281 141.132812 C 60.316406 141.089844 60.355469 140.988281 60.355469 140.824219 L 60.355469 138.707031 L 58.210938 138.707031 L 58.210938 140.890625 C 58.214844 141.023438 58.257812 141.113281 58.335938 141.148438 C 58.417969 141.183594 58.539062 141.199219 58.695312 141.199219 L 58.695312 141.292969 Z M 56.953125 141.292969 "/>
<path style=" stroke:none;fill-rule:nonzero;fill:rgb(0%,0%,0%);fill-opacity:1;" d="M 64.746094 136.28125 L 64.746094 136.191406 L 66.503906 136.191406 L 66.503906 136.28125 C 66.335938 136.28125 66.210938 136.304688 66.128906 136.347656 C 66.050781 136.394531 66.011719 136.511719 66.011719 136.699219 L 66.011719 139.472656 C 66.011719 140.058594 66.128906 140.496094 66.371094 140.78125 C 66.605469 141.074219 66.9375 141.214844 67.363281 141.214844 C 67.660156 141.214844 67.921875 141.167969 68.144531 141.066406 C 68.371094 140.964844 68.550781 140.792969 68.675781 140.550781 C 68.8125 140.304688 68.878906 139.960938 68.878906 139.515625 L 68.878906 136.632812 C 68.863281 136.480469 68.820312 136.378906 68.738281 136.339844 C 68.65625 136.300781 68.539062 136.28125 68.378906 136.28125 L 68.378906 136.191406 L 69.46875 136.191406 L 69.46875 136.28125 C 69.335938 136.28125 69.21875 136.304688 69.121094 136.347656 C 69.019531 136.394531 68.96875 136.511719 68.96875 136.699219 L 68.96875 139.515625 C 68.96875 139.65625 68.957031 139.808594 68.9375 139.972656 C 68.917969 140.136719 68.878906 140.300781 68.8125 140.464844 C 68.75 140.628906 68.65625 140.777344 68.527344 140.917969 C 68.398438 141.054688 68.222656 141.167969 68.003906 141.25 C 67.785156 141.332031 67.515625 141.375 67.195312 141.375 C 66.699219 141.375 66.308594 141.292969 66.019531 141.125 C 65.738281 140.957031 65.53125 140.730469 65.410156 140.449219 C 65.292969 140.160156 65.238281 139.835938 65.238281 139.472656 L 65.238281 136.699219 C 65.238281 136.511719 65.195312 136.394531 65.113281 136.347656 C 65.03125 136.304688 64.910156 136.28125 64.746094 136.28125 Z M 64.746094 136.28125 "/>
<path style=" stroke:none;fill-rule:nonzero;fill:rgb(0%,0%,0%);fill-opacity:1;" d="M 72.972656 140.824219 L 72.972656 136.65625 C 72.972656 136.496094 72.933594 136.394531 72.855469 136.347656 C 72.777344 136.304688 72.65625 136.28125 72.488281 136.28125 L 72.488281 136.191406 L 74.230469 136.191406 L 74.230469 136.28125 C 74.066406 136.28125 73.941406 136.304688 73.863281 136.347656 C 73.785156 136.394531 73.75 136.496094 73.75 136.65625 L 73.75 138.90625 L 75.78125 136.640625 C 75.894531 136.53125 75.9375 136.449219 75.917969 136.398438 C 75.898438 136.347656 75.839844 136.320312 75.738281 136.308594 C 75.644531 136.292969 75.535156 136.28125 75.40625 136.28125 L 75.40625 136.191406 L 76.757812 136.191406 L 76.757812 136.28125 C 76.617188 136.28125 76.5 136.292969 76.40625 136.308594 C 76.316406 136.320312 76.230469 136.347656 76.148438 136.398438 C 76.070312 136.449219 75.984375 136.527344 75.890625 136.632812 L 74.105469 138.640625 C 74.199219 138.796875 74.3125 138.917969 74.441406 139 C 74.566406 139.078125 74.691406 139.113281 74.816406 139.113281 C 74.949219 139.113281 75.066406 139.074219 75.167969 138.988281 L 76.425781 140.824219 C 76.535156 140.972656 76.644531 141.074219 76.757812 141.125 C 76.875 141.175781 76.996094 141.199219 77.125 141.199219 L 77.125 141.292969 L 76.375 141.292969 C 76.175781 141.292969 76.007812 141.253906 75.875 141.175781 C 75.746094 141.089844 75.636719 140.988281 75.542969 140.863281 C 75.449219 140.738281 75.359375 140.613281 75.265625 140.480469 L 74.042969 138.707031 L 73.75 139.042969 L 73.75 140.824219 C 73.75 140.980469 73.785156 141.082031 73.863281 141.132812 C 73.941406 141.175781 74.066406 141.199219 74.230469 141.199219 L 74.230469 141.292969 L 72.488281 141.292969 L 72.488281 141.199219 C 72.65625 141.199219 72.777344 141.175781 72.855469 141.132812 C 72.933594 141.082031 72.972656 140.980469 72.972656 140.824219 Z M 72.972656 140.824219 "/>
<path style=" stroke:none;fill-rule:nonzero;fill:rgb(0%,0%,0%);fill-opacity:1;" d="M 80.15625 136.28125 L 80.15625 136.191406 L 81.914062 136.191406 L 81.914062 136.28125 C 81.746094 136.28125 81.621094 136.304688 81.539062 136.347656 C 81.457031 136.394531 81.421875 136.511719 81.421875 136.699219 L 81.421875 139.472656 C 81.421875 140.058594 81.542969 140.496094 81.78125 140.78125 C 82.019531 141.074219 82.347656 141.214844 82.769531 141.214844 C 83.074219 141.214844 83.332031 141.167969 83.554688 141.066406 C 83.78125 140.964844 83.957031 140.792969 84.089844 140.550781 C 84.222656 140.304688 84.289062 139.960938 84.289062 139.515625 L 84.289062 136.632812 C 84.277344 136.480469 84.230469 136.378906 84.144531 136.339844 C 84.066406 136.300781 83.949219 136.28125 83.789062 136.28125 L 83.789062 136.191406 L 84.878906 136.191406 L 84.878906 136.28125 C 84.746094 136.28125 84.628906 136.304688 84.53125 136.347656 C 84.429688 136.394531 84.378906 136.511719 84.378906 136.699219 L 84.378906 139.515625 C 84.378906 139.65625 84.367188 139.808594 84.347656 139.972656 C 84.332031 140.136719 84.289062 140.300781 84.222656 140.464844 C 84.160156 140.628906 84.066406 140.777344 83.9375 140.917969 C 83.808594 141.054688 83.636719 141.167969 83.414062 141.25 C 83.199219 141.332031 82.925781 141.375 82.605469 141.375 C 82.109375 141.375 81.71875 141.292969 81.429688 141.125 C 81.144531 140.957031 80.941406 140.730469 80.824219 140.449219 C 80.707031 140.160156 80.644531 139.835938 80.644531 139.472656 L 80.644531 136.699219 C 80.644531 136.511719 80.605469 136.394531 80.519531 136.347656 C 80.441406 136.304688 80.324219 136.28125 80.15625 136.28125 Z M 80.15625 136.28125 "/>
<path style=" stroke:none;fill-rule:nonzero;fill:rgb(0%,0%,0%);fill-opacity:1;" d="M 88.386719 140.824219 L 88.386719 136.65625 C 88.386719 136.496094 88.34375 136.394531 88.269531 136.347656 C 88.1875 136.304688 88.066406 136.28125 87.902344 136.28125 L 87.902344 136.191406 L 89.644531 136.191406 L 89.644531 136.28125 C 89.476562 136.28125 89.355469 136.304688 89.277344 136.347656 C 89.199219 136.394531 89.160156 136.496094 89.160156 136.65625 L 89.160156 138.90625 L 91.191406 136.640625 C 91.300781 136.53125 91.347656 136.449219 91.324219 136.398438 C 91.308594 136.347656 91.25 136.320312 91.152344 136.308594 C 91.054688 136.292969 90.945312 136.28125 90.816406 136.28125 L 90.816406 136.191406 L 92.167969 136.191406 L 92.167969 136.28125 C 92.027344 136.28125 91.910156 136.292969 91.816406 136.308594 C 91.730469 136.320312 91.644531 136.347656 91.558594 136.398438 C 91.480469 136.449219 91.394531 136.527344 91.300781 136.632812 L 89.519531 138.640625 C 89.613281 138.796875 89.722656 138.917969 89.851562 139 C 89.980469 139.078125 90.105469 139.113281 90.226562 139.113281 C 90.359375 139.113281 90.476562 139.074219 90.574219 138.988281 L 91.832031 140.824219 C 91.945312 140.972656 92.054688 141.074219 92.167969 141.125 C 92.285156 141.175781 92.40625 141.199219 92.535156 141.199219 L 92.535156 141.292969 L 91.785156 141.292969 C 91.582031 141.292969 91.417969 141.253906 91.285156 141.175781 C 91.15625 141.089844 91.042969 140.988281 90.949219 140.863281 C 90.863281 140.738281 90.769531 140.613281 90.675781 140.480469 L 89.449219 138.707031 L 89.160156 139.042969 L 89.160156 140.824219 C 89.160156 140.980469 89.199219 141.082031 89.277344 141.132812 C 89.355469 141.175781 89.476562 141.199219 89.644531 141.199219 L 89.644531 141.292969 L 87.902344 141.292969 L 87.902344 141.199219 C 88.066406 141.199219 88.1875 141.175781 88.269531 141.132812 C 88.34375 141.082031 88.386719 140.980469 88.386719 140.824219 Z M 88.386719 140.824219 "/>
<path style=" stroke:none;fill-rule:nonzero;fill:rgb(0%,0%,0%);fill-opacity:1;" d="M 100.089844 136.28125 L 100.089844 136.191406 L 102.089844 136.191406 C 102.351562 136.191406 102.609375 136.207031 102.859375 136.230469 C 103.109375 136.253906 103.332031 136.308594 103.535156 136.390625 C 103.734375 136.472656 103.890625 136.605469 104.007812 136.773438 C 104.128906 136.941406 104.191406 137.167969 104.191406 137.457031 C 104.191406 137.8125 104.089844 138.097656 103.882812 138.316406 C 103.675781 138.53125 103.410156 138.644531 103.074219 138.648438 L 103.074219 138.683594 C 103.519531 138.683594 103.871094 138.785156 104.125 138.988281 C 104.378906 139.191406 104.507812 139.464844 104.507812 139.816406 C 104.507812 139.964844 104.484375 140.128906 104.433594 140.300781 C 104.386719 140.472656 104.292969 140.632812 104.152344 140.78125 C 104.003906 140.933594 103.800781 141.054688 103.535156 141.148438 C 103.265625 141.246094 102.910156 141.292969 102.472656 141.292969 L 100.089844 141.292969 L 100.089844 141.199219 C 100.257812 141.199219 100.378906 141.179688 100.457031 141.140625 C 100.535156 141.097656 100.574219 140.996094 100.574219 140.832031 L 100.574219 136.632812 C 100.566406 136.480469 100.527344 136.386719 100.449219 136.347656 C 100.378906 136.304688 100.257812 136.28125 100.089844 136.28125 Z M 102.222656 138.707031 L 101.347656 138.707031 L 101.347656 140.832031 C 101.347656 140.945312 101.371094 141.027344 101.410156 141.082031 C 101.445312 141.132812 101.519531 141.167969 101.625 141.183594 C 101.730469 141.199219 101.886719 141.207031 102.097656 141.207031 C 102.628906 141.207031 103.019531 141.09375 103.277344 140.863281 C 103.535156 140.636719 103.667969 140.28125 103.667969 139.800781 C 103.667969 139.503906 103.601562 139.28125 103.472656 139.125 C 103.347656 138.964844 103.171875 138.855469 102.949219 138.800781 C 102.734375 138.738281 102.492188 138.707031 102.222656 138.707031 Z M 101.347656 136.632812 L 101.347656 138.625 L 102.089844 138.625 C 102.339844 138.625 102.566406 138.59375 102.765625 138.53125 C 102.964844 138.472656 103.125 138.355469 103.242188 138.191406 C 103.363281 138.023438 103.425781 137.78125 103.425781 137.457031 C 103.425781 137.074219 103.324219 136.78125 103.125 136.582031 C 102.929688 136.382812 102.628906 136.28125 102.222656 136.28125 C 101.992188 136.28125 101.808594 136.292969 101.683594 136.308594 C 101.554688 136.320312 101.464844 136.347656 101.417969 136.398438 C 101.371094 136.445312 101.347656 136.519531 101.347656 136.632812 Z M 101.347656 136.632812 "/>
<path style=" stroke:none;fill-rule:nonzero;fill:rgb(0%,0%,0%);fill-opacity:1;" d="M 107.714844 136.28125 L 107.714844 136.191406 L 109.472656 136.191406 L 109.472656 136.28125 C 109.308594 136.28125 109.183594 136.304688 109.097656 136.347656 C 109.019531 136.394531 108.980469 136.511719 108.980469 136.699219 L 108.980469 139.472656 C 108.980469 140.058594 109.097656 140.496094 109.339844 140.78125 C 109.578125 141.074219 109.910156 141.214844 110.332031 141.214844 C 110.628906 141.214844 110.890625 141.167969 111.113281 141.066406 C 111.339844 140.964844 111.519531 140.792969 111.648438 140.550781 C 111.78125 140.304688 111.847656 139.960938 111.847656 139.515625 L 111.847656 136.632812 C 111.835938 136.480469 111.789062 136.378906 111.707031 136.339844 C 111.628906 136.300781 111.507812 136.28125 111.347656 136.28125 L 111.347656 136.191406 L 112.441406 136.191406 L 112.441406 136.28125 C 112.308594 136.28125 112.191406 136.304688 112.089844 136.347656 C 111.988281 136.394531 111.941406 136.511719 111.941406 136.699219 L 111.941406 139.515625 C 111.941406 139.65625 111.925781 139.808594 111.90625 139.972656 C 111.890625 140.136719 111.847656 140.300781 111.78125 140.464844 C 111.71875 140.628906 111.625 140.777344 111.496094 140.917969 C 111.371094 141.054688 111.191406 141.167969 110.972656 141.25 C 110.753906 141.332031 110.484375 141.375 110.164062 141.375 C 109.667969 141.375 109.277344 141.292969 108.988281 141.125 C 108.707031 140.957031 108.503906 140.730469 108.378906 140.449219 C 108.265625 140.160156 108.207031 139.835938 108.207031 139.472656 L 108.207031 136.699219 C 108.207031 136.511719 108.164062 136.394531 108.082031 136.347656 C 108.003906 136.304688 107.878906 136.28125 107.714844 136.28125 Z M 109.355469 134.757812 C 109.460938 134.757812 109.550781 134.796875 109.628906 134.875 C 109.707031 134.953125 109.746094 135.042969 109.746094 135.148438 C 109.746094 135.261719 109.707031 135.355469 109.628906 135.433594 C 109.550781 135.503906 109.460938 135.542969 109.355469 135.542969 C 109.25 135.542969 109.160156 135.503906 109.082031 135.433594 C 109.003906 135.355469 108.964844 135.261719 108.964844 135.148438 C 108.964844 135.042969 109.003906 134.953125 109.082031 134.875 C 109.160156 134.796875 109.25 134.757812 109.355469 134.757812 Z M 110.628906 135.148438 C 110.628906 135.042969 110.667969 134.953125 110.746094 134.875 C 110.824219 134.796875 110.917969 134.757812 111.023438 134.757812 C 111.128906 134.757812 111.21875 134.796875 111.296875 134.875 C 111.375 134.953125 111.414062 135.042969 111.414062 135.148438 C 111.414062 135.261719 111.375 135.355469 111.296875 135.433594 C 111.21875 135.503906 111.128906 135.542969 111.023438 135.542969 C 110.917969 135.542969 110.824219 135.503906 110.746094 135.433594 C 110.667969 135.355469 110.628906 135.261719 110.628906 135.148438 Z M 110.628906 135.148438 "/>
<path style=" stroke:none;fill-rule:nonzero;fill:rgb(0%,0%,0%);fill-opacity:1;" d="M 115.460938 141.292969 L 115.460938 141.199219 C 115.628906 141.199219 115.746094 141.175781 115.828125 141.132812 C 115.902344 141.082031 115.941406 140.980469 115.941406 140.824219 L 115.941406 136.65625 C 115.941406 136.496094 115.902344 136.394531 115.828125 136.347656 C 115.746094 136.304688 115.628906 136.28125 115.460938 136.28125 L 115.460938 136.191406 L 117.453125 136.191406 C 117.714844 136.191406 117.96875 136.207031 118.21875 136.230469 C 118.46875 136.253906 118.691406 136.308594 118.894531 136.390625 C 119.097656 136.472656 119.261719 136.597656 119.378906 136.765625 C 119.496094 136.933594 119.558594 137.15625 119.558594 137.433594 C 119.558594 137.710938 119.503906 137.933594 119.394531 138.097656 C 119.28125 138.265625 119.136719 138.394531 118.953125 138.480469 C 118.769531 138.574219 118.566406 138.632812 118.351562 138.667969 C 118.136719 138.695312 117.925781 138.707031 117.726562 138.707031 L 117.425781 138.707031 C 117.519531 138.855469 117.621094 138.957031 117.734375 139.023438 C 117.851562 139.089844 117.964844 139.125 118.078125 139.125 C 118.210938 139.125 118.332031 139.082031 118.441406 138.988281 L 119.703125 140.824219 C 119.8125 140.972656 119.925781 141.074219 120.042969 141.125 C 120.160156 141.175781 120.28125 141.199219 120.410156 141.199219 L 120.410156 141.292969 L 119.71875 141.292969 C 119.523438 141.292969 119.355469 141.253906 119.210938 141.175781 C 119.070312 141.089844 118.949219 140.988281 118.84375 140.863281 C 118.738281 140.738281 118.640625 140.613281 118.550781 140.480469 L 117.328125 138.707031 L 116.71875 138.707031 L 116.71875 140.824219 C 116.71875 140.980469 116.753906 141.082031 116.828125 141.132812 C 116.902344 141.175781 117.027344 141.199219 117.203125 141.199219 L 117.203125 141.292969 Z M 116.71875 138.613281 L 117.460938 138.613281 C 117.703125 138.613281 117.925781 138.585938 118.128906 138.523438 C 118.332031 138.457031 118.496094 138.339844 118.621094 138.167969 C 118.738281 137.996094 118.800781 137.753906 118.800781 137.441406 C 118.800781 137.0625 118.695312 136.777344 118.484375 136.582031 C 118.273438 136.382812 117.976562 136.28125 117.59375 136.28125 L 116.71875 136.28125 Z M 116.71875 138.613281 "/>
<path style=" stroke:none;fill-rule:nonzero;fill:rgb(0%,0%,0%);fill-opacity:1;" d="M 123.472656 138.730469 C 123.472656 138.363281 123.535156 138.023438 123.664062 137.707031 C 123.796875 137.390625 123.976562 137.113281 124.207031 136.875 C 124.433594 136.636719 124.699219 136.449219 125.003906 136.316406 C 125.308594 136.175781 125.636719 136.105469 125.980469 136.105469 C 126.324219 136.105469 126.648438 136.175781 126.957031 136.316406 C 127.261719 136.449219 127.53125 136.636719 127.761719 136.875 C 127.996094 137.113281 128.175781 137.390625 128.304688 137.707031 C 128.4375 138.023438 128.503906 138.363281 128.503906 138.730469 C 128.503906 139.09375 128.4375 139.4375 128.304688 139.757812 C 128.175781 140.074219 127.996094 140.355469 127.761719 140.597656 C 127.53125 140.84375 127.261719 141.035156 126.957031 141.175781 C 126.648438 141.308594 126.324219 141.375 125.980469 141.375 C 125.636719 141.375 125.308594 141.308594 125.003906 141.175781 C 124.699219 141.035156 124.433594 140.84375 124.207031 140.597656 C 123.976562 140.355469 123.796875 140.074219 123.664062 139.757812 C 123.535156 139.4375 123.472656 139.09375 123.472656 138.730469 Z M 125.90625 136.207031 C 125.636719 136.207031 125.40625 136.273438 125.207031 136.40625 C 125.011719 136.535156 124.847656 136.714844 124.714844 136.949219 C 124.582031 137.175781 124.480469 137.4375 124.414062 137.730469 C 124.347656 138.019531 124.3125 138.328125 124.3125 138.648438 C 124.3125 138.988281 124.347656 139.316406 124.414062 139.632812 C 124.480469 139.945312 124.582031 140.222656 124.722656 140.472656 C 124.863281 140.71875 125.046875 140.914062 125.261719 141.058594 C 125.484375 141.203125 125.746094 141.273438 126.046875 141.273438 C 126.332031 141.273438 126.574219 141.210938 126.769531 141.082031 C 126.976562 140.949219 127.144531 140.769531 127.269531 140.550781 C 127.40625 140.324219 127.5 140.058594 127.5625 139.757812 C 127.628906 139.457031 127.664062 139.140625 127.664062 138.808594 C 127.664062 138.480469 127.628906 138.164062 127.5625 137.855469 C 127.5 137.546875 127.398438 137.269531 127.253906 137.023438 C 127.113281 136.773438 126.933594 136.578125 126.714844 136.433594 C 126.488281 136.28125 126.222656 136.207031 125.90625 136.207031 Z M 125.90625 136.207031 "/>
<path style=" stroke:none;fill-rule:nonzero;fill:rgb(0%,0%,0%);fill-opacity:1;" d="M 131.847656 141.292969 L 131.847656 139.191406 L 131.9375 139.191406 C 131.9375 139.65625 132.003906 140.042969 132.136719 140.339844 C 132.277344 140.636719 132.464844 140.855469 132.695312 140.988281 C 132.929688 141.128906 133.1875 141.199219 133.472656 141.199219 C 133.648438 141.199219 133.808594 141.175781 133.953125 141.125 C 134.105469 141.070312 134.222656 140.980469 134.3125 140.855469 C 134.402344 140.730469 134.445312 140.5625 134.445312 140.355469 C 134.445312 140.164062 134.378906 139.988281 134.253906 139.824219 C 134.128906 139.65625 133.972656 139.5 133.769531 139.347656 C 133.574219 139.199219 133.367188 139.050781 133.144531 138.90625 C 132.929688 138.761719 132.722656 138.613281 132.519531 138.449219 C 132.320312 138.289062 132.160156 138.113281 132.035156 137.933594 C 131.914062 137.746094 131.855469 137.539062 131.855469 137.316406 C 131.855469 137.042969 131.925781 136.820312 132.070312 136.640625 C 132.222656 136.464844 132.40625 136.332031 132.628906 136.238281 C 132.847656 136.152344 133.078125 136.105469 133.3125 136.105469 C 133.484375 136.105469 133.628906 136.128906 133.753906 136.167969 C 133.878906 136.199219 133.988281 136.238281 134.078125 136.292969 C 134.167969 136.339844 134.246094 136.382812 134.320312 136.417969 C 134.390625 136.449219 134.464844 136.464844 134.535156 136.464844 C 134.625 136.464844 134.6875 136.449219 134.722656 136.40625 C 134.753906 136.363281 134.769531 136.292969 134.769531 136.191406 L 134.863281 136.191406 L 134.863281 137.839844 L 134.769531 137.839844 C 134.769531 137.53125 134.707031 137.257812 134.589844 137.023438 C 134.472656 136.785156 134.308594 136.605469 134.105469 136.472656 C 133.898438 136.339844 133.664062 136.273438 133.402344 136.273438 C 133.125 136.273438 132.925781 136.339844 132.804688 136.472656 C 132.683594 136.605469 132.621094 136.777344 132.621094 136.980469 C 132.621094 137.210938 132.683594 137.414062 132.804688 137.589844 C 132.925781 137.761719 133.082031 137.921875 133.269531 138.066406 C 133.464844 138.207031 133.667969 138.34375 133.878906 138.480469 C 134.097656 138.613281 134.296875 138.757812 134.488281 138.90625 C 134.683594 139.058594 134.839844 139.230469 134.964844 139.417969 C 135.082031 139.597656 135.144531 139.820312 135.144531 140.074219 C 135.144531 140.3125 135.097656 140.53125 134.996094 140.722656 C 134.902344 140.917969 134.742188 141.078125 134.519531 141.199219 C 134.296875 141.316406 133.988281 141.375 133.589844 141.375 C 133.398438 141.375 133.238281 141.355469 133.105469 141.324219 C 132.972656 141.292969 132.863281 141.253906 132.761719 141.207031 C 132.667969 141.164062 132.582031 141.128906 132.503906 141.097656 C 132.425781 141.066406 132.347656 141.050781 132.261719 141.050781 C 132.046875 141.050781 131.9375 141.128906 131.9375 141.292969 Z M 131.847656 141.292969 "/>
<path style=" stroke:none;fill-rule:nonzero;fill:rgb(0%,0%,0%);fill-opacity:1;" d="M 138.347656 136.28125 L 138.347656 136.191406 L 140.105469 136.191406 L 140.105469 136.28125 C 139.9375 136.28125 139.8125 136.304688 139.730469 136.347656 C 139.652344 136.394531 139.613281 136.511719 139.613281 136.699219 L 139.613281 139.472656 C 139.613281 140.058594 139.730469 140.496094 139.972656 140.78125 C 140.207031 141.074219 140.542969 141.214844 140.964844 141.214844 C 141.261719 141.214844 141.523438 141.167969 141.746094 141.066406 C 141.972656 140.964844 142.152344 140.792969 142.28125 140.550781 C 142.414062 140.304688 142.480469 139.960938 142.480469 139.515625 L 142.480469 136.632812 C 142.46875 136.480469 142.421875 136.378906 142.339844 136.339844 C 142.261719 136.300781 142.140625 136.28125 141.980469 136.28125 L 141.980469 136.191406 L 143.074219 136.191406 L 143.074219 136.28125 C 142.9375 136.28125 142.824219 136.304688 142.722656 136.347656 C 142.621094 136.394531 142.574219 136.511719 142.574219 136.699219 L 142.574219 139.515625 C 142.574219 139.65625 142.558594 139.808594 142.539062 139.972656 C 142.519531 140.136719 142.480469 140.300781 142.414062 140.464844 C 142.351562 140.628906 142.257812 140.777344 142.128906 140.917969 C 142 141.054688 141.824219 141.167969 141.605469 141.25 C 141.386719 141.332031 141.117188 141.375 140.796875 141.375 C 140.300781 141.375 139.910156 141.292969 139.621094 141.125 C 139.339844 140.957031 139.136719 140.730469 139.011719 140.449219 C 138.894531 140.160156 138.839844 139.835938 138.839844 139.472656 L 138.839844 136.699219 C 138.839844 136.511719 138.796875 136.394531 138.714844 136.347656 C 138.636719 136.304688 138.511719 136.28125 138.347656 136.28125 Z M 138.347656 136.28125 "/>
</g>
</svg>
