<?xml version="1.0" encoding="UTF-8"?>
<svg xmlns="http://www.w3.org/2000/svg" xmlns:xlink="http://www.w3.org/1999/xlink" width="300px" height="300px" viewBox="0 0 300 300" version="1.1">
<g id="surface1">
<rect x="0" y="0" width="300" height="300" style="fill:rgb(100%,100%,100%);fill-opacity:1;stroke:none;"/>
<path style=" stroke:none;fill-rule:nonzero;fill:rgb(100%,100%,100%);fill-opacity:1;" d="M 110.664062 118.753906 L 104.820312 118.753906 L 109.492188 91.972656 L 180.203125 91.972656 L 184.882812 118.753906 L 175.851562 118.753906 L 175.289062 115.621094 C 174.585938 111.6875 173.433594 108.660156 171.835938 106.539062 C 170.320312 104.527344 168.460938 103.109375 166.246094 102.285156 C 163.765625 101.363281 160.929688 100.902344 157.730469 100.902344 L 150.429688 100.902344 L 150.429688 97.097656 L 154.230469 97.097656 L 154.230469 162.933594 C 154.230469 163.613281 154.289062 164.097656 154.410156 164.402344 C 154.414062 164.421875 154.417969 164.433594 154.421875 164.4375 C 154.414062 164.417969 154.394531 164.394531 154.375 164.367188 C 154.296875 164.269531 154.199219 164.1875 154.082031 164.117188 C 154.636719 164.445312 155.785156 164.609375 157.527344 164.609375 L 161.335938 164.609375 L 161.335938 173.535156 L 128.464844 173.535156 L 128.464844 164.609375 L 132.273438 164.609375 C 133.996094 164.609375 135.117188 164.453125 135.625 164.144531 C 135.5 164.21875 135.398438 164.308594 135.320312 164.410156 C 135.300781 164.4375 135.285156 164.460938 135.273438 164.480469 C 135.273438 164.472656 135.28125 164.457031 135.289062 164.441406 C 135.40625 164.125 135.464844 163.625 135.464844 162.933594 L 135.464844 97.097656 L 139.269531 97.097656 L 139.269531 100.902344 L 131.867188 100.902344 C 128.738281 100.902344 125.933594 101.363281 123.453125 102.285156 C 121.25 103.105469 119.410156 104.515625 117.929688 106.511719 C 116.34375 108.65625 115.167969 111.707031 114.398438 115.675781 L 113.800781 118.753906 Z M 110.664062 111.148438 L 110.664062 114.953125 L 106.929688 114.226562 C 107.917969 109.132812 109.546875 105.050781 111.816406 101.988281 C 114.191406 98.777344 117.183594 96.5 120.800781 95.15625 C 124.132812 93.914062 127.824219 93.292969 131.867188 93.292969 L 143.074219 93.292969 L 143.074219 162.933594 C 143.074219 166.660156 141.90625 169.234375 139.570312 170.648438 C 137.847656 171.691406 135.414062 172.214844 132.273438 172.214844 L 132.273438 168.410156 L 136.074219 168.410156 L 136.074219 169.730469 L 132.273438 169.730469 L 132.273438 165.925781 L 157.527344 165.925781 L 157.527344 169.730469 L 153.726562 169.730469 L 153.726562 168.410156 L 157.527344 168.410156 L 157.527344 172.214844 C 154.402344 172.214844 151.96875 171.703125 150.226562 170.675781 C 147.824219 169.265625 146.625 166.683594 146.625 162.933594 L 146.625 93.292969 L 157.730469 93.292969 C 161.839844 93.292969 165.5625 93.914062 168.898438 95.15625 C 172.503906 96.496094 175.507812 98.765625 177.914062 101.960938 C 180.242188 105.050781 181.863281 109.15625 182.777344 114.28125 L 179.035156 114.953125 L 179.035156 111.148438 L 180.351562 111.148438 L 180.351562 114.953125 L 176.605469 115.605469 L 173.257812 96.433594 L 177.007812 95.78125 L 177.007812 99.582031 L 112.691406 99.582031 L 112.691406 95.78125 L 116.441406 96.433594 L 113.089844 115.605469 L 109.34375 114.953125 L 109.34375 111.148438 Z M 110.664062 111.148438 "/>
<path style=" stroke:none;fill-rule:nonzero;fill:rgb(0%,0%,0%);fill-opacity:1;" d="M 110.664062 114.957031 L 109.339844 114.957031 L 112.691406 95.78125 L 177.003906 95.78125 L 180.351562 114.957031 L 179.027344 114.957031 C 178.21875 110.425781 176.832031 106.855469 174.867188 104.253906 C 172.90625 101.648438 170.472656 99.804688 167.566406 98.730469 C 164.65625 97.648438 161.378906 97.105469 157.726562 97.105469 L 150.429688 97.105469 L 150.429688 162.929688 C 150.429688 165.230469 151.003906 166.722656 152.152344 167.40625 C 153.304688 168.082031 155.09375 168.417969 157.527344 168.417969 L 157.527344 169.730469 L 132.265625 169.730469 L 132.265625 168.417969 C 134.695312 168.417969 136.472656 168.082031 137.589844 167.40625 C 138.707031 166.722656 139.265625 165.230469 139.265625 162.929688 L 139.265625 97.105469 L 131.867188 97.105469 C 128.28125 97.105469 125.035156 97.648438 122.128906 98.730469 C 119.21875 99.804688 116.796875 101.648438 114.867188 104.253906 C 112.941406 106.855469 111.539062 110.425781 110.664062 114.957031 Z M 110.664062 114.957031 "/>
<path style=" stroke:none;fill-rule:nonzero;fill:rgb(100%,100%,100%);fill-opacity:1;" d="M 139.117188 118.753906 L 133.273438 118.753906 L 137.949219 91.972656 L 208.660156 91.972656 L 213.335938 118.753906 L 204.308594 118.753906 L 203.746094 115.621094 C 203.039062 111.6875 201.890625 108.660156 200.292969 106.539062 C 198.777344 104.527344 196.914062 103.109375 194.703125 102.285156 C 192.222656 101.363281 189.382812 100.902344 186.1875 100.902344 L 178.882812 100.902344 L 178.882812 97.097656 L 182.6875 97.097656 L 182.6875 162.933594 C 182.6875 163.613281 182.746094 164.097656 182.867188 164.402344 C 182.871094 164.421875 182.875 164.433594 182.878906 164.4375 C 182.867188 164.417969 182.851562 164.394531 182.832031 164.367188 C 182.753906 164.269531 182.65625 164.1875 182.539062 164.117188 C 183.09375 164.445312 184.242188 164.609375 185.984375 164.609375 L 189.789062 164.609375 L 189.789062 173.535156 L 156.921875 173.535156 L 156.921875 164.609375 L 160.726562 164.609375 C 162.453125 164.609375 163.570312 164.453125 164.082031 164.144531 C 163.957031 164.21875 163.855469 164.308594 163.773438 164.410156 C 163.757812 164.4375 163.742188 164.460938 163.726562 164.480469 C 163.730469 164.472656 163.738281 164.457031 163.746094 164.441406 C 163.863281 164.125 163.921875 163.625 163.921875 162.933594 L 163.921875 97.097656 L 167.726562 97.097656 L 167.726562 100.902344 L 160.320312 100.902344 C 157.195312 100.902344 154.390625 101.363281 151.910156 102.285156 C 149.707031 103.105469 147.867188 104.515625 146.386719 106.511719 C 144.800781 108.65625 143.625 111.707031 142.851562 115.675781 L 142.257812 118.753906 Z M 139.117188 111.148438 L 139.117188 114.953125 L 135.382812 114.226562 C 136.375 109.132812 138.003906 105.050781 140.273438 101.988281 C 142.648438 98.777344 145.640625 96.5 149.257812 95.15625 C 152.589844 93.914062 156.28125 93.292969 160.320312 93.292969 L 171.53125 93.292969 L 171.53125 162.933594 C 171.53125 166.660156 170.363281 169.234375 168.023438 170.648438 C 166.304688 171.691406 163.867188 172.214844 160.726562 172.214844 L 160.726562 168.410156 L 164.53125 168.410156 L 164.53125 169.730469 L 160.726562 169.730469 L 160.726562 165.925781 L 185.984375 165.925781 L 185.984375 169.730469 L 182.179688 169.730469 L 182.179688 168.410156 L 185.984375 168.410156 L 185.984375 172.214844 C 182.859375 172.214844 180.425781 171.703125 178.679688 170.675781 C 176.28125 169.265625 175.082031 166.683594 175.082031 162.933594 L 175.082031 93.292969 L 186.1875 93.292969 C 190.296875 93.292969 194.019531 93.914062 197.355469 95.15625 C 200.960938 96.496094 203.960938 98.765625 206.371094 101.960938 C 208.695312 105.050781 210.320312 109.15625 211.234375 114.28125 L 207.492188 114.953125 L 207.492188 111.148438 L 208.808594 111.148438 L 208.808594 114.953125 L 205.0625 115.605469 L 201.714844 96.433594 L 205.460938 95.78125 L 205.460938 99.582031 L 141.148438 99.582031 L 141.148438 95.78125 L 144.898438 96.433594 L 141.546875 115.605469 L 137.800781 114.953125 L 137.800781 111.148438 Z M 139.117188 111.148438 "/>
<path style=" stroke:none;fill-rule:nonzero;fill:rgb(0%,0%,0%);fill-opacity:1;" d="M 139.121094 114.957031 L 137.796875 114.957031 L 141.148438 95.78125 L 205.460938 95.78125 L 208.808594 114.957031 L 207.484375 114.957031 C 206.675781 110.425781 205.289062 106.855469 203.320312 104.253906 C 201.363281 101.648438 198.929688 99.804688 196.023438 98.730469 C 193.113281 97.648438 189.835938 97.105469 186.183594 97.105469 L 178.882812 97.105469 L 178.882812 162.929688 C 178.882812 165.230469 179.460938 166.722656 180.609375 167.40625 C 181.757812 168.082031 183.550781 168.417969 185.984375 168.417969 L 185.984375 169.730469 L 160.722656 169.730469 L 160.722656 168.417969 C 163.152344 168.417969 164.929688 168.082031 166.046875 167.40625 C 167.164062 166.722656 167.722656 165.230469 167.722656 162.929688 L 167.722656 97.105469 L 160.320312 97.105469 C 156.738281 97.105469 153.492188 97.648438 150.585938 98.730469 C 147.675781 99.804688 145.253906 101.648438 143.320312 104.253906 C 141.398438 106.855469 139.996094 110.425781 139.121094 114.957031 Z M 139.121094 114.957031 "/>
<path style=" stroke:none;fill-rule:nonzero;fill:rgb(0%,0%,0%);fill-opacity:1;" d="M 81.828125 186.300781 L 81.578125 186.300781 L 82.226562 182.5625 L 94.742188 182.5625 L 95.402344 186.300781 L 95.140625 186.300781 C 94.980469 185.417969 94.710938 184.722656 94.328125 184.210938 C 93.945312 183.707031 93.46875 183.347656 92.902344 183.136719 C 92.34375 182.929688 91.707031 182.824219 90.992188 182.824219 L 89.578125 182.824219 L 89.578125 195.636719 C 89.578125 196.085938 89.683594 196.378906 89.902344 196.511719 C 90.128906 196.636719 90.476562 196.699219 90.953125 196.699219 L 90.953125 196.960938 L 86.039062 196.960938 L 86.039062 196.699219 C 86.515625 196.699219 86.859375 196.636719 87.078125 196.511719 C 87.292969 196.378906 87.402344 196.085938 87.402344 195.636719 L 87.402344 182.824219 L 85.953125 182.824219 C 85.257812 182.824219 84.632812 182.929688 84.066406 183.136719 C 83.496094 183.347656 83.027344 183.707031 82.652344 184.210938 C 82.277344 184.722656 82.003906 185.417969 81.828125 186.300781 Z M 81.828125 186.300781 "/>
<path style=" stroke:none;fill-rule:nonzero;fill:rgb(0%,0%,0%);fill-opacity:1;" d="M 96.574219 182.824219 L 96.574219 182.5625 L 101.550781 182.5625 L 101.550781 182.824219 C 101.074219 182.824219 100.71875 182.886719 100.488281 183.011719 C 100.261719 183.136719 100.152344 183.472656 100.152344 184.011719 L 100.152344 191.824219 C 100.152344 193.472656 100.488281 194.707031 101.164062 195.523438 C 101.84375 196.34375 102.777344 196.75 103.964844 196.75 C 104.804688 196.75 105.542969 196.613281 106.1875 196.335938 C 106.828125 196.054688 107.332031 195.566406 107.699219 194.875 C 108.066406 194.183594 108.25 193.210938 108.25 191.960938 L 108.25 183.8125 C 108.226562 183.378906 108.09375 183.109375 107.863281 183 C 107.636719 182.882812 107.300781 182.824219 106.851562 182.824219 L 106.851562 182.5625 L 109.914062 182.5625 L 109.914062 182.824219 C 109.539062 182.824219 109.207031 182.886719 108.925781 183.011719 C 108.652344 183.136719 108.511719 183.472656 108.511719 184.011719 L 108.511719 191.960938 C 108.511719 192.347656 108.480469 192.769531 108.425781 193.238281 C 108.375 193.695312 108.257812 194.160156 108.074219 194.625 C 107.890625 195.09375 107.617188 195.519531 107.25 195.910156 C 106.890625 196.296875 106.402344 196.609375 105.789062 196.847656 C 105.179688 197.082031 104.414062 197.199219 103.488281 197.199219 C 102.09375 197.199219 100.996094 196.964844 100.1875 196.5 C 99.386719 196.035156 98.816406 195.394531 98.476562 194.585938 C 98.140625 193.769531 97.976562 192.847656 97.976562 191.824219 L 97.976562 184.011719 C 97.976562 183.472656 97.855469 183.136719 97.625 183.011719 C 97.402344 182.886719 97.050781 182.824219 96.574219 182.824219 Z M 96.574219 182.824219 "/>
<path style=" stroke:none;fill-rule:nonzero;fill:rgb(0%,0%,0%);fill-opacity:1;" d="M 111.386719 190.085938 C 111.386719 188.429688 111.703125 187.023438 112.335938 185.875 C 112.976562 184.722656 113.832031 183.847656 114.898438 183.25 C 115.964844 182.648438 117.152344 182.347656 118.460938 182.347656 C 119.078125 182.347656 119.589844 182.398438 120 182.5 C 120.414062 182.59375 120.773438 182.707031 121.074219 182.835938 C 121.375 182.972656 121.644531 183.085938 121.886719 183.1875 C 122.128906 183.285156 122.375 183.335938 122.625 183.335938 C 122.890625 183.335938 123.085938 183.269531 123.210938 183.125 C 123.335938 182.972656 123.398438 182.785156 123.398438 182.5625 L 123.648438 182.5625 L 123.949219 186.988281 L 123.710938 186.988281 C 123.410156 185.695312 122.816406 184.679688 121.9375 183.9375 C 121.0625 183.195312 119.960938 182.824219 118.636719 182.824219 C 117.042969 182.824219 115.832031 183.367188 115 184.449219 C 114.175781 185.535156 113.761719 187.0625 113.761719 189.035156 C 113.761719 189.804688 113.855469 190.613281 114.050781 191.460938 C 114.25 192.3125 114.554688 193.105469 114.972656 193.835938 C 115.390625 194.5625 115.929688 195.160156 116.597656 195.625 C 117.273438 196.082031 118.082031 196.3125 119.023438 196.3125 C 120.191406 196.3125 120.980469 196.042969 121.398438 195.5 C 121.824219 194.949219 122.035156 194.144531 122.035156 193.085938 L 122.035156 190.523438 C 122.035156 190.144531 121.925781 189.894531 121.699219 189.785156 C 121.480469 189.671875 121.066406 189.613281 120.449219 189.613281 L 120.449219 189.363281 L 125.585938 189.363281 L 125.585938 189.613281 C 125.21875 189.613281 124.894531 189.671875 124.613281 189.785156 C 124.335938 189.894531 124.199219 190.144531 124.199219 190.523438 L 124.222656 196.960938 L 123.949219 196.960938 C 123.949219 196.230469 123.898438 195.71875 123.800781 195.425781 C 123.699219 195.132812 123.476562 194.988281 123.136719 194.988281 C 122.925781 194.988281 122.714844 195.054688 122.5 195.1875 C 122.289062 195.320312 122.003906 195.550781 121.636719 195.875 C 121.019531 196.417969 120.425781 196.773438 119.847656 196.949219 C 119.273438 197.113281 118.617188 197.199219 117.886719 197.199219 C 117.042969 197.199219 116.230469 197.050781 115.449219 196.761719 C 114.675781 196.472656 113.976562 196.035156 113.363281 195.449219 C 112.753906 194.867188 112.269531 194.132812 111.910156 193.25 C 111.5625 192.359375 111.386719 191.304688 111.386719 190.085938 Z M 115.636719 177.898438 L 115.847656 177.898438 C 115.898438 178.242188 116.074219 178.507812 116.375 178.699219 C 116.679688 178.882812 117.023438 179.007812 117.398438 179.074219 C 117.773438 179.132812 118.105469 179.160156 118.398438 179.160156 C 118.691406 179.160156 119.023438 179.132812 119.398438 179.074219 C 119.78125 179.007812 120.117188 178.882812 120.410156 178.699219 C 120.710938 178.507812 120.890625 178.242188 120.949219 177.898438 L 121.160156 177.898438 C 121.160156 178.742188 120.914062 179.367188 120.425781 179.773438 C 119.941406 180.175781 119.285156 180.386719 118.460938 180.410156 C 117.628906 180.410156 116.949219 180.222656 116.425781 179.835938 C 115.898438 179.445312 115.636719 178.800781 115.636719 177.898438 Z M 115.636719 177.898438 "/>
<path style=" stroke:none;fill-rule:nonzero;fill:rgb(0%,0%,0%);fill-opacity:1;" d="M 126.664062 182.824219 L 126.664062 182.5625 L 132.300781 182.5625 C 133.03125 182.5625 133.75 182.597656 134.449219 182.675781 C 135.15625 182.75 135.792969 182.90625 136.363281 183.136719 C 136.929688 183.371094 137.382812 183.730469 137.726562 184.210938 C 138.066406 184.695312 138.238281 185.335938 138.238281 186.136719 C 138.238281 187.15625 137.945312 187.972656 137.363281 188.585938 C 136.777344 189.195312 136.015625 189.503906 135.074219 189.511719 L 135.074219 189.597656 C 136.332031 189.597656 137.320312 189.886719 138.039062 190.460938 C 138.761719 191.03125 139.125 191.808594 139.125 192.800781 C 139.125 193.234375 139.054688 193.691406 138.914062 194.175781 C 138.777344 194.648438 138.511719 195.105469 138.113281 195.535156 C 137.714844 195.960938 137.132812 196.308594 136.375 196.574219 C 135.617188 196.832031 134.621094 196.960938 133.386719 196.960938 L 126.664062 196.960938 L 126.664062 196.699219 C 127.136719 196.699219 127.480469 196.644531 127.699219 196.523438 C 127.917969 196.410156 128.027344 196.125 128.027344 195.675781 L 128.027344 183.8125 C 128.015625 183.386719 127.902344 183.117188 127.6875 183 C 127.46875 182.882812 127.128906 182.824219 126.664062 182.824219 Z M 132.675781 189.675781 L 130.226562 189.675781 L 130.226562 195.675781 C 130.226562 195.984375 130.277344 196.210938 130.375 196.363281 C 130.480469 196.511719 130.6875 196.613281 130.988281 196.660156 C 131.292969 196.707031 131.746094 196.722656 132.339844 196.722656 C 133.820312 196.722656 134.929688 196.410156 135.664062 195.773438 C 136.394531 195.132812 136.761719 194.125 136.761719 192.75 C 136.761719 191.925781 136.578125 191.285156 136.214844 190.835938 C 135.855469 190.386719 135.363281 190.082031 134.738281 189.925781 C 134.121094 189.757812 133.433594 189.675781 132.675781 189.675781 Z M 130.226562 183.8125 L 130.226562 189.4375 L 132.3125 189.4375 C 133.011719 189.4375 133.644531 189.355469 134.214844 189.1875 C 134.777344 189.011719 135.230469 188.6875 135.5625 188.210938 C 135.894531 187.738281 136.0625 187.046875 136.0625 186.136719 C 136.0625 185.0625 135.789062 184.242188 135.238281 183.675781 C 134.6875 183.109375 133.839844 182.824219 132.6875 182.824219 C 132.019531 182.824219 131.507812 182.847656 131.152344 182.886719 C 130.792969 182.921875 130.542969 183.007812 130.414062 183.148438 C 130.289062 183.285156 130.226562 183.503906 130.226562 183.8125 Z M 130.226562 183.8125 "/>
<path style=" stroke:none;fill-rule:nonzero;fill:rgb(0%,0%,0%);fill-opacity:1;" d="M 143.289062 196.960938 L 140.214844 196.960938 L 140.214844 196.699219 C 140.539062 196.699219 140.867188 196.582031 141.203125 196.347656 C 141.542969 196.117188 141.785156 195.820312 141.929688 195.460938 L 146.242188 185.148438 L 145.679688 183.8125 C 145.519531 183.410156 145.273438 183.148438 144.941406 183.023438 C 144.617188 182.894531 144.257812 182.824219 143.867188 182.824219 L 143.867188 182.5625 L 147.328125 182.5625 L 152.515625 194.960938 C 152.789062 195.613281 153.09375 196.066406 153.429688 196.324219 C 153.769531 196.574219 154.179688 196.699219 154.664062 196.699219 L 154.664062 196.960938 L 149.117188 196.960938 L 149.117188 196.699219 L 149.652344 196.699219 C 150.167969 196.699219 150.460938 196.535156 150.527344 196.199219 C 150.601562 195.867188 150.539062 195.460938 150.339844 194.988281 L 149.214844 192.238281 L 143.527344 192.238281 L 142.226562 195.386719 C 142.054688 195.804688 142.082031 196.128906 142.316406 196.363281 C 142.554688 196.585938 142.882812 196.699219 143.289062 196.699219 Z M 146.378906 185.449219 L 143.652344 191.988281 L 149.101562 191.988281 Z M 146.378906 185.449219 "/>
<path style=" stroke:none;fill-rule:nonzero;fill:rgb(0%,0%,0%);fill-opacity:1;" d="M 161.140625 186.300781 L 160.890625 186.300781 L 161.539062 182.5625 L 174.050781 182.5625 L 174.714844 186.300781 L 174.453125 186.300781 C 174.292969 185.417969 174.019531 184.722656 173.640625 184.210938 C 173.253906 183.707031 172.78125 183.347656 172.214844 183.136719 C 171.65625 182.929688 171.015625 182.824219 170.300781 182.824219 L 168.890625 182.824219 L 168.890625 195.636719 C 168.890625 196.085938 168.996094 196.378906 169.214844 196.511719 C 169.4375 196.636719 169.789062 196.699219 170.265625 196.699219 L 170.265625 196.960938 L 165.351562 196.960938 L 165.351562 196.699219 C 165.828125 196.699219 166.171875 196.636719 166.390625 196.511719 C 166.605469 196.378906 166.714844 196.085938 166.714844 195.636719 L 166.714844 182.824219 L 165.265625 182.824219 C 164.570312 182.824219 163.941406 182.929688 163.375 183.136719 C 162.808594 183.347656 162.339844 183.707031 161.964844 184.210938 C 161.589844 184.722656 161.3125 185.417969 161.140625 186.300781 Z M 161.140625 186.300781 "/>
<path style=" stroke:none;fill-rule:nonzero;fill:rgb(0%,0%,0%);fill-opacity:1;" d="M 175.886719 182.824219 L 175.886719 182.5625 L 180.863281 182.5625 L 180.863281 182.824219 C 180.386719 182.824219 180.03125 182.886719 179.800781 183.011719 C 179.574219 183.136719 179.460938 183.472656 179.460938 184.011719 L 179.460938 191.824219 C 179.460938 193.472656 179.800781 194.707031 180.472656 195.523438 C 181.15625 196.34375 182.089844 196.75 183.273438 196.75 C 184.113281 196.75 184.855469 196.613281 185.5 196.335938 C 186.140625 196.054688 186.644531 195.566406 187.011719 194.875 C 187.378906 194.183594 187.5625 193.210938 187.5625 191.960938 L 187.5625 183.8125 C 187.535156 183.378906 187.40625 183.109375 187.175781 183 C 186.949219 182.882812 186.613281 182.824219 186.160156 182.824219 L 186.160156 182.5625 L 189.222656 182.5625 L 189.222656 182.824219 C 188.847656 182.824219 188.519531 182.886719 188.238281 183.011719 C 187.960938 183.136719 187.824219 183.472656 187.824219 184.011719 L 187.824219 191.960938 C 187.824219 192.347656 187.792969 192.769531 187.738281 193.238281 C 187.6875 193.695312 187.566406 194.160156 187.386719 194.625 C 187.203125 195.09375 186.925781 195.519531 186.5625 195.910156 C 186.203125 196.296875 185.714844 196.609375 185.097656 196.847656 C 184.488281 197.082031 183.722656 197.199219 182.800781 197.199219 C 181.40625 197.199219 180.304688 196.964844 179.5 196.5 C 178.699219 196.035156 178.128906 195.394531 177.785156 194.585938 C 177.453125 193.769531 177.285156 192.847656 177.285156 191.824219 L 177.285156 184.011719 C 177.285156 183.472656 177.167969 183.136719 176.9375 183.011719 C 176.710938 182.886719 176.363281 182.824219 175.886719 182.824219 Z M 175.886719 182.824219 "/>
<path style=" stroke:none;fill-rule:nonzero;fill:rgb(0%,0%,0%);fill-opacity:1;" d="M 190.210938 182.5625 L 193.996094 182.5625 L 201.632812 193.222656 L 201.621094 183.886719 C 201.621094 183.363281 201.503906 183.054688 201.273438 182.960938 C 201.039062 182.871094 200.691406 182.824219 200.234375 182.824219 L 200.234375 182.5625 L 203.273438 182.5625 L 203.273438 182.824219 C 202.828125 182.824219 202.492188 182.867188 202.257812 182.949219 C 202.023438 183.035156 201.898438 183.3125 201.871094 183.785156 L 201.898438 196.960938 L 201.632812 196.960938 L 192.496094 184.199219 L 192.496094 195.636719 C 192.496094 196.160156 192.613281 196.472656 192.847656 196.5625 C 193.085938 196.65625 193.4375 196.699219 193.898438 196.699219 L 193.898438 196.960938 L 190.835938 196.960938 L 190.835938 196.699219 C 191.308594 196.699219 191.660156 196.65625 191.882812 196.5625 C 192.117188 196.472656 192.234375 196.160156 192.234375 195.636719 L 192.234375 183.847656 C 192 183.449219 191.710938 183.179688 191.371094 183.035156 C 191.039062 182.894531 190.648438 182.824219 190.210938 182.824219 Z M 190.210938 182.5625 "/>
<path style=" stroke:none;fill-rule:nonzero;fill:rgb(0%,0%,0%);fill-opacity:1;" d="M 207.140625 196.960938 L 204.066406 196.960938 L 204.066406 196.699219 C 204.390625 196.699219 204.71875 196.582031 205.054688 196.347656 C 205.394531 196.117188 205.636719 195.820312 205.78125 195.460938 L 210.09375 185.148438 L 209.53125 183.8125 C 209.371094 183.410156 209.125 183.148438 208.792969 183.023438 C 208.46875 182.894531 208.109375 182.824219 207.71875 182.824219 L 207.71875 182.5625 L 211.179688 182.5625 L 216.367188 194.960938 C 216.640625 195.613281 216.945312 196.066406 217.28125 196.324219 C 217.621094 196.574219 218.03125 196.699219 218.515625 196.699219 L 218.515625 196.960938 L 212.96875 196.960938 L 212.96875 196.699219 L 213.503906 196.699219 C 214.019531 196.699219 214.3125 196.535156 214.378906 196.199219 C 214.453125 195.867188 214.390625 195.460938 214.191406 194.988281 L 213.066406 192.238281 L 207.378906 192.238281 L 206.078125 195.386719 C 205.90625 195.804688 205.933594 196.128906 206.167969 196.363281 C 206.40625 196.585938 206.734375 196.699219 207.140625 196.699219 Z M 210.230469 185.449219 L 207.503906 191.988281 L 212.953125 191.988281 Z M 210.230469 185.449219 "/>
<path style=" stroke:none;fill-rule:nonzero;fill:rgb(0%,0%,0%);fill-opacity:1;" d="M 85.429688 211.9375 L 85.429688 211.796875 C 85.679688 211.796875 85.863281 211.765625 85.980469 211.699219 C 86.097656 211.632812 86.15625 211.480469 86.15625 211.234375 L 86.15625 204.984375 C 86.15625 204.746094 86.097656 204.59375 85.980469 204.523438 C 85.863281 204.457031 85.679688 204.421875 85.429688 204.421875 L 85.429688 204.285156 L 88.042969 204.285156 L 88.042969 204.421875 C 87.792969 204.421875 87.609375 204.457031 87.492188 204.523438 C 87.375 204.582031 87.316406 204.722656 87.316406 204.949219 L 87.316406 207.921875 L 90.53125 207.921875 L 90.53125 204.984375 C 90.53125 204.746094 90.472656 204.59375 90.355469 204.523438 C 90.238281 204.457031 90.054688 204.421875 89.804688 204.421875 L 89.804688 204.285156 L 92.417969 204.285156 L 92.417969 204.421875 C 92.167969 204.421875 91.984375 204.457031 91.867188 204.523438 C 91.75 204.59375 91.691406 204.746094 91.691406 204.984375 L 91.691406 211.25 C 91.691406 211.492188 91.75 211.644531 91.867188 211.710938 C 91.984375 211.769531 92.167969 211.796875 92.417969 211.796875 L 92.417969 211.9375 L 89.804688 211.9375 L 89.804688 211.796875 C 90.054688 211.796875 90.238281 211.765625 90.355469 211.699219 C 90.472656 211.632812 90.53125 211.480469 90.53125 211.234375 L 90.53125 208.0625 L 87.316406 208.0625 L 87.316406 211.335938 C 87.324219 211.535156 87.386719 211.667969 87.503906 211.722656 C 87.628906 211.773438 87.808594 211.796875 88.042969 211.796875 L 88.042969 211.9375 Z M 85.429688 211.9375 "/>
<path style=" stroke:none;fill-rule:nonzero;fill:rgb(0%,0%,0%);fill-opacity:1;" d="M 97.117188 204.421875 L 97.117188 204.285156 L 99.753906 204.285156 L 99.753906 204.421875 C 99.503906 204.421875 99.316406 204.457031 99.191406 204.523438 C 99.074219 204.59375 99.015625 204.765625 99.015625 205.046875 L 99.015625 209.210938 C 99.015625 210.085938 99.195312 210.742188 99.554688 211.171875 C 99.910156 211.609375 100.40625 211.824219 101.042969 211.824219 C 101.492188 211.824219 101.882812 211.75 102.21875 211.597656 C 102.558594 211.449219 102.824219 211.191406 103.015625 210.824219 C 103.21875 210.457031 103.316406 209.941406 103.316406 209.273438 L 103.316406 204.949219 C 103.296875 204.71875 103.230469 204.570312 103.105469 204.511719 C 102.984375 204.453125 102.808594 204.421875 102.566406 204.421875 L 102.566406 204.285156 L 104.203125 204.285156 L 104.203125 204.421875 C 104.003906 204.421875 103.828125 204.457031 103.679688 204.523438 C 103.53125 204.59375 103.453125 204.765625 103.453125 205.046875 L 103.453125 209.273438 C 103.453125 209.484375 103.4375 209.710938 103.40625 209.960938 C 103.378906 210.203125 103.316406 210.449219 103.21875 210.699219 C 103.125 210.941406 102.984375 211.167969 102.792969 211.375 C 102.597656 211.582031 102.335938 211.75 102.003906 211.875 C 101.679688 212 101.273438 212.0625 100.792969 212.0625 C 100.046875 212.0625 99.460938 211.9375 99.03125 211.6875 C 98.605469 211.4375 98.296875 211.097656 98.117188 210.671875 C 97.941406 210.242188 97.855469 209.753906 97.855469 209.210938 L 97.855469 205.046875 C 97.855469 204.765625 97.792969 204.59375 97.667969 204.523438 C 97.546875 204.457031 97.367188 204.421875 97.117188 204.421875 Z M 97.117188 204.421875 "/>
<path style=" stroke:none;fill-rule:nonzero;fill:rgb(0%,0%,0%);fill-opacity:1;" d="M 109.460938 211.234375 L 109.460938 204.984375 C 109.460938 204.746094 109.402344 204.59375 109.285156 204.523438 C 109.167969 204.457031 108.984375 204.421875 108.734375 204.421875 L 108.734375 204.285156 L 111.347656 204.285156 L 111.347656 204.421875 C 111.097656 204.421875 110.914062 204.457031 110.796875 204.523438 C 110.679688 204.59375 110.625 204.746094 110.625 204.984375 L 110.625 208.359375 L 113.671875 204.960938 C 113.839844 204.796875 113.90625 204.671875 113.875 204.597656 C 113.847656 204.523438 113.761719 204.480469 113.609375 204.460938 C 113.46875 204.4375 113.300781 204.421875 113.109375 204.421875 L 113.109375 204.285156 L 115.136719 204.285156 L 115.136719 204.421875 C 114.925781 204.421875 114.75 204.4375 114.609375 204.460938 C 114.476562 204.480469 114.347656 204.523438 114.222656 204.597656 C 114.105469 204.671875 113.976562 204.792969 113.835938 204.949219 L 111.160156 207.960938 C 111.300781 208.195312 111.46875 208.375 111.660156 208.5 C 111.851562 208.617188 112.039062 208.671875 112.222656 208.671875 C 112.421875 208.671875 112.597656 208.609375 112.75 208.484375 L 114.636719 211.234375 C 114.800781 211.460938 114.96875 211.609375 115.136719 211.6875 C 115.3125 211.761719 115.492188 211.796875 115.6875 211.796875 L 115.6875 211.9375 L 114.5625 211.9375 C 114.261719 211.9375 114.011719 211.878906 113.8125 211.761719 C 113.617188 211.636719 113.453125 211.484375 113.3125 211.296875 C 113.175781 211.109375 113.039062 210.917969 112.898438 210.722656 L 111.0625 208.0625 L 110.625 208.5625 L 110.625 211.234375 C 110.625 211.46875 110.679688 211.625 110.796875 211.699219 C 110.914062 211.765625 111.097656 211.796875 111.347656 211.796875 L 111.347656 211.9375 L 108.734375 211.9375 L 108.734375 211.796875 C 108.984375 211.796875 109.167969 211.765625 109.285156 211.699219 C 109.402344 211.625 109.460938 211.46875 109.460938 211.234375 Z M 109.460938 211.234375 "/>
<path style=" stroke:none;fill-rule:nonzero;fill:rgb(0%,0%,0%);fill-opacity:1;" d="M 120.234375 204.421875 L 120.234375 204.285156 L 122.871094 204.285156 L 122.871094 204.421875 C 122.621094 204.421875 122.433594 204.457031 122.308594 204.523438 C 122.1875 204.59375 122.132812 204.765625 122.132812 205.046875 L 122.132812 209.210938 C 122.132812 210.085938 122.3125 210.742188 122.671875 211.171875 C 123.027344 211.609375 123.523438 211.824219 124.15625 211.824219 C 124.609375 211.824219 125 211.75 125.332031 211.597656 C 125.671875 211.449219 125.9375 211.191406 126.132812 210.824219 C 126.332031 210.457031 126.433594 209.941406 126.433594 209.273438 L 126.433594 204.949219 C 126.414062 204.71875 126.34375 204.570312 126.21875 204.511719 C 126.101562 204.453125 125.921875 204.421875 125.683594 204.421875 L 125.683594 204.285156 L 127.320312 204.285156 L 127.320312 204.421875 C 127.121094 204.421875 126.945312 204.457031 126.796875 204.523438 C 126.644531 204.59375 126.570312 204.765625 126.570312 205.046875 L 126.570312 209.273438 C 126.570312 209.484375 126.550781 209.710938 126.519531 209.960938 C 126.496094 210.203125 126.433594 210.449219 126.332031 210.699219 C 126.238281 210.941406 126.097656 211.167969 125.90625 211.375 C 125.714844 211.582031 125.453125 211.75 125.121094 211.875 C 124.796875 212 124.390625 212.0625 123.90625 212.0625 C 123.164062 212.0625 122.578125 211.9375 122.144531 211.6875 C 121.71875 211.4375 121.414062 211.097656 121.234375 210.671875 C 121.058594 210.242188 120.96875 209.753906 120.96875 209.210938 L 120.96875 205.046875 C 120.96875 204.765625 120.90625 204.59375 120.78125 204.523438 C 120.664062 204.457031 120.484375 204.421875 120.234375 204.421875 Z M 120.234375 204.421875 "/>
<path style=" stroke:none;fill-rule:nonzero;fill:rgb(0%,0%,0%);fill-opacity:1;" d="M 132.578125 211.234375 L 132.578125 204.984375 C 132.578125 204.746094 132.515625 204.59375 132.402344 204.523438 C 132.28125 204.457031 132.101562 204.421875 131.851562 204.421875 L 131.851562 204.285156 L 134.464844 204.285156 L 134.464844 204.421875 C 134.214844 204.421875 134.03125 204.457031 133.914062 204.523438 C 133.796875 204.59375 133.738281 204.746094 133.738281 204.984375 L 133.738281 208.359375 L 136.789062 204.960938 C 136.953125 204.796875 137.019531 204.671875 136.988281 204.597656 C 136.964844 204.523438 136.875 204.480469 136.726562 204.460938 C 136.582031 204.4375 136.417969 204.421875 136.226562 204.421875 L 136.226562 204.285156 L 138.25 204.285156 L 138.25 204.421875 C 138.042969 204.421875 137.867188 204.4375 137.726562 204.460938 C 137.59375 204.480469 137.464844 204.523438 137.339844 204.597656 C 137.21875 204.671875 137.09375 204.792969 136.953125 204.949219 L 134.277344 207.960938 C 134.417969 208.195312 134.582031 208.375 134.777344 208.5 C 134.96875 208.617188 135.15625 208.671875 135.339844 208.671875 C 135.539062 208.671875 135.714844 208.609375 135.863281 208.484375 L 137.75 211.234375 C 137.917969 211.460938 138.082031 211.609375 138.25 211.6875 C 138.425781 211.761719 138.609375 211.796875 138.800781 211.796875 L 138.800781 211.9375 L 137.675781 211.9375 C 137.375 211.9375 137.125 211.878906 136.925781 211.761719 C 136.734375 211.636719 136.566406 211.484375 136.425781 211.296875 C 136.292969 211.109375 136.15625 210.917969 136.015625 210.722656 L 134.175781 208.0625 L 133.738281 208.5625 L 133.738281 211.234375 C 133.738281 211.46875 133.796875 211.625 133.914062 211.699219 C 134.03125 211.765625 134.214844 211.796875 134.464844 211.796875 L 134.464844 211.9375 L 131.851562 211.9375 L 131.851562 211.796875 C 132.101562 211.796875 132.28125 211.765625 132.402344 211.699219 C 132.515625 211.625 132.578125 211.46875 132.578125 211.234375 Z M 132.578125 211.234375 "/>
<path style=" stroke:none;fill-rule:nonzero;fill:rgb(0%,0%,0%);fill-opacity:1;" d="M 150.136719 204.421875 L 150.136719 204.285156 L 153.136719 204.285156 C 153.527344 204.285156 153.914062 204.308594 154.289062 204.347656 C 154.664062 204.382812 155 204.460938 155.300781 204.585938 C 155.601562 204.710938 155.835938 204.90625 156.011719 205.160156 C 156.195312 205.410156 156.289062 205.753906 156.289062 206.1875 C 156.289062 206.71875 156.132812 207.148438 155.824219 207.472656 C 155.515625 207.796875 155.113281 207.96875 154.613281 207.972656 L 154.613281 208.023438 C 155.277344 208.023438 155.804688 208.179688 156.1875 208.484375 C 156.570312 208.785156 156.761719 209.199219 156.761719 209.722656 C 156.761719 209.949219 156.726562 210.191406 156.648438 210.449219 C 156.582031 210.707031 156.441406 210.949219 156.226562 211.171875 C 156.007812 211.398438 155.699219 211.582031 155.300781 211.722656 C 154.898438 211.867188 154.367188 211.9375 153.710938 211.9375 L 150.136719 211.9375 L 150.136719 211.796875 C 150.386719 211.796875 150.570312 211.769531 150.6875 211.710938 C 150.804688 211.644531 150.863281 211.492188 150.863281 211.25 L 150.863281 204.949219 C 150.851562 204.722656 150.789062 204.582031 150.675781 204.523438 C 150.566406 204.457031 150.386719 204.421875 150.136719 204.421875 Z M 153.335938 208.0625 L 152.023438 208.0625 L 152.023438 211.25 C 152.023438 211.417969 152.054688 211.542969 152.113281 211.625 C 152.167969 211.699219 152.277344 211.75 152.4375 211.773438 C 152.59375 211.796875 152.832031 211.8125 153.148438 211.8125 C 153.941406 211.8125 154.527344 211.640625 154.914062 211.296875 C 155.304688 210.957031 155.5 210.421875 155.5 209.699219 C 155.5 209.257812 155.402344 208.921875 155.210938 208.6875 C 155.019531 208.445312 154.757812 208.28125 154.425781 208.199219 C 154.101562 208.109375 153.738281 208.0625 153.335938 208.0625 Z M 152.023438 204.949219 L 152.023438 207.9375 L 153.136719 207.9375 C 153.511719 207.9375 153.851562 207.890625 154.148438 207.796875 C 154.449219 207.707031 154.6875 207.535156 154.863281 207.285156 C 155.042969 207.035156 155.136719 206.671875 155.136719 206.1875 C 155.136719 205.609375 154.988281 205.171875 154.6875 204.875 C 154.394531 204.574219 153.945312 204.421875 153.335938 204.421875 C 152.988281 204.421875 152.714844 204.4375 152.523438 204.460938 C 152.332031 204.480469 152.199219 204.523438 152.125 204.597656 C 152.054688 204.667969 152.023438 204.78125 152.023438 204.949219 Z M 152.023438 204.949219 "/>
<path style=" stroke:none;fill-rule:nonzero;fill:rgb(0%,0%,0%);fill-opacity:1;" d="M 161.570312 204.421875 L 161.570312 204.285156 L 164.210938 204.285156 L 164.210938 204.421875 C 163.960938 204.421875 163.773438 204.457031 163.648438 204.523438 C 163.527344 204.59375 163.472656 204.765625 163.472656 205.046875 L 163.472656 209.210938 C 163.472656 210.085938 163.648438 210.742188 164.007812 211.171875 C 164.367188 211.609375 164.863281 211.824219 165.496094 211.824219 C 165.945312 211.824219 166.335938 211.75 166.671875 211.597656 C 167.011719 211.449219 167.277344 211.191406 167.472656 210.824219 C 167.671875 210.457031 167.773438 209.941406 167.773438 209.273438 L 167.773438 204.949219 C 167.753906 204.71875 167.683594 204.570312 167.558594 204.511719 C 167.441406 204.453125 167.261719 204.421875 167.023438 204.421875 L 167.023438 204.285156 L 168.660156 204.285156 L 168.660156 204.421875 C 168.460938 204.421875 168.285156 204.457031 168.132812 204.523438 C 167.984375 204.59375 167.910156 204.765625 167.910156 205.046875 L 167.910156 209.273438 C 167.910156 209.484375 167.890625 209.710938 167.859375 209.960938 C 167.835938 210.203125 167.773438 210.449219 167.671875 210.699219 C 167.578125 210.941406 167.4375 211.167969 167.246094 211.375 C 167.054688 211.582031 166.789062 211.75 166.460938 211.875 C 166.132812 212 165.726562 212.0625 165.246094 212.0625 C 164.503906 212.0625 163.914062 211.9375 163.484375 211.6875 C 163.058594 211.4375 162.753906 211.097656 162.570312 210.671875 C 162.398438 210.242188 162.308594 209.753906 162.308594 209.210938 L 162.308594 205.046875 C 162.308594 204.765625 162.246094 204.59375 162.121094 204.523438 C 162.003906 204.457031 161.820312 204.421875 161.570312 204.421875 Z M 164.035156 202.136719 C 164.191406 202.136719 164.328125 202.195312 164.445312 202.3125 C 164.5625 202.429688 164.621094 202.566406 164.621094 202.722656 C 164.621094 202.890625 164.5625 203.03125 164.445312 203.148438 C 164.328125 203.257812 164.191406 203.3125 164.035156 203.3125 C 163.875 203.3125 163.738281 203.257812 163.621094 203.148438 C 163.503906 203.03125 163.445312 202.890625 163.445312 202.722656 C 163.445312 202.566406 163.503906 202.429688 163.621094 202.3125 C 163.738281 202.195312 163.875 202.136719 164.035156 202.136719 Z M 165.945312 202.722656 C 165.945312 202.566406 166.003906 202.429688 166.121094 202.3125 C 166.238281 202.195312 166.375 202.136719 166.535156 202.136719 C 166.691406 202.136719 166.828125 202.195312 166.945312 202.3125 C 167.0625 202.429688 167.121094 202.566406 167.121094 202.722656 C 167.121094 202.890625 167.0625 203.03125 166.945312 203.148438 C 166.828125 203.257812 166.691406 203.3125 166.535156 203.3125 C 166.375 203.3125 166.238281 203.257812 166.121094 203.148438 C 166.003906 203.03125 165.945312 202.890625 165.945312 202.722656 Z M 165.945312 202.722656 "/>
<path style=" stroke:none;fill-rule:nonzero;fill:rgb(0%,0%,0%);fill-opacity:1;" d="M 173.191406 211.9375 L 173.191406 211.796875 C 173.441406 211.796875 173.621094 211.765625 173.742188 211.699219 C 173.855469 211.625 173.914062 211.46875 173.914062 211.234375 L 173.914062 204.984375 C 173.914062 204.746094 173.855469 204.59375 173.742188 204.523438 C 173.621094 204.457031 173.441406 204.421875 173.191406 204.421875 L 173.191406 204.285156 L 176.179688 204.285156 C 176.570312 204.285156 176.953125 204.308594 177.328125 204.347656 C 177.703125 204.382812 178.039062 204.460938 178.339844 204.585938 C 178.648438 204.710938 178.890625 204.898438 179.066406 205.148438 C 179.246094 205.398438 179.339844 205.734375 179.339844 206.148438 C 179.339844 206.566406 179.257812 206.898438 179.089844 207.148438 C 178.921875 207.398438 178.703125 207.59375 178.429688 207.722656 C 178.152344 207.859375 177.851562 207.949219 177.527344 208 C 177.203125 208.042969 176.890625 208.0625 176.589844 208.0625 L 176.140625 208.0625 C 176.28125 208.28125 176.433594 208.4375 176.601562 208.535156 C 176.777344 208.636719 176.945312 208.6875 177.117188 208.6875 C 177.316406 208.6875 177.496094 208.621094 177.664062 208.484375 L 179.554688 211.234375 C 179.71875 211.460938 179.890625 211.609375 180.066406 211.6875 C 180.242188 211.761719 180.421875 211.796875 180.617188 211.796875 L 180.617188 211.9375 L 179.578125 211.9375 C 179.285156 211.9375 179.03125 211.878906 178.816406 211.761719 C 178.605469 211.636719 178.421875 211.484375 178.265625 211.296875 C 178.105469 211.109375 177.960938 210.917969 177.828125 210.722656 L 175.992188 208.0625 L 175.078125 208.0625 L 175.078125 211.234375 C 175.078125 211.46875 175.132812 211.625 175.242188 211.699219 C 175.355469 211.765625 175.542969 211.796875 175.804688 211.796875 L 175.804688 211.9375 Z M 175.078125 207.921875 L 176.191406 207.921875 C 176.554688 207.921875 176.890625 207.878906 177.191406 207.785156 C 177.496094 207.6875 177.742188 207.507812 177.929688 207.25 C 178.109375 206.992188 178.203125 206.628906 178.203125 206.160156 C 178.203125 205.59375 178.042969 205.167969 177.726562 204.875 C 177.410156 204.574219 176.964844 204.421875 176.390625 204.421875 L 175.078125 204.421875 Z M 175.078125 207.921875 "/>
<path style=" stroke:none;fill-rule:nonzero;fill:rgb(0%,0%,0%);fill-opacity:1;" d="M 185.207031 208.097656 C 185.207031 207.546875 185.300781 207.035156 185.496094 206.5625 C 185.695312 206.085938 185.964844 205.671875 186.308594 205.3125 C 186.648438 204.953125 187.046875 204.671875 187.507812 204.472656 C 187.964844 204.265625 188.453125 204.160156 188.96875 204.160156 C 189.484375 204.160156 189.972656 204.265625 190.433594 204.472656 C 190.890625 204.671875 191.296875 204.953125 191.644531 205.3125 C 191.996094 205.671875 192.265625 206.085938 192.457031 206.5625 C 192.65625 207.035156 192.757812 207.546875 192.757812 208.097656 C 192.757812 208.640625 192.65625 209.15625 192.457031 209.636719 C 192.265625 210.109375 191.996094 210.53125 191.644531 210.898438 C 191.296875 211.265625 190.890625 211.554688 190.433594 211.761719 C 189.972656 211.960938 189.484375 212.0625 188.96875 212.0625 C 188.453125 212.0625 187.964844 211.960938 187.507812 211.761719 C 187.046875 211.554688 186.648438 211.265625 186.308594 210.898438 C 185.964844 210.53125 185.695312 210.109375 185.496094 209.636719 C 185.300781 209.15625 185.207031 208.640625 185.207031 208.097656 Z M 188.859375 204.3125 C 188.457031 204.3125 188.109375 204.410156 187.808594 204.609375 C 187.515625 204.804688 187.269531 205.074219 187.070312 205.421875 C 186.871094 205.765625 186.71875 206.15625 186.621094 206.597656 C 186.519531 207.03125 186.46875 207.492188 186.46875 207.972656 C 186.46875 208.484375 186.519531 208.972656 186.621094 209.449219 C 186.71875 209.917969 186.875 210.335938 187.082031 210.710938 C 187.296875 211.078125 187.570312 211.371094 187.894531 211.585938 C 188.226562 211.804688 188.621094 211.910156 189.070312 211.910156 C 189.496094 211.910156 189.859375 211.816406 190.15625 211.625 C 190.464844 211.421875 190.714844 211.15625 190.90625 210.824219 C 191.109375 210.484375 191.25 210.085938 191.34375 209.636719 C 191.445312 209.1875 191.496094 208.710938 191.496094 208.210938 C 191.496094 207.71875 191.445312 207.246094 191.34375 206.785156 C 191.25 206.320312 191.097656 205.90625 190.882812 205.535156 C 190.671875 205.160156 190.402344 204.867188 190.070312 204.648438 C 189.734375 204.421875 189.332031 204.3125 188.859375 204.3125 Z M 188.859375 204.3125 "/>
<path style=" stroke:none;fill-rule:nonzero;fill:rgb(0%,0%,0%);fill-opacity:1;" d="M 197.769531 211.9375 L 197.769531 208.785156 L 197.90625 208.785156 C 197.90625 209.484375 198.007812 210.0625 198.207031 210.511719 C 198.414062 210.953125 198.695312 211.28125 199.042969 211.484375 C 199.394531 211.695312 199.78125 211.796875 200.207031 211.796875 C 200.472656 211.796875 200.710938 211.761719 200.929688 211.6875 C 201.15625 211.605469 201.335938 211.46875 201.46875 211.285156 C 201.601562 211.09375 201.667969 210.84375 201.667969 210.535156 C 201.667969 210.246094 201.570312 209.980469 201.382812 209.734375 C 201.195312 209.484375 200.957031 209.25 200.65625 209.023438 C 200.363281 208.796875 200.050781 208.578125 199.71875 208.359375 C 199.394531 208.144531 199.082031 207.917969 198.78125 207.671875 C 198.480469 207.433594 198.238281 207.171875 198.054688 206.898438 C 197.871094 206.617188 197.78125 206.308594 197.78125 205.972656 C 197.78125 205.566406 197.886719 205.230469 198.105469 204.960938 C 198.332031 204.695312 198.609375 204.496094 198.945312 204.359375 C 199.273438 204.230469 199.617188 204.160156 199.96875 204.160156 C 200.226562 204.160156 200.445312 204.191406 200.632812 204.25 C 200.820312 204.296875 200.984375 204.359375 201.117188 204.4375 C 201.25 204.511719 201.371094 204.574219 201.480469 204.625 C 201.585938 204.671875 201.695312 204.699219 201.804688 204.699219 C 201.9375 204.699219 202.03125 204.671875 202.082031 204.609375 C 202.132812 204.546875 202.15625 204.4375 202.15625 204.285156 L 202.292969 204.285156 L 202.292969 206.761719 L 202.15625 206.761719 C 202.15625 206.296875 202.0625 205.886719 201.882812 205.535156 C 201.707031 205.179688 201.460938 204.90625 201.15625 204.710938 C 200.847656 204.511719 200.496094 204.410156 200.105469 204.410156 C 199.6875 204.410156 199.386719 204.511719 199.207031 204.710938 C 199.023438 204.910156 198.929688 205.167969 198.929688 205.472656 C 198.929688 205.816406 199.023438 206.121094 199.207031 206.386719 C 199.386719 206.644531 199.621094 206.882812 199.90625 207.097656 C 200.195312 207.308594 200.5 207.515625 200.820312 207.722656 C 201.144531 207.921875 201.445312 208.136719 201.730469 208.359375 C 202.023438 208.585938 202.257812 208.84375 202.445312 209.125 C 202.625 209.398438 202.71875 209.730469 202.71875 210.109375 C 202.71875 210.46875 202.644531 210.796875 202.492188 211.085938 C 202.351562 211.378906 202.113281 211.617188 201.78125 211.796875 C 201.445312 211.972656 200.980469 212.0625 200.382812 212.0625 C 200.097656 212.0625 199.855469 212.035156 199.65625 211.984375 C 199.460938 211.9375 199.292969 211.878906 199.144531 211.8125 C 199 211.746094 198.871094 211.691406 198.757812 211.648438 C 198.636719 211.597656 198.519531 211.574219 198.394531 211.574219 C 198.070312 211.574219 197.90625 211.695312 197.90625 211.9375 Z M 197.769531 211.9375 "/>
<path style=" stroke:none;fill-rule:nonzero;fill:rgb(0%,0%,0%);fill-opacity:1;" d="M 207.519531 204.421875 L 207.519531 204.285156 L 210.15625 204.285156 L 210.15625 204.421875 C 209.90625 204.421875 209.71875 204.457031 209.59375 204.523438 C 209.476562 204.59375 209.421875 204.765625 209.421875 205.046875 L 209.421875 209.210938 C 209.421875 210.085938 209.597656 210.742188 209.957031 211.171875 C 210.3125 211.609375 210.8125 211.824219 211.445312 211.824219 C 211.894531 211.824219 212.285156 211.75 212.621094 211.597656 C 212.960938 211.449219 213.226562 211.191406 213.421875 210.824219 C 213.621094 210.457031 213.71875 209.941406 213.71875 209.273438 L 213.71875 204.949219 C 213.703125 204.71875 213.632812 204.570312 213.507812 204.511719 C 213.390625 204.453125 213.210938 204.421875 212.96875 204.421875 L 212.96875 204.285156 L 214.609375 204.285156 L 214.609375 204.421875 C 214.40625 204.421875 214.234375 204.457031 214.082031 204.523438 C 213.933594 204.59375 213.859375 204.765625 213.859375 205.046875 L 213.859375 209.273438 C 213.859375 209.484375 213.839844 209.710938 213.808594 209.960938 C 213.78125 210.203125 213.71875 210.449219 213.621094 210.699219 C 213.527344 210.941406 213.386719 211.167969 213.195312 211.375 C 213 211.582031 212.738281 211.75 212.40625 211.875 C 212.082031 212 211.675781 212.0625 211.195312 212.0625 C 210.453125 212.0625 209.863281 211.9375 209.433594 211.6875 C 209.007812 211.4375 208.703125 211.097656 208.519531 210.671875 C 208.34375 210.242188 208.257812 209.753906 208.257812 209.210938 L 208.257812 205.046875 C 208.257812 204.765625 208.195312 204.59375 208.070312 204.523438 C 207.953125 204.457031 207.769531 204.421875 207.519531 204.421875 Z M 207.519531 204.421875 "/>
</g>
</svg>
