<?xml version="1.0" encoding="UTF-8"?>
<svg xmlns="http://www.w3.org/2000/svg" xmlns:xlink="http://www.w3.org/1999/xlink" width="250px" height="250px" viewBox="0 0 250 250" version="1.1">
<g id="surface1">
<rect x="0" y="0" width="250" height="250" style="fill:rgb(100%,100%,100%);fill-opacity:1;stroke:none;"/>
<path style=" stroke:none;fill-rule:nonzero;fill:rgb(100%,100%,100%);fill-opacity:1;" d="M 92.21875 98.960938 L 87.351562 98.960938 L 91.242188 76.644531 L 150.167969 76.644531 L 154.070312 98.960938 L 146.542969 98.960938 L 146.074219 96.351562 C 145.488281 93.074219 144.527344 90.550781 143.195312 88.78125 C 141.933594 87.105469 140.382812 85.925781 138.539062 85.238281 C 136.472656 84.46875 134.109375 84.085938 131.441406 84.085938 L 125.359375 84.085938 L 125.359375 80.914062 L 128.527344 80.914062 L 128.527344 135.777344 C 128.527344 136.34375 128.574219 136.746094 128.675781 137.003906 C 128.679688 137.019531 128.683594 137.027344 128.683594 137.03125 C 128.679688 137.015625 128.660156 136.996094 128.644531 136.972656 C 128.582031 136.890625 128.5 136.824219 128.402344 136.765625 C 128.863281 137.039062 129.820312 137.175781 131.273438 137.175781 L 134.445312 137.175781 L 134.445312 144.613281 L 107.054688 144.613281 L 107.054688 137.175781 L 110.226562 137.175781 C 111.664062 137.175781 112.597656 137.042969 113.019531 136.785156 C 112.917969 136.847656 112.832031 136.925781 112.765625 137.007812 C 112.75 137.03125 112.738281 137.050781 112.726562 137.066406 C 112.726562 137.058594 112.734375 137.046875 112.742188 137.035156 C 112.839844 136.769531 112.886719 136.355469 112.886719 135.777344 L 112.886719 80.914062 L 116.058594 80.914062 L 116.058594 84.085938 L 109.890625 84.085938 C 107.28125 84.085938 104.945312 84.46875 102.878906 85.238281 C 101.042969 85.921875 99.507812 87.097656 98.273438 88.761719 C 96.953125 90.546875 95.972656 93.089844 95.332031 96.394531 L 94.832031 98.960938 Z M 92.21875 92.625 L 92.21875 95.792969 L 89.109375 95.1875 C 89.933594 90.945312 91.289062 87.542969 93.179688 84.988281 C 95.160156 82.316406 97.652344 80.417969 100.667969 79.296875 C 103.445312 78.261719 106.519531 77.746094 109.890625 77.746094 L 119.230469 77.746094 L 119.230469 135.777344 C 119.230469 138.882812 118.253906 141.027344 116.308594 142.207031 C 114.871094 143.074219 112.84375 143.511719 110.226562 143.511719 L 110.226562 140.339844 L 113.394531 140.339844 L 113.394531 141.441406 L 110.226562 141.441406 L 110.226562 138.269531 L 131.273438 138.269531 L 131.273438 141.441406 L 128.105469 141.441406 L 128.105469 140.339844 L 131.273438 140.339844 L 131.273438 143.511719 C 128.667969 143.511719 126.640625 143.085938 125.1875 142.230469 C 123.1875 141.054688 122.1875 138.902344 122.1875 135.777344 L 122.1875 77.746094 L 131.441406 77.746094 C 134.867188 77.746094 137.96875 78.261719 140.75 79.296875 C 143.753906 80.414062 146.257812 82.304688 148.261719 84.96875 C 150.203125 87.542969 151.550781 90.964844 152.316406 95.234375 L 149.195312 95.792969 L 149.195312 92.625 L 150.292969 92.625 L 150.292969 95.792969 L 147.171875 96.339844 L 144.382812 80.363281 L 147.507812 79.816406 L 147.507812 82.984375 L 93.910156 82.984375 L 93.910156 79.816406 L 97.035156 80.363281 L 94.242188 96.339844 L 91.121094 95.792969 L 91.121094 92.625 Z M 92.21875 92.625 "/>
<path style=" stroke:none;fill-rule:nonzero;fill:rgb(0%,0%,0%);fill-opacity:1;" d="M 92.21875 95.796875 L 91.117188 95.796875 L 93.910156 79.816406 L 147.503906 79.816406 L 150.292969 95.796875 L 149.191406 95.796875 C 148.515625 92.019531 147.359375 89.046875 145.722656 86.878906 C 144.089844 84.707031 142.058594 83.171875 139.636719 82.277344 C 137.214844 81.375 134.480469 80.921875 131.4375 80.921875 L 125.359375 80.921875 L 125.359375 135.773438 C 125.359375 137.691406 125.835938 138.933594 126.792969 139.503906 C 127.753906 140.066406 129.246094 140.347656 131.273438 140.347656 L 131.273438 141.441406 L 110.222656 141.441406 L 110.222656 140.347656 C 112.246094 140.347656 113.726562 140.066406 114.660156 139.503906 C 115.589844 138.933594 116.054688 137.691406 116.054688 135.773438 L 116.054688 80.921875 L 109.890625 80.921875 C 106.902344 80.921875 104.195312 81.375 101.773438 82.277344 C 99.347656 83.171875 97.332031 84.707031 95.722656 86.878906 C 94.117188 89.046875 92.949219 92.019531 92.21875 95.796875 Z M 92.21875 95.796875 "/>
<path style=" stroke:none;fill-rule:nonzero;fill:rgb(100%,100%,100%);fill-opacity:1;" d="M 115.929688 98.960938 L 111.0625 98.960938 L 114.957031 76.644531 L 173.882812 76.644531 L 177.78125 98.960938 L 170.257812 98.960938 L 169.789062 96.351562 C 169.199219 93.074219 168.242188 90.550781 166.910156 88.78125 C 165.648438 87.105469 164.09375 85.925781 162.253906 85.238281 C 160.183594 84.46875 157.820312 84.085938 155.15625 84.085938 L 149.070312 84.085938 L 149.070312 80.914062 L 152.238281 80.914062 L 152.238281 135.777344 C 152.238281 136.34375 152.289062 136.746094 152.390625 137.003906 C 152.394531 137.019531 152.394531 137.027344 152.398438 137.03125 C 152.390625 137.015625 152.375 136.996094 152.359375 136.972656 C 152.292969 136.890625 152.214844 136.824219 152.117188 136.765625 C 152.578125 137.039062 153.535156 137.175781 154.988281 137.175781 L 158.15625 137.175781 L 158.15625 144.613281 L 130.769531 144.613281 L 130.769531 137.175781 L 133.9375 137.175781 C 135.378906 137.175781 136.308594 137.042969 136.734375 136.785156 C 136.628906 136.847656 136.546875 136.925781 136.476562 137.007812 C 136.464844 137.03125 136.453125 137.050781 136.4375 137.066406 C 136.441406 137.058594 136.449219 137.046875 136.457031 137.035156 C 136.550781 136.769531 136.601562 136.355469 136.601562 135.777344 L 136.601562 80.914062 L 139.773438 80.914062 L 139.773438 84.085938 L 133.601562 84.085938 C 130.996094 84.085938 128.660156 84.46875 126.589844 85.238281 C 124.753906 85.921875 123.222656 87.097656 121.988281 88.761719 C 120.667969 90.546875 119.6875 93.089844 119.042969 96.394531 L 118.546875 98.960938 Z M 115.929688 92.625 L 115.929688 95.792969 L 112.820312 95.1875 C 113.644531 90.945312 115.003906 87.542969 116.894531 84.988281 C 118.875 82.316406 121.367188 80.417969 124.382812 79.296875 C 127.160156 78.261719 130.234375 77.746094 133.601562 77.746094 L 142.941406 77.746094 L 142.941406 135.777344 C 142.941406 138.882812 141.96875 141.027344 140.019531 142.207031 C 138.585938 143.074219 136.554688 143.511719 133.9375 143.511719 L 133.9375 140.339844 L 137.109375 140.339844 L 137.109375 141.441406 L 133.9375 141.441406 L 133.9375 138.269531 L 154.988281 138.269531 L 154.988281 141.441406 L 151.816406 141.441406 L 151.816406 140.339844 L 154.988281 140.339844 L 154.988281 143.511719 C 152.382812 143.511719 150.355469 143.085938 148.898438 142.230469 C 146.902344 141.054688 145.902344 138.902344 145.902344 135.777344 L 145.902344 77.746094 L 155.15625 77.746094 C 158.582031 77.746094 161.683594 78.261719 164.464844 79.296875 C 167.46875 80.414062 169.96875 82.304688 171.976562 84.96875 C 173.914062 87.542969 175.265625 90.964844 176.027344 95.234375 L 172.910156 95.792969 L 172.910156 92.625 L 174.007812 92.625 L 174.007812 95.792969 L 170.886719 96.339844 L 168.097656 80.363281 L 171.21875 79.816406 L 171.21875 82.984375 L 117.625 82.984375 L 117.625 79.816406 L 120.75 80.363281 L 117.957031 96.339844 L 114.832031 95.792969 L 114.832031 92.625 Z M 115.929688 92.625 "/>
<path style=" stroke:none;fill-rule:nonzero;fill:rgb(0%,0%,0%);fill-opacity:1;" d="M 115.933594 95.796875 L 114.832031 95.796875 L 117.625 79.816406 L 171.21875 79.816406 L 174.007812 95.796875 L 172.902344 95.796875 C 172.230469 92.019531 171.074219 89.046875 169.433594 86.878906 C 167.800781 84.707031 165.773438 83.171875 163.351562 82.277344 C 160.925781 81.375 158.195312 80.921875 155.152344 80.921875 L 149.070312 80.921875 L 149.070312 135.773438 C 149.070312 137.691406 149.550781 138.933594 150.507812 139.503906 C 151.464844 140.066406 152.957031 140.347656 154.988281 140.347656 L 154.988281 141.441406 L 133.933594 141.441406 L 133.933594 140.347656 C 135.960938 140.347656 137.441406 140.066406 138.371094 139.503906 C 139.304688 138.933594 139.769531 137.691406 139.769531 135.773438 L 139.769531 80.921875 L 133.601562 80.921875 C 130.613281 80.921875 127.910156 81.375 125.488281 82.277344 C 123.0625 83.171875 121.042969 84.707031 119.433594 86.878906 C 117.832031 89.046875 116.664062 92.019531 115.933594 95.796875 Z M 115.933594 95.796875 "/>
<path style=" stroke:none;fill-rule:nonzero;fill:rgb(0%,0%,0%);fill-opacity:1;" d="M 68.191406 155.25 L 67.980469 155.25 L 68.523438 152.136719 L 78.953125 152.136719 L 79.503906 155.25 L 79.285156 155.25 C 79.152344 154.515625 78.925781 153.933594 78.605469 153.507812 C 78.289062 153.089844 77.890625 152.789062 77.417969 152.613281 C 76.953125 152.441406 76.421875 152.355469 75.828125 152.355469 L 74.648438 152.355469 L 74.648438 163.03125 C 74.648438 163.40625 74.738281 163.648438 74.917969 163.761719 C 75.105469 163.863281 75.398438 163.917969 75.792969 163.917969 L 75.792969 164.132812 L 71.699219 164.132812 L 71.699219 163.917969 C 72.097656 163.917969 72.382812 163.863281 72.566406 163.761719 C 72.746094 163.648438 72.835938 163.40625 72.835938 163.03125 L 72.835938 152.355469 L 71.628906 152.355469 C 71.046875 152.355469 70.527344 152.441406 70.054688 152.613281 C 69.582031 152.789062 69.191406 153.089844 68.878906 153.507812 C 68.566406 153.933594 68.335938 154.515625 68.191406 155.25 Z M 68.191406 155.25 "/>
<path style=" stroke:none;fill-rule:nonzero;fill:rgb(0%,0%,0%);fill-opacity:1;" d="M 80.480469 152.355469 L 80.480469 152.136719 L 84.625 152.136719 L 84.625 152.355469 C 84.230469 152.355469 83.933594 152.40625 83.738281 152.511719 C 83.550781 152.613281 83.460938 152.894531 83.460938 153.34375 L 83.460938 159.855469 C 83.460938 161.226562 83.738281 162.253906 84.304688 162.9375 C 84.871094 163.621094 85.648438 163.957031 86.636719 163.957031 C 87.335938 163.957031 87.953125 163.84375 88.488281 163.613281 C 89.023438 163.378906 89.441406 162.972656 89.75 162.394531 C 90.054688 161.820312 90.207031 161.007812 90.207031 159.96875 L 90.207031 153.175781 C 90.1875 152.816406 90.078125 152.589844 89.886719 152.5 C 89.699219 152.402344 89.417969 152.355469 89.042969 152.355469 L 89.042969 152.136719 L 91.59375 152.136719 L 91.59375 152.355469 C 91.28125 152.355469 91.003906 152.40625 90.769531 152.511719 C 90.542969 152.613281 90.425781 152.894531 90.425781 153.34375 L 90.425781 159.96875 C 90.425781 160.289062 90.402344 160.640625 90.355469 161.03125 C 90.3125 161.414062 90.214844 161.800781 90.0625 162.1875 C 89.910156 162.578125 89.679688 162.933594 89.375 163.257812 C 89.074219 163.582031 88.667969 163.839844 88.15625 164.039062 C 87.648438 164.234375 87.011719 164.332031 86.238281 164.332031 C 85.078125 164.332031 84.164062 164.136719 83.488281 163.75 C 82.824219 163.363281 82.347656 162.828125 82.0625 162.15625 C 81.785156 161.472656 81.648438 160.707031 81.648438 159.855469 L 81.648438 153.34375 C 81.648438 152.894531 81.546875 152.613281 81.355469 152.511719 C 81.167969 152.40625 80.875 152.355469 80.480469 152.355469 Z M 80.480469 152.355469 "/>
<path style=" stroke:none;fill-rule:nonzero;fill:rgb(0%,0%,0%);fill-opacity:1;" d="M 92.824219 158.40625 C 92.824219 157.023438 93.085938 155.851562 93.613281 154.894531 C 94.148438 153.933594 94.859375 153.207031 95.75 152.707031 C 96.636719 152.207031 97.628906 151.957031 98.71875 151.957031 C 99.230469 151.957031 99.660156 152 100 152.082031 C 100.34375 152.160156 100.644531 152.253906 100.894531 152.363281 C 101.144531 152.476562 101.371094 152.570312 101.574219 152.65625 C 101.773438 152.738281 101.980469 152.78125 102.1875 152.78125 C 102.410156 152.78125 102.570312 152.722656 102.675781 152.605469 C 102.78125 152.476562 102.832031 152.320312 102.832031 152.136719 L 103.039062 152.136719 L 103.292969 155.824219 L 103.09375 155.824219 C 102.839844 154.746094 102.347656 153.898438 101.613281 153.28125 C 100.886719 152.664062 99.96875 152.355469 98.863281 152.355469 C 97.535156 152.355469 96.527344 152.804688 95.832031 153.707031 C 95.144531 154.613281 94.800781 155.886719 94.800781 157.527344 C 94.800781 158.171875 94.878906 158.84375 95.042969 159.550781 C 95.207031 160.261719 95.460938 160.921875 95.808594 161.53125 C 96.160156 162.136719 96.609375 162.632812 97.164062 163.019531 C 97.726562 163.402344 98.402344 163.59375 99.1875 163.59375 C 100.160156 163.59375 100.816406 163.371094 101.164062 162.917969 C 101.519531 162.457031 101.695312 161.785156 101.695312 160.90625 L 101.695312 158.769531 C 101.695312 158.453125 101.605469 158.246094 101.417969 158.152344 C 101.234375 158.058594 100.886719 158.011719 100.375 158.011719 L 100.375 157.800781 L 104.65625 157.800781 L 104.65625 158.011719 C 104.347656 158.011719 104.078125 158.058594 103.84375 158.152344 C 103.613281 158.246094 103.5 158.453125 103.5 158.769531 L 103.519531 164.132812 L 103.292969 164.132812 C 103.292969 163.527344 103.25 163.097656 103.167969 162.855469 C 103.082031 162.609375 102.898438 162.488281 102.613281 162.488281 C 102.4375 162.488281 102.261719 162.546875 102.082031 162.65625 C 101.90625 162.765625 101.667969 162.957031 101.363281 163.230469 C 100.847656 163.683594 100.355469 163.976562 99.871094 164.125 C 99.394531 164.261719 98.847656 164.332031 98.238281 164.332031 C 97.535156 164.332031 96.859375 164.207031 96.207031 163.96875 C 95.5625 163.726562 94.980469 163.363281 94.46875 162.875 C 93.960938 162.390625 93.558594 161.777344 93.257812 161.042969 C 92.96875 160.300781 92.824219 159.421875 92.824219 158.40625 Z M 96.363281 148.25 L 96.539062 148.25 C 96.582031 148.535156 96.730469 148.757812 96.980469 148.917969 C 97.234375 149.070312 97.519531 149.171875 97.832031 149.230469 C 98.144531 149.277344 98.421875 149.300781 98.664062 149.300781 C 98.910156 149.300781 99.1875 149.277344 99.5 149.230469 C 99.816406 149.171875 100.097656 149.070312 100.339844 148.917969 C 100.59375 148.757812 100.742188 148.535156 100.792969 148.25 L 100.964844 148.25 C 100.964844 148.953125 100.761719 149.472656 100.355469 149.8125 C 99.949219 150.144531 99.402344 150.324219 98.71875 150.339844 C 98.023438 150.339844 97.457031 150.183594 97.019531 149.863281 C 96.582031 149.539062 96.363281 149 96.363281 148.25 Z M 96.363281 148.25 "/>
<path style=" stroke:none;fill-rule:nonzero;fill:rgb(0%,0%,0%);fill-opacity:1;" d="M 105.554688 152.355469 L 105.554688 152.136719 L 110.25 152.136719 C 110.859375 152.136719 111.457031 152.164062 112.042969 152.230469 C 112.628906 152.292969 113.160156 152.421875 113.636719 152.613281 C 114.109375 152.808594 114.484375 153.109375 114.773438 153.507812 C 115.054688 153.914062 115.199219 154.445312 115.199219 155.113281 C 115.199219 155.964844 114.953125 156.644531 114.46875 157.15625 C 113.980469 157.664062 113.347656 157.917969 112.5625 157.925781 L 112.5625 157.996094 C 113.609375 157.996094 114.433594 158.238281 115.03125 158.71875 C 115.636719 159.191406 115.9375 159.839844 115.9375 160.667969 C 115.9375 161.027344 115.878906 161.410156 115.761719 161.8125 C 115.648438 162.207031 115.425781 162.589844 115.09375 162.945312 C 114.761719 163.300781 114.277344 163.589844 113.644531 163.8125 C 113.015625 164.027344 112.183594 164.132812 111.15625 164.132812 L 105.554688 164.132812 L 105.554688 163.917969 C 105.949219 163.917969 106.234375 163.871094 106.417969 163.769531 C 106.597656 163.675781 106.691406 163.4375 106.691406 163.0625 L 106.691406 153.175781 C 106.679688 152.824219 106.585938 152.597656 106.40625 152.5 C 106.222656 152.402344 105.941406 152.355469 105.554688 152.355469 Z M 110.5625 158.0625 L 108.523438 158.0625 L 108.523438 163.0625 C 108.523438 163.320312 108.566406 163.507812 108.644531 163.636719 C 108.734375 163.761719 108.90625 163.84375 109.15625 163.882812 C 109.410156 163.921875 109.789062 163.933594 110.285156 163.933594 C 111.515625 163.933594 112.441406 163.675781 113.054688 163.144531 C 113.660156 162.609375 113.96875 161.769531 113.96875 160.625 C 113.96875 159.9375 113.816406 159.402344 113.511719 159.03125 C 113.214844 158.65625 112.800781 158.402344 112.28125 158.269531 C 111.769531 158.132812 111.195312 158.0625 110.5625 158.0625 Z M 108.523438 153.175781 L 108.523438 157.863281 L 110.261719 157.863281 C 110.84375 157.863281 111.371094 157.796875 111.847656 157.65625 C 112.316406 157.511719 112.691406 157.238281 112.96875 156.84375 C 113.246094 156.449219 113.386719 155.871094 113.386719 155.113281 C 113.386719 154.21875 113.15625 153.535156 112.699219 153.0625 C 112.238281 152.589844 111.535156 152.355469 110.574219 152.355469 C 110.015625 152.355469 109.589844 152.371094 109.292969 152.40625 C 108.996094 152.433594 108.785156 152.507812 108.679688 152.625 C 108.574219 152.738281 108.523438 152.917969 108.523438 153.175781 Z M 108.523438 153.175781 "/>
<path style=" stroke:none;fill-rule:nonzero;fill:rgb(0%,0%,0%);fill-opacity:1;" d="M 119.40625 164.132812 L 116.847656 164.132812 L 116.847656 163.917969 C 117.117188 163.917969 117.390625 163.816406 117.667969 163.621094 C 117.953125 163.429688 118.152344 163.183594 118.273438 162.882812 L 121.867188 154.289062 L 121.398438 153.175781 C 121.265625 152.839844 121.0625 152.625 120.785156 152.519531 C 120.515625 152.410156 120.214844 152.355469 119.890625 152.355469 L 119.890625 152.136719 L 122.773438 152.136719 L 127.097656 162.46875 C 127.324219 163.011719 127.578125 163.386719 127.859375 163.605469 C 128.140625 163.8125 128.484375 163.917969 128.886719 163.917969 L 128.886719 164.132812 L 124.265625 164.132812 L 124.265625 163.917969 L 124.710938 163.917969 C 125.140625 163.917969 125.382812 163.777344 125.441406 163.5 C 125.5 163.222656 125.449219 162.882812 125.285156 162.488281 L 124.347656 160.199219 L 119.605469 160.199219 L 118.523438 162.824219 C 118.378906 163.171875 118.402344 163.441406 118.597656 163.636719 C 118.796875 163.820312 119.070312 163.917969 119.40625 163.917969 Z M 121.980469 154.542969 L 119.710938 159.988281 L 124.25 159.988281 Z M 121.980469 154.542969 "/>
<path style=" stroke:none;fill-rule:nonzero;fill:rgb(0%,0%,0%);fill-opacity:1;" d="M 134.285156 155.25 L 134.074219 155.25 L 134.617188 152.136719 L 145.042969 152.136719 L 145.597656 155.25 L 145.378906 155.25 C 145.246094 154.515625 145.015625 153.933594 144.699219 153.507812 C 144.378906 153.089844 143.984375 152.789062 143.511719 152.613281 C 143.046875 152.441406 142.511719 152.355469 141.917969 152.355469 L 140.742188 152.355469 L 140.742188 163.03125 C 140.742188 163.40625 140.832031 163.648438 141.011719 163.761719 C 141.199219 163.863281 141.492188 163.917969 141.886719 163.917969 L 141.886719 164.132812 L 137.792969 164.132812 L 137.792969 163.917969 C 138.191406 163.917969 138.476562 163.863281 138.660156 163.761719 C 138.839844 163.648438 138.929688 163.40625 138.929688 163.03125 L 138.929688 152.355469 L 137.722656 152.355469 C 137.140625 152.355469 136.617188 152.441406 136.144531 152.613281 C 135.675781 152.789062 135.285156 153.089844 134.972656 153.507812 C 134.660156 153.933594 134.425781 154.515625 134.285156 155.25 Z M 134.285156 155.25 "/>
<path style=" stroke:none;fill-rule:nonzero;fill:rgb(0%,0%,0%);fill-opacity:1;" d="M 146.574219 152.355469 L 146.574219 152.136719 L 150.71875 152.136719 L 150.71875 152.355469 C 150.324219 152.355469 150.027344 152.40625 149.832031 152.511719 C 149.644531 152.613281 149.550781 152.894531 149.550781 153.34375 L 149.550781 159.855469 C 149.550781 161.226562 149.832031 162.253906 150.394531 162.9375 C 150.964844 163.621094 151.742188 163.957031 152.726562 163.957031 C 153.425781 163.957031 154.046875 163.84375 154.582031 163.613281 C 155.117188 163.378906 155.535156 162.972656 155.84375 162.394531 C 156.148438 161.820312 156.300781 161.007812 156.300781 159.96875 L 156.300781 153.175781 C 156.277344 152.816406 156.171875 152.589844 155.980469 152.5 C 155.792969 152.402344 155.511719 152.355469 155.132812 152.355469 L 155.132812 152.136719 L 157.683594 152.136719 L 157.683594 152.355469 C 157.371094 152.355469 157.097656 152.40625 156.863281 152.511719 C 156.632812 152.613281 156.519531 152.894531 156.519531 153.34375 L 156.519531 159.96875 C 156.519531 160.289062 156.496094 160.640625 156.449219 161.03125 C 156.40625 161.414062 156.304688 161.800781 156.15625 162.1875 C 156.003906 162.578125 155.769531 162.933594 155.46875 163.257812 C 155.167969 163.582031 154.761719 163.839844 154.246094 164.039062 C 153.738281 164.234375 153.101562 164.332031 152.332031 164.332031 C 151.171875 164.332031 150.253906 164.136719 149.582031 163.75 C 148.917969 163.363281 148.441406 162.828125 148.152344 162.15625 C 147.878906 161.472656 147.738281 160.707031 147.738281 159.855469 L 147.738281 153.34375 C 147.738281 152.894531 147.640625 152.613281 147.449219 152.511719 C 147.257812 152.40625 146.96875 152.355469 146.574219 152.355469 Z M 146.574219 152.355469 "/>
<path style=" stroke:none;fill-rule:nonzero;fill:rgb(0%,0%,0%);fill-opacity:1;" d="M 158.507812 152.136719 L 161.664062 152.136719 L 168.027344 161.019531 L 168.019531 153.238281 C 168.019531 152.800781 167.917969 152.546875 167.726562 152.46875 C 167.53125 152.394531 167.242188 152.355469 166.863281 152.355469 L 166.863281 152.136719 L 169.394531 152.136719 L 169.394531 152.355469 C 169.023438 152.355469 168.742188 152.390625 168.546875 152.457031 C 168.351562 152.527344 168.25 152.761719 168.226562 153.152344 L 168.25 164.132812 L 168.027344 164.132812 L 160.414062 153.5 L 160.414062 163.03125 C 160.414062 163.464844 160.511719 163.726562 160.707031 163.800781 C 160.90625 163.878906 161.199219 163.917969 161.582031 163.917969 L 161.582031 164.132812 L 159.03125 164.132812 L 159.03125 163.917969 C 159.425781 163.917969 159.714844 163.878906 159.902344 163.800781 C 160.097656 163.726562 160.195312 163.464844 160.195312 163.03125 L 160.195312 153.207031 C 160 152.875 159.757812 152.648438 159.476562 152.527344 C 159.199219 152.410156 158.875 152.355469 158.507812 152.355469 Z M 158.507812 152.136719 "/>
<path style=" stroke:none;fill-rule:nonzero;fill:rgb(0%,0%,0%);fill-opacity:1;" d="M 172.617188 164.132812 L 170.054688 164.132812 L 170.054688 163.917969 C 170.324219 163.917969 170.597656 163.816406 170.878906 163.621094 C 171.160156 163.429688 171.363281 163.183594 171.484375 162.882812 L 175.078125 154.289062 L 174.609375 153.175781 C 174.476562 152.839844 174.269531 152.625 173.996094 152.519531 C 173.722656 152.410156 173.425781 152.355469 173.097656 152.355469 L 173.097656 152.136719 L 175.984375 152.136719 L 180.304688 162.46875 C 180.535156 163.011719 180.789062 163.386719 181.066406 163.605469 C 181.351562 163.8125 181.691406 163.917969 182.097656 163.917969 L 182.097656 164.132812 L 177.472656 164.132812 L 177.472656 163.917969 L 177.917969 163.917969 C 178.347656 163.917969 178.59375 163.777344 178.648438 163.5 C 178.710938 163.222656 178.660156 162.882812 178.492188 162.488281 L 177.554688 160.199219 L 172.816406 160.199219 L 171.730469 162.824219 C 171.589844 163.171875 171.613281 163.441406 171.808594 163.636719 C 172.003906 163.820312 172.277344 163.917969 172.617188 163.917969 Z M 175.191406 154.542969 L 172.917969 159.988281 L 177.460938 159.988281 Z M 175.191406 154.542969 "/>
<path style=" stroke:none;fill-rule:nonzero;fill:rgb(0%,0%,0%);fill-opacity:1;" d="M 71.191406 176.613281 L 71.191406 176.496094 C 71.398438 176.496094 71.550781 176.472656 71.652344 176.417969 C 71.746094 176.359375 71.796875 176.234375 71.796875 176.027344 L 71.796875 170.820312 C 71.796875 170.621094 71.746094 170.496094 71.652344 170.4375 C 71.550781 170.378906 71.398438 170.351562 71.191406 170.351562 L 71.191406 170.238281 L 73.371094 170.238281 L 73.371094 170.351562 C 73.160156 170.351562 73.007812 170.378906 72.910156 170.4375 C 72.8125 170.484375 72.761719 170.601562 72.761719 170.792969 L 72.761719 173.269531 L 75.441406 173.269531 L 75.441406 170.820312 C 75.441406 170.621094 75.394531 170.496094 75.296875 170.4375 C 75.199219 170.378906 75.046875 170.351562 74.835938 170.351562 L 74.835938 170.238281 L 77.015625 170.238281 L 77.015625 170.351562 C 76.808594 170.351562 76.652344 170.378906 76.554688 170.4375 C 76.457031 170.496094 76.410156 170.621094 76.410156 170.820312 L 76.410156 176.042969 C 76.410156 176.242188 76.457031 176.371094 76.554688 176.425781 C 76.652344 176.472656 76.808594 176.496094 77.015625 176.496094 L 77.015625 176.613281 L 74.835938 176.613281 L 74.835938 176.496094 C 75.046875 176.496094 75.199219 176.472656 75.296875 176.417969 C 75.394531 176.359375 75.441406 176.234375 75.441406 176.027344 L 75.441406 173.386719 L 72.761719 173.386719 L 72.761719 176.113281 C 72.769531 176.277344 72.824219 176.390625 72.917969 176.433594 C 73.023438 176.476562 73.175781 176.496094 73.371094 176.496094 L 73.371094 176.613281 Z M 71.191406 176.613281 "/>
<path style=" stroke:none;fill-rule:nonzero;fill:rgb(0%,0%,0%);fill-opacity:1;" d="M 80.929688 170.351562 L 80.929688 170.238281 L 83.128906 170.238281 L 83.128906 170.351562 C 82.917969 170.351562 82.761719 170.378906 82.660156 170.4375 C 82.5625 170.496094 82.511719 170.636719 82.511719 170.871094 L 82.511719 174.34375 C 82.511719 175.070312 82.664062 175.617188 82.960938 175.976562 C 83.257812 176.339844 83.671875 176.519531 84.203125 176.519531 C 84.578125 176.519531 84.902344 176.457031 85.183594 176.332031 C 85.464844 176.207031 85.6875 175.992188 85.847656 175.6875 C 86.015625 175.378906 86.097656 174.949219 86.097656 174.394531 L 86.097656 170.792969 C 86.082031 170.597656 86.027344 170.476562 85.921875 170.425781 C 85.820312 170.378906 85.675781 170.351562 85.472656 170.351562 L 85.472656 170.238281 L 86.835938 170.238281 L 86.835938 170.351562 C 86.667969 170.351562 86.523438 170.378906 86.398438 170.4375 C 86.277344 170.496094 86.210938 170.636719 86.210938 170.871094 L 86.210938 174.394531 C 86.210938 174.570312 86.199219 174.757812 86.171875 174.96875 C 86.148438 175.167969 86.097656 175.375 86.015625 175.582031 C 85.9375 175.785156 85.820312 175.972656 85.660156 176.144531 C 85.496094 176.316406 85.28125 176.457031 85.003906 176.5625 C 84.734375 176.667969 84.394531 176.71875 83.996094 176.71875 C 83.371094 176.71875 82.882812 176.613281 82.527344 176.40625 C 82.171875 176.199219 81.914062 175.914062 81.765625 175.558594 C 81.617188 175.203125 81.546875 174.792969 81.546875 174.34375 L 81.546875 170.871094 C 81.546875 170.636719 81.496094 170.496094 81.390625 170.4375 C 81.289062 170.378906 81.140625 170.351562 80.929688 170.351562 Z M 80.929688 170.351562 "/>
<path style=" stroke:none;fill-rule:nonzero;fill:rgb(0%,0%,0%);fill-opacity:1;" d="M 91.21875 176.027344 L 91.21875 170.820312 C 91.21875 170.621094 91.167969 170.496094 91.070312 170.4375 C 90.972656 170.378906 90.820312 170.351562 90.613281 170.351562 L 90.613281 170.238281 L 92.789062 170.238281 L 92.789062 170.351562 C 92.582031 170.351562 92.429688 170.378906 92.332031 170.4375 C 92.234375 170.496094 92.1875 170.621094 92.1875 170.820312 L 92.1875 173.632812 L 94.726562 170.800781 C 94.867188 170.664062 94.921875 170.558594 94.894531 170.496094 C 94.871094 170.4375 94.800781 170.402344 94.675781 170.382812 C 94.558594 170.363281 94.417969 170.351562 94.257812 170.351562 L 94.257812 170.238281 L 95.949219 170.238281 L 95.949219 170.351562 C 95.769531 170.351562 95.625 170.363281 95.507812 170.382812 C 95.398438 170.402344 95.289062 170.4375 95.183594 170.496094 C 95.089844 170.558594 94.980469 170.660156 94.863281 170.792969 L 92.632812 173.300781 C 92.75 173.496094 92.890625 173.644531 93.050781 173.75 C 93.210938 173.847656 93.367188 173.894531 93.519531 173.894531 C 93.683594 173.894531 93.832031 173.839844 93.957031 173.738281 L 95.53125 176.027344 C 95.667969 176.21875 95.808594 176.339844 95.949219 176.40625 C 96.09375 176.46875 96.242188 176.496094 96.40625 176.496094 L 96.40625 176.613281 L 95.46875 176.613281 C 95.21875 176.613281 95.011719 176.566406 94.84375 176.46875 C 94.679688 176.363281 94.542969 176.238281 94.425781 176.082031 C 94.3125 175.925781 94.199219 175.765625 94.082031 175.601562 L 92.550781 173.386719 L 92.1875 173.800781 L 92.1875 176.027344 C 92.1875 176.222656 92.234375 176.355469 92.332031 176.417969 C 92.429688 176.472656 92.582031 176.496094 92.789062 176.496094 L 92.789062 176.613281 L 90.613281 176.613281 L 90.613281 176.496094 C 90.820312 176.496094 90.972656 176.472656 91.070312 176.417969 C 91.167969 176.355469 91.21875 176.222656 91.21875 176.027344 Z M 91.21875 176.027344 "/>
<path style=" stroke:none;fill-rule:nonzero;fill:rgb(0%,0%,0%);fill-opacity:1;" d="M 100.195312 170.351562 L 100.195312 170.238281 L 102.394531 170.238281 L 102.394531 170.351562 C 102.183594 170.351562 102.027344 170.378906 101.925781 170.4375 C 101.824219 170.496094 101.777344 170.636719 101.777344 170.871094 L 101.777344 174.34375 C 101.777344 175.070312 101.925781 175.617188 102.226562 175.976562 C 102.523438 176.339844 102.9375 176.519531 103.464844 176.519531 C 103.839844 176.519531 104.167969 176.457031 104.441406 176.332031 C 104.726562 176.207031 104.949219 175.992188 105.109375 175.6875 C 105.277344 175.378906 105.363281 174.949219 105.363281 174.394531 L 105.363281 170.792969 C 105.34375 170.597656 105.285156 170.476562 105.183594 170.425781 C 105.085938 170.378906 104.933594 170.351562 104.738281 170.351562 L 104.738281 170.238281 L 106.101562 170.238281 L 106.101562 170.351562 C 105.933594 170.351562 105.789062 170.378906 105.664062 170.4375 C 105.535156 170.496094 105.476562 170.636719 105.476562 170.871094 L 105.476562 174.394531 C 105.476562 174.570312 105.457031 174.757812 105.433594 174.96875 C 105.414062 175.167969 105.363281 175.375 105.277344 175.582031 C 105.199219 175.785156 105.082031 175.972656 104.921875 176.144531 C 104.761719 176.316406 104.542969 176.457031 104.269531 176.5625 C 103.996094 176.667969 103.660156 176.71875 103.253906 176.71875 C 102.636719 176.71875 102.148438 176.613281 101.785156 176.40625 C 101.433594 176.199219 101.179688 175.914062 101.027344 175.558594 C 100.882812 175.203125 100.808594 174.792969 100.808594 174.34375 L 100.808594 170.871094 C 100.808594 170.636719 100.753906 170.496094 100.652344 170.4375 C 100.554688 170.378906 100.402344 170.351562 100.195312 170.351562 Z M 100.195312 170.351562 "/>
<path style=" stroke:none;fill-rule:nonzero;fill:rgb(0%,0%,0%);fill-opacity:1;" d="M 110.480469 176.027344 L 110.480469 170.820312 C 110.480469 170.621094 110.429688 170.496094 110.335938 170.4375 C 110.234375 170.378906 110.085938 170.351562 109.875 170.351562 L 109.875 170.238281 L 112.054688 170.238281 L 112.054688 170.351562 C 111.847656 170.351562 111.691406 170.378906 111.59375 170.4375 C 111.496094 170.496094 111.449219 170.621094 111.449219 170.820312 L 111.449219 173.632812 L 113.992188 170.800781 C 114.128906 170.664062 114.183594 170.558594 114.15625 170.496094 C 114.136719 170.4375 114.0625 170.402344 113.9375 170.382812 C 113.816406 170.363281 113.683594 170.351562 113.523438 170.351562 L 113.523438 170.238281 L 115.207031 170.238281 L 115.207031 170.351562 C 115.035156 170.351562 114.890625 170.363281 114.773438 170.382812 C 114.660156 170.402344 114.554688 170.4375 114.449219 170.496094 C 114.347656 170.558594 114.246094 170.660156 114.128906 170.792969 L 111.898438 173.300781 C 112.015625 173.496094 112.152344 173.644531 112.316406 173.75 C 112.472656 173.847656 112.628906 173.894531 112.785156 173.894531 C 112.949219 173.894531 113.097656 173.839844 113.21875 173.738281 L 114.792969 176.027344 C 114.933594 176.21875 115.066406 176.339844 115.207031 176.40625 C 115.355469 176.46875 115.507812 176.496094 115.667969 176.496094 L 115.667969 176.613281 L 114.730469 176.613281 C 114.480469 176.613281 114.269531 176.566406 114.105469 176.46875 C 113.945312 176.363281 113.804688 176.238281 113.6875 176.082031 C 113.578125 175.925781 113.464844 175.765625 113.347656 175.601562 L 111.8125 173.386719 L 111.449219 173.800781 L 111.449219 176.027344 C 111.449219 176.222656 111.496094 176.355469 111.59375 176.417969 C 111.691406 176.472656 111.847656 176.496094 112.054688 176.496094 L 112.054688 176.613281 L 109.875 176.613281 L 109.875 176.496094 C 110.085938 176.496094 110.234375 176.472656 110.335938 176.417969 C 110.429688 176.355469 110.480469 176.222656 110.480469 176.027344 Z M 110.480469 176.027344 "/>
<path style=" stroke:none;fill-rule:nonzero;fill:rgb(0%,0%,0%);fill-opacity:1;" d="M 125.113281 170.351562 L 125.113281 170.238281 L 127.613281 170.238281 C 127.941406 170.238281 128.261719 170.257812 128.574219 170.289062 C 128.886719 170.320312 129.167969 170.382812 129.417969 170.488281 C 129.667969 170.59375 129.863281 170.753906 130.011719 170.964844 C 130.164062 171.175781 130.242188 171.460938 130.242188 171.824219 C 130.242188 172.265625 130.109375 172.625 129.855469 172.894531 C 129.597656 173.164062 129.261719 173.308594 128.84375 173.308594 L 128.84375 173.351562 C 129.398438 173.351562 129.835938 173.484375 130.15625 173.738281 C 130.476562 173.988281 130.636719 174.332031 130.636719 174.769531 C 130.636719 174.957031 130.605469 175.160156 130.539062 175.375 C 130.484375 175.589844 130.367188 175.792969 130.1875 175.976562 C 130.007812 176.164062 129.75 176.316406 129.417969 176.433594 C 129.082031 176.554688 128.640625 176.613281 128.09375 176.613281 L 125.113281 176.613281 L 125.113281 176.496094 C 125.324219 176.496094 125.476562 176.472656 125.574219 176.425781 C 125.671875 176.371094 125.71875 176.242188 125.71875 176.042969 L 125.71875 170.792969 C 125.710938 170.601562 125.65625 170.484375 125.5625 170.4375 C 125.472656 170.378906 125.324219 170.351562 125.113281 170.351562 Z M 127.78125 173.386719 L 126.6875 173.386719 L 126.6875 176.042969 C 126.6875 176.183594 126.710938 176.285156 126.761719 176.355469 C 126.808594 176.417969 126.898438 176.457031 127.03125 176.476562 C 127.160156 176.496094 127.359375 176.511719 127.625 176.511719 C 128.285156 176.511719 128.773438 176.367188 129.09375 176.082031 C 129.421875 175.796875 129.582031 175.351562 129.582031 174.75 C 129.582031 174.382812 129.503906 174.101562 129.34375 173.90625 C 129.183594 173.703125 128.964844 173.566406 128.6875 173.5 C 128.417969 173.425781 128.113281 173.386719 127.78125 173.386719 Z M 126.6875 170.792969 L 126.6875 173.28125 L 127.613281 173.28125 C 127.925781 173.28125 128.210938 173.242188 128.457031 173.164062 C 128.707031 173.089844 128.90625 172.945312 129.050781 172.738281 C 129.203125 172.527344 129.28125 172.226562 129.28125 171.824219 C 129.28125 171.339844 129.15625 170.976562 128.90625 170.730469 C 128.660156 170.480469 128.289062 170.351562 127.78125 170.351562 C 127.488281 170.351562 127.261719 170.363281 127.101562 170.382812 C 126.941406 170.402344 126.832031 170.4375 126.769531 170.496094 C 126.710938 170.558594 126.6875 170.652344 126.6875 170.792969 Z M 126.6875 170.792969 "/>
<path style=" stroke:none;fill-rule:nonzero;fill:rgb(0%,0%,0%);fill-opacity:1;" d="M 134.640625 170.351562 L 134.640625 170.238281 L 136.84375 170.238281 L 136.84375 170.351562 C 136.632812 170.351562 136.476562 170.378906 136.375 170.4375 C 136.273438 170.496094 136.226562 170.636719 136.226562 170.871094 L 136.226562 174.34375 C 136.226562 175.070312 136.375 175.617188 136.671875 175.976562 C 136.972656 176.339844 137.386719 176.519531 137.914062 176.519531 C 138.289062 176.519531 138.613281 176.457031 138.894531 176.332031 C 139.175781 176.207031 139.398438 175.992188 139.558594 175.6875 C 139.726562 175.378906 139.8125 174.949219 139.8125 174.394531 L 139.8125 170.792969 C 139.792969 170.597656 139.738281 170.476562 139.632812 170.425781 C 139.535156 170.378906 139.386719 170.351562 139.1875 170.351562 L 139.1875 170.238281 L 140.550781 170.238281 L 140.550781 170.351562 C 140.382812 170.351562 140.238281 170.378906 140.109375 170.4375 C 139.988281 170.496094 139.925781 170.636719 139.925781 170.871094 L 139.925781 174.394531 C 139.925781 174.570312 139.910156 174.757812 139.882812 174.96875 C 139.863281 175.167969 139.8125 175.375 139.726562 175.582031 C 139.648438 175.785156 139.53125 175.972656 139.371094 176.144531 C 139.210938 176.316406 138.992188 176.457031 138.71875 176.5625 C 138.445312 176.667969 138.105469 176.71875 137.707031 176.71875 C 137.085938 176.71875 136.59375 176.613281 136.238281 176.40625 C 135.882812 176.199219 135.628906 175.914062 135.476562 175.558594 C 135.332031 175.203125 135.257812 174.792969 135.257812 174.34375 L 135.257812 170.871094 C 135.257812 170.636719 135.207031 170.496094 135.101562 170.4375 C 135.003906 170.378906 134.851562 170.351562 134.640625 170.351562 Z M 136.695312 168.449219 C 136.824219 168.449219 136.941406 168.496094 137.039062 168.59375 C 137.136719 168.691406 137.183594 168.804688 137.183594 168.933594 C 137.183594 169.074219 137.136719 169.191406 137.039062 169.289062 C 136.941406 169.382812 136.824219 169.425781 136.695312 169.425781 C 136.5625 169.425781 136.449219 169.382812 136.351562 169.289062 C 136.253906 169.191406 136.203125 169.074219 136.203125 168.933594 C 136.203125 168.804688 136.253906 168.691406 136.351562 168.59375 C 136.449219 168.496094 136.5625 168.449219 136.695312 168.449219 Z M 138.289062 168.933594 C 138.289062 168.804688 138.335938 168.691406 138.433594 168.59375 C 138.53125 168.496094 138.644531 168.449219 138.777344 168.449219 C 138.910156 168.449219 139.023438 168.496094 139.121094 168.59375 C 139.21875 168.691406 139.269531 168.804688 139.269531 168.933594 C 139.269531 169.074219 139.21875 169.191406 139.121094 169.289062 C 139.023438 169.382812 138.910156 169.425781 138.777344 169.425781 C 138.644531 169.425781 138.53125 169.382812 138.433594 169.289062 C 138.335938 169.191406 138.289062 169.074219 138.289062 168.933594 Z M 138.289062 168.933594 "/>
<path style=" stroke:none;fill-rule:nonzero;fill:rgb(0%,0%,0%);fill-opacity:1;" d="M 144.324219 176.613281 L 144.324219 176.496094 C 144.535156 176.496094 144.683594 176.472656 144.785156 176.417969 C 144.878906 176.355469 144.929688 176.222656 144.929688 176.027344 L 144.929688 170.820312 C 144.929688 170.621094 144.878906 170.496094 144.785156 170.4375 C 144.683594 170.378906 144.535156 170.351562 144.324219 170.351562 L 144.324219 170.238281 L 146.816406 170.238281 C 147.140625 170.238281 147.460938 170.257812 147.773438 170.289062 C 148.085938 170.320312 148.367188 170.382812 148.617188 170.488281 C 148.875 170.59375 149.074219 170.75 149.222656 170.957031 C 149.371094 171.164062 149.449219 171.445312 149.449219 171.789062 C 149.449219 172.136719 149.382812 172.414062 149.242188 172.625 C 149.101562 172.832031 148.917969 172.996094 148.691406 173.101562 C 148.460938 173.214844 148.210938 173.292969 147.941406 173.332031 C 147.667969 173.371094 147.410156 173.386719 147.160156 173.386719 L 146.785156 173.386719 C 146.902344 173.566406 147.027344 173.699219 147.167969 173.777344 C 147.316406 173.863281 147.453125 173.90625 147.597656 173.90625 C 147.761719 173.90625 147.914062 173.851562 148.054688 173.738281 L 149.628906 176.027344 C 149.765625 176.21875 149.910156 176.339844 150.054688 176.40625 C 150.203125 176.46875 150.351562 176.496094 150.515625 176.496094 L 150.515625 176.613281 L 149.648438 176.613281 C 149.402344 176.613281 149.191406 176.566406 149.011719 176.46875 C 148.839844 176.363281 148.683594 176.238281 148.554688 176.082031 C 148.421875 175.925781 148.300781 175.765625 148.191406 175.601562 L 146.660156 173.386719 L 145.898438 173.386719 L 145.898438 176.027344 C 145.898438 176.222656 145.945312 176.355469 146.035156 176.417969 C 146.128906 176.472656 146.285156 176.496094 146.503906 176.496094 L 146.503906 176.613281 Z M 145.898438 173.269531 L 146.824219 173.269531 C 147.128906 173.269531 147.410156 173.230469 147.660156 173.152344 C 147.914062 173.074219 148.117188 172.921875 148.273438 172.707031 C 148.425781 172.492188 148.503906 172.191406 148.503906 171.800781 C 148.503906 171.328125 148.371094 170.972656 148.105469 170.730469 C 147.839844 170.480469 147.472656 170.351562 146.992188 170.351562 L 145.898438 170.351562 Z M 145.898438 173.269531 "/>
<path style=" stroke:none;fill-rule:nonzero;fill:rgb(0%,0%,0%);fill-opacity:1;" d="M 154.339844 173.414062 C 154.339844 172.957031 154.417969 172.527344 154.582031 172.136719 C 154.746094 171.738281 154.972656 171.394531 155.257812 171.09375 C 155.539062 170.792969 155.871094 170.558594 156.257812 170.394531 C 156.636719 170.222656 157.042969 170.132812 157.472656 170.132812 C 157.902344 170.132812 158.308594 170.222656 158.695312 170.394531 C 159.074219 170.558594 159.414062 170.792969 159.703125 171.09375 C 159.996094 171.394531 160.222656 171.738281 160.378906 172.136719 C 160.546875 172.527344 160.632812 172.957031 160.632812 173.414062 C 160.632812 173.867188 160.546875 174.296875 160.378906 174.699219 C 160.222656 175.089844 159.996094 175.441406 159.703125 175.75 C 159.414062 176.054688 159.074219 176.296875 158.695312 176.46875 C 158.308594 176.632812 157.902344 176.71875 157.472656 176.71875 C 157.042969 176.71875 156.636719 176.632812 156.257812 176.46875 C 155.871094 176.296875 155.539062 176.054688 155.257812 175.75 C 154.972656 175.441406 154.746094 175.089844 154.582031 174.699219 C 154.417969 174.296875 154.339844 173.867188 154.339844 173.414062 Z M 157.382812 170.261719 C 157.046875 170.261719 156.757812 170.339844 156.507812 170.507812 C 156.261719 170.671875 156.058594 170.894531 155.890625 171.183594 C 155.726562 171.472656 155.597656 171.796875 155.519531 172.164062 C 155.433594 172.527344 155.390625 172.910156 155.390625 173.308594 C 155.390625 173.738281 155.433594 174.144531 155.519531 174.542969 C 155.597656 174.933594 155.730469 175.28125 155.902344 175.59375 C 156.082031 175.898438 156.308594 176.144531 156.578125 176.320312 C 156.855469 176.503906 157.183594 176.589844 157.558594 176.589844 C 157.914062 176.589844 158.214844 176.511719 158.464844 176.355469 C 158.722656 176.183594 158.929688 175.964844 159.089844 175.6875 C 159.257812 175.402344 159.375 175.070312 159.453125 174.699219 C 159.539062 174.324219 159.582031 173.925781 159.582031 173.507812 C 159.582031 173.097656 159.539062 172.707031 159.453125 172.320312 C 159.375 171.933594 159.246094 171.589844 159.070312 171.277344 C 158.894531 170.964844 158.667969 170.722656 158.390625 170.539062 C 158.113281 170.351562 157.777344 170.261719 157.382812 170.261719 Z M 157.382812 170.261719 "/>
<path style=" stroke:none;fill-rule:nonzero;fill:rgb(0%,0%,0%);fill-opacity:1;" d="M 164.808594 176.613281 L 164.808594 173.988281 L 164.921875 173.988281 C 164.921875 174.570312 165.007812 175.050781 165.171875 175.425781 C 165.34375 175.792969 165.578125 176.066406 165.871094 176.238281 C 166.160156 176.414062 166.484375 176.496094 166.839844 176.496094 C 167.058594 176.496094 167.257812 176.46875 167.441406 176.40625 C 167.628906 176.339844 167.78125 176.222656 167.890625 176.070312 C 168 175.910156 168.058594 175.703125 168.058594 175.445312 C 168.058594 175.207031 167.976562 174.984375 167.820312 174.777344 C 167.664062 174.570312 167.464844 174.375 167.214844 174.1875 C 166.96875 173.996094 166.707031 173.816406 166.433594 173.632812 C 166.160156 173.453125 165.902344 173.265625 165.652344 173.058594 C 165.402344 172.863281 165.199219 172.644531 165.046875 172.414062 C 164.894531 172.179688 164.816406 171.925781 164.816406 171.644531 C 164.816406 171.304688 164.90625 171.027344 165.089844 170.800781 C 165.277344 170.578125 165.507812 170.414062 165.789062 170.300781 C 166.0625 170.191406 166.347656 170.132812 166.640625 170.132812 C 166.855469 170.132812 167.039062 170.160156 167.195312 170.207031 C 167.351562 170.246094 167.488281 170.300781 167.597656 170.363281 C 167.707031 170.425781 167.808594 170.480469 167.902344 170.519531 C 167.988281 170.558594 168.078125 170.582031 168.171875 170.582031 C 168.28125 170.582031 168.359375 170.558594 168.402344 170.507812 C 168.445312 170.457031 168.464844 170.363281 168.464844 170.238281 L 168.578125 170.238281 L 168.578125 172.300781 L 168.464844 172.300781 C 168.464844 171.914062 168.386719 171.574219 168.234375 171.277344 C 168.089844 170.984375 167.882812 170.753906 167.628906 170.59375 C 167.371094 170.425781 167.082031 170.339844 166.753906 170.339844 C 166.40625 170.339844 166.15625 170.425781 166.003906 170.59375 C 165.851562 170.757812 165.773438 170.972656 165.773438 171.226562 C 165.773438 171.511719 165.851562 171.769531 166.003906 171.988281 C 166.15625 172.203125 166.351562 172.402344 166.589844 172.582031 C 166.828125 172.757812 167.082031 172.929688 167.351562 173.101562 C 167.621094 173.269531 167.871094 173.449219 168.109375 173.632812 C 168.351562 173.820312 168.546875 174.035156 168.703125 174.269531 C 168.855469 174.5 168.933594 174.777344 168.933594 175.089844 C 168.933594 175.390625 168.871094 175.664062 168.742188 175.90625 C 168.625 176.148438 168.425781 176.347656 168.152344 176.496094 C 167.871094 176.644531 167.484375 176.71875 166.984375 176.71875 C 166.746094 176.71875 166.546875 176.695312 166.378906 176.652344 C 166.21875 176.613281 166.078125 176.566406 165.953125 176.511719 C 165.832031 176.457031 165.726562 176.410156 165.632812 176.375 C 165.53125 176.332031 165.433594 176.3125 165.328125 176.3125 C 165.058594 176.3125 164.921875 176.414062 164.921875 176.613281 Z M 164.808594 176.613281 "/>
<path style=" stroke:none;fill-rule:nonzero;fill:rgb(0%,0%,0%);fill-opacity:1;" d="M 172.933594 170.351562 L 172.933594 170.238281 L 175.128906 170.238281 L 175.128906 170.351562 C 174.921875 170.351562 174.765625 170.378906 174.660156 170.4375 C 174.5625 170.496094 174.519531 170.636719 174.519531 170.871094 L 174.519531 174.34375 C 174.519531 175.070312 174.664062 175.617188 174.964844 175.976562 C 175.261719 176.339844 175.675781 176.519531 176.203125 176.519531 C 176.578125 176.519531 176.902344 176.457031 177.183594 176.332031 C 177.46875 176.207031 177.6875 175.992188 177.851562 175.6875 C 178.019531 175.378906 178.097656 174.949219 178.097656 174.394531 L 178.097656 170.792969 C 178.085938 170.597656 178.027344 170.476562 177.921875 170.425781 C 177.824219 170.378906 177.675781 170.351562 177.472656 170.351562 L 177.472656 170.238281 L 178.839844 170.238281 L 178.839844 170.351562 C 178.671875 170.351562 178.527344 170.378906 178.402344 170.4375 C 178.277344 170.496094 178.214844 170.636719 178.214844 170.871094 L 178.214844 174.394531 C 178.214844 174.570312 178.199219 174.757812 178.175781 174.96875 C 178.152344 175.167969 178.097656 175.375 178.019531 175.582031 C 177.941406 175.785156 177.824219 175.972656 177.664062 176.144531 C 177.5 176.316406 177.28125 176.457031 177.003906 176.5625 C 176.734375 176.667969 176.394531 176.71875 175.996094 176.71875 C 175.378906 176.71875 174.886719 176.613281 174.527344 176.40625 C 174.171875 176.199219 173.917969 175.914062 173.765625 175.558594 C 173.621094 175.203125 173.546875 174.792969 173.546875 174.34375 L 173.546875 170.871094 C 173.546875 170.636719 173.496094 170.496094 173.390625 170.4375 C 173.292969 170.378906 173.140625 170.351562 172.933594 170.351562 Z M 172.933594 170.351562 "/>
</g>
</svg>
