<svg xmlns="http://www.w3.org/2000/svg" xmlns:xlink="http://www.w3.org/1999/xlink" width="500" zoomAndPan="magnify" viewBox="0 0 375 374.999991" height="500" preserveAspectRatio="xMidYMid meet" version="1.2"><defs/><g id="f19ef8d34c"><rect x="0" width="375" y="0" height="374.999991" style="fill:#ffffff;fill-opacity:1;stroke:none;"/><rect x="0" width="375" y="0" height="374.999991" style="fill:#ffffff;fill-opacity:1;stroke:none;"/><g style="fill:#ffffff;fill-opacity:1;"><g transform="translate(134.144204, 212.163413)"><path style="stroke:none" d="M 4.183594 -63.71875 L -3.121094 -63.71875 L 2.722656 -97.195312 L 91.109375 -97.195312 L 96.957031 -63.71875 L 85.671875 -63.71875 L 84.96875 -67.636719 C 84.085938 -72.554688 82.648438 -76.339844 80.652344 -78.988281 C 78.757812 -81.503906 76.429688 -83.277344 73.664062 -84.304688 C 70.5625 -85.457031 67.015625 -86.035156 63.019531 -86.035156 L 53.890625 -86.035156 L 53.890625 -90.789062 L 58.644531 -90.789062 L 58.644531 -8.496094 C 58.644531 -7.648438 58.71875 -7.039062 58.867188 -6.660156 C 58.875 -6.636719 58.878906 -6.621094 58.882812 -6.617188 C 58.871094 -6.640625 58.847656 -6.671875 58.824219 -6.703125 C 58.726562 -6.824219 58.605469 -6.929688 58.457031 -7.015625 C 59.152344 -6.605469 60.585938 -6.402344 62.765625 -6.402344 L 67.523438 -6.402344 L 67.523438 4.753906 L 26.4375 4.753906 L 26.4375 -6.402344 L 31.195312 -6.402344 C 33.351562 -6.402344 34.75 -6.597656 35.386719 -6.984375 C 35.230469 -6.890625 35.105469 -6.777344 35.003906 -6.648438 C 34.980469 -6.617188 34.960938 -6.585938 34.945312 -6.5625 C 34.949219 -6.570312 34.957031 -6.589844 34.96875 -6.613281 C 35.113281 -7.007812 35.1875 -7.632812 35.1875 -8.496094 L 35.1875 -90.789062 L 39.941406 -90.789062 L 39.941406 -86.035156 L 30.6875 -86.035156 C 26.777344 -86.035156 23.273438 -85.457031 20.171875 -84.304688 C 17.417969 -83.28125 15.117188 -81.519531 13.269531 -79.023438 C 11.285156 -76.34375 9.816406 -72.527344 8.851562 -67.566406 L 8.105469 -63.71875 Z M 4.183594 -73.226562 L 4.183594 -68.472656 L -0.484375 -69.378906 C 0.753906 -75.746094 2.789062 -80.847656 5.625 -84.679688 C 8.59375 -88.691406 12.335938 -91.539062 16.855469 -93.21875 C 21.023438 -94.769531 25.636719 -95.546875 30.6875 -95.546875 L 44.699219 -95.546875 L 44.699219 -8.496094 C 44.699219 -3.835938 43.238281 -0.621094 40.316406 1.148438 C 38.164062 2.453125 35.121094 3.105469 31.195312 3.105469 L 31.195312 -1.648438 L 35.949219 -1.648438 L 35.949219 0 L 31.195312 0 L 31.195312 -4.753906 L 62.765625 -4.753906 L 62.765625 0 L 58.011719 0 L 58.011719 -1.648438 L 62.765625 -1.648438 L 62.765625 3.105469 C 58.859375 3.105469 55.816406 2.464844 53.636719 1.183594 C 50.636719 -0.582031 49.136719 -3.808594 49.136719 -8.496094 L 49.136719 -95.546875 L 63.019531 -95.546875 C 68.15625 -95.546875 72.808594 -94.769531 76.980469 -93.21875 C 81.484375 -91.542969 85.238281 -88.707031 88.25 -84.710938 C 91.15625 -80.851562 93.183594 -75.71875 94.328125 -69.3125 L 89.648438 -68.472656 L 89.648438 -73.226562 L 91.296875 -73.226562 L 91.296875 -68.472656 L 86.613281 -67.65625 L 82.429688 -91.621094 L 87.113281 -92.4375 L 87.113281 -87.683594 L 6.71875 -87.683594 L 6.71875 -92.4375 L 11.40625 -91.621094 L 7.21875 -67.65625 L 2.535156 -68.472656 L 2.535156 -73.226562 Z M 4.183594 -73.226562 "/></g></g><g style="fill:#000000;fill-opacity:1;"><g transform="translate(134.144204, 212.163413)"><path style="stroke:none" d="M 4.1875 -68.46875 L 2.53125 -68.46875 L 6.71875 -92.4375 L 87.109375 -92.4375 L 91.296875 -68.46875 L 89.640625 -68.46875 C 88.628906 -74.132812 86.894531 -78.59375 84.4375 -81.84375 C 81.988281 -85.101562 78.945312 -87.40625 75.3125 -88.75 C 71.675781 -90.101562 67.578125 -90.78125 63.015625 -90.78125 L 53.890625 -90.78125 L 53.890625 -8.5 C 53.890625 -5.625 54.609375 -3.757812 56.046875 -2.90625 C 57.484375 -2.0625 59.722656 -1.640625 62.765625 -1.640625 L 62.765625 0 L 31.1875 0 L 31.1875 -1.640625 C 34.226562 -1.640625 36.445312 -2.0625 37.84375 -2.90625 C 39.238281 -3.757812 39.9375 -5.625 39.9375 -8.5 L 39.9375 -90.78125 L 30.6875 -90.78125 C 26.207031 -90.78125 22.148438 -90.101562 18.515625 -88.75 C 14.878906 -87.40625 11.851562 -85.101562 9.4375 -81.84375 C 7.03125 -78.59375 5.28125 -74.132812 4.1875 -68.46875 Z M 4.1875 -68.46875 "/></g></g><g style="fill:#ffffff;fill-opacity:1;"><g transform="translate(169.714724, 212.163413)"><path style="stroke:none" d="M 4.183594 -63.71875 L -3.121094 -63.71875 L 2.722656 -97.195312 L 91.109375 -97.195312 L 96.957031 -63.71875 L 85.671875 -63.71875 L 84.96875 -67.636719 C 84.085938 -72.554688 82.648438 -76.339844 80.652344 -78.988281 C 78.757812 -81.503906 76.429688 -83.277344 73.664062 -84.304688 C 70.5625 -85.457031 67.015625 -86.035156 63.019531 -86.035156 L 53.890625 -86.035156 L 53.890625 -90.789062 L 58.644531 -90.789062 L 58.644531 -8.496094 C 58.644531 -7.648438 58.71875 -7.039062 58.867188 -6.660156 C 58.875 -6.636719 58.878906 -6.621094 58.882812 -6.617188 C 58.871094 -6.640625 58.847656 -6.671875 58.824219 -6.703125 C 58.726562 -6.824219 58.605469 -6.929688 58.457031 -7.015625 C 59.152344 -6.605469 60.585938 -6.402344 62.765625 -6.402344 L 67.523438 -6.402344 L 67.523438 4.753906 L 26.4375 4.753906 L 26.4375 -6.402344 L 31.195312 -6.402344 C 33.351562 -6.402344 34.75 -6.597656 35.386719 -6.984375 C 35.230469 -6.890625 35.105469 -6.777344 35.003906 -6.648438 C 34.980469 -6.617188 34.960938 -6.585938 34.945312 -6.5625 C 34.949219 -6.570312 34.957031 -6.589844 34.96875 -6.613281 C 35.113281 -7.007812 35.1875 -7.632812 35.1875 -8.496094 L 35.1875 -90.789062 L 39.941406 -90.789062 L 39.941406 -86.035156 L 30.6875 -86.035156 C 26.777344 -86.035156 23.273438 -85.457031 20.171875 -84.304688 C 17.417969 -83.28125 15.117188 -81.519531 13.269531 -79.023438 C 11.285156 -76.34375 9.816406 -72.527344 8.851562 -67.566406 L 8.105469 -63.71875 Z M 4.183594 -73.226562 L 4.183594 -68.472656 L -0.484375 -69.378906 C 0.753906 -75.746094 2.789062 -80.847656 5.625 -84.679688 C 8.59375 -88.691406 12.335938 -91.539062 16.855469 -93.21875 C 21.023438 -94.769531 25.636719 -95.546875 30.6875 -95.546875 L 44.699219 -95.546875 L 44.699219 -8.496094 C 44.699219 -3.835938 43.238281 -0.621094 40.316406 1.148438 C 38.164062 2.453125 35.121094 3.105469 31.195312 3.105469 L 31.195312 -1.648438 L 35.949219 -1.648438 L 35.949219 0 L 31.195312 0 L 31.195312 -4.753906 L 62.765625 -4.753906 L 62.765625 0 L 58.011719 0 L 58.011719 -1.648438 L 62.765625 -1.648438 L 62.765625 3.105469 C 58.859375 3.105469 55.816406 2.464844 53.636719 1.183594 C 50.636719 -0.582031 49.136719 -3.808594 49.136719 -8.496094 L 49.136719 -95.546875 L 63.019531 -95.546875 C 68.15625 -95.546875 72.808594 -94.769531 76.980469 -93.21875 C 81.484375 -91.542969 85.238281 -88.707031 88.25 -84.710938 C 91.15625 -80.851562 93.183594 -75.71875 94.328125 -69.3125 L 89.648438 -68.472656 L 89.648438 -73.226562 L 91.296875 -73.226562 L 91.296875 -68.472656 L 86.613281 -67.65625 L 82.429688 -91.621094 L 87.113281 -92.4375 L 87.113281 -87.683594 L 6.71875 -87.683594 L 6.71875 -92.4375 L 11.40625 -91.621094 L 7.21875 -67.65625 L 2.535156 -68.472656 L 2.535156 -73.226562 Z M 4.183594 -73.226562 "/></g></g><g style="fill:#000000;fill-opacity:1;"><g transform="translate(169.714724, 212.163413)"><path style="stroke:none" d="M 4.1875 -68.46875 L 2.53125 -68.46875 L 6.71875 -92.4375 L 87.109375 -92.4375 L 91.296875 -68.46875 L 89.640625 -68.46875 C 88.628906 -74.132812 86.894531 -78.59375 84.4375 -81.84375 C 81.988281 -85.101562 78.945312 -87.40625 75.3125 -88.75 C 71.675781 -90.101562 67.578125 -90.78125 63.015625 -90.78125 L 53.890625 -90.78125 L 53.890625 -8.5 C 53.890625 -5.625 54.609375 -3.757812 56.046875 -2.90625 C 57.484375 -2.0625 59.722656 -1.640625 62.765625 -1.640625 L 62.765625 0 L 31.1875 0 L 31.1875 -1.640625 C 34.226562 -1.640625 36.445312 -2.0625 37.84375 -2.90625 C 39.238281 -3.757812 39.9375 -5.625 39.9375 -8.5 L 39.9375 -90.78125 L 30.6875 -90.78125 C 26.207031 -90.78125 22.148438 -90.101562 18.515625 -88.75 C 14.878906 -87.40625 11.851562 -85.101562 9.4375 -81.84375 C 7.03125 -78.59375 5.28125 -74.132812 4.1875 -68.46875 Z M 4.1875 -68.46875 "/></g></g><g style="fill:#000000;fill-opacity:1;"><g transform="translate(101.472654, 246.202498)"><path style="stroke:none" d="M 0.8125 -13.328125 L 0.5 -13.328125 L 1.3125 -18 L 16.953125 -18 L 17.78125 -13.328125 L 17.453125 -13.328125 C 17.253906 -14.429688 16.914062 -15.300781 16.4375 -15.9375 C 15.957031 -16.570312 15.363281 -17.019531 14.65625 -17.28125 C 13.957031 -17.539062 13.160156 -17.671875 12.265625 -17.671875 L 10.5 -17.671875 L 10.5 -1.65625 C 10.5 -1.09375 10.632812 -0.726562 10.90625 -0.5625 C 11.1875 -0.40625 11.625 -0.328125 12.21875 -0.328125 L 12.21875 0 L 6.078125 0 L 6.078125 -0.328125 C 6.671875 -0.328125 7.101562 -0.40625 7.375 -0.5625 C 7.644531 -0.726562 7.78125 -1.09375 7.78125 -1.65625 L 7.78125 -17.671875 L 5.96875 -17.671875 C 5.101562 -17.671875 4.316406 -17.539062 3.609375 -17.28125 C 2.898438 -17.019531 2.3125 -16.570312 1.84375 -15.9375 C 1.375 -15.300781 1.03125 -14.429688 0.8125 -13.328125 Z M 0.8125 -13.328125 "/></g></g><g style="fill:#000000;fill-opacity:1;"><g transform="translate(119.735649, 246.202498)"><path style="stroke:none" d="M 0.984375 -17.671875 L 0.984375 -18 L 7.203125 -18 L 7.203125 -17.671875 C 6.609375 -17.671875 6.164062 -17.59375 5.875 -17.4375 C 5.59375 -17.28125 5.453125 -16.863281 5.453125 -16.1875 L 5.453125 -6.421875 C 5.453125 -4.359375 5.875 -2.816406 6.71875 -1.796875 C 7.570312 -0.773438 8.738281 -0.265625 10.21875 -0.265625 C 11.269531 -0.265625 12.195312 -0.4375 13 -0.78125 C 13.800781 -1.132812 14.429688 -1.742188 14.890625 -2.609375 C 15.347656 -3.472656 15.578125 -4.6875 15.578125 -6.25 L 15.578125 -16.4375 C 15.546875 -16.976562 15.382812 -17.316406 15.09375 -17.453125 C 14.8125 -17.597656 14.390625 -17.671875 13.828125 -17.671875 L 13.828125 -18 L 17.65625 -18 L 17.65625 -17.671875 C 17.1875 -17.671875 16.773438 -17.59375 16.421875 -17.4375 C 16.078125 -17.28125 15.90625 -16.863281 15.90625 -16.1875 L 15.90625 -6.25 C 15.90625 -5.769531 15.867188 -5.238281 15.796875 -4.65625 C 15.734375 -4.082031 15.585938 -3.503906 15.359375 -2.921875 C 15.128906 -2.335938 14.785156 -1.800781 14.328125 -1.3125 C 13.878906 -0.832031 13.269531 -0.441406 12.5 -0.140625 C 11.738281 0.148438 10.78125 0.296875 9.625 0.296875 C 7.882812 0.296875 6.507812 0.00390625 5.5 -0.578125 C 4.5 -1.160156 3.785156 -1.957031 3.359375 -2.96875 C 2.941406 -3.988281 2.734375 -5.140625 2.734375 -6.421875 L 2.734375 -16.1875 C 2.734375 -16.863281 2.585938 -17.28125 2.296875 -17.4375 C 2.015625 -17.59375 1.578125 -17.671875 0.984375 -17.671875 Z M 0.984375 -17.671875 "/></g></g><g style="fill:#000000;fill-opacity:1;"><g transform="translate(137.998645, 246.202498)"><path style="stroke:none" d="M 1.234375 -8.59375 C 1.234375 -10.664062 1.628906 -12.421875 2.421875 -13.859375 C 3.222656 -15.296875 4.289062 -16.390625 5.625 -17.140625 C 6.957031 -17.890625 8.441406 -18.265625 10.078125 -18.265625 C 10.847656 -18.265625 11.488281 -18.203125 12 -18.078125 C 12.519531 -17.960938 12.96875 -17.820312 13.34375 -17.65625 C 13.71875 -17.488281 14.054688 -17.34375 14.359375 -17.21875 C 14.660156 -17.09375 14.96875 -17.03125 15.28125 -17.03125 C 15.613281 -17.03125 15.859375 -17.117188 16.015625 -17.296875 C 16.171875 -17.484375 16.25 -17.71875 16.25 -18 L 16.5625 -18 L 16.9375 -12.46875 L 16.640625 -12.46875 C 16.265625 -14.082031 15.523438 -15.351562 14.421875 -16.28125 C 13.328125 -17.207031 11.953125 -17.671875 10.296875 -17.671875 C 8.304688 -17.671875 6.789062 -16.992188 5.75 -15.640625 C 4.71875 -14.285156 4.203125 -12.375 4.203125 -9.90625 C 4.203125 -8.945312 4.320312 -7.9375 4.5625 -6.875 C 4.8125 -5.8125 5.195312 -4.820312 5.71875 -3.90625 C 6.238281 -3 6.914062 -2.253906 7.75 -1.671875 C 8.59375 -1.097656 9.601562 -0.8125 10.78125 -0.8125 C 12.238281 -0.8125 13.226562 -1.148438 13.75 -1.828125 C 14.28125 -2.515625 14.546875 -3.519531 14.546875 -4.84375 L 14.546875 -8.046875 C 14.546875 -8.523438 14.40625 -8.832031 14.125 -8.96875 C 13.851562 -9.113281 13.332031 -9.1875 12.5625 -9.1875 L 12.5625 -9.5 L 18.984375 -9.5 L 18.984375 -9.1875 C 18.523438 -9.1875 18.117188 -9.113281 17.765625 -8.96875 C 17.421875 -8.832031 17.25 -8.523438 17.25 -8.046875 L 17.28125 0 L 16.9375 0 C 16.9375 -0.914062 16.875 -1.554688 16.75 -1.921875 C 16.625 -2.285156 16.347656 -2.46875 15.921875 -2.46875 C 15.660156 -2.46875 15.394531 -2.382812 15.125 -2.21875 C 14.863281 -2.050781 14.503906 -1.765625 14.046875 -1.359375 C 13.273438 -0.679688 12.53125 -0.234375 11.8125 -0.015625 C 11.09375 0.191406 10.273438 0.296875 9.359375 0.296875 C 8.304688 0.296875 7.289062 0.113281 6.3125 -0.25 C 5.34375 -0.613281 4.472656 -1.160156 3.703125 -1.890625 C 2.941406 -2.617188 2.335938 -3.535156 1.890625 -4.640625 C 1.453125 -5.753906 1.234375 -7.070312 1.234375 -8.59375 Z M 6.546875 -23.828125 L 6.8125 -23.828125 C 6.875 -23.398438 7.09375 -23.066406 7.46875 -22.828125 C 7.851562 -22.597656 8.28125 -22.441406 8.75 -22.359375 C 9.21875 -22.285156 9.632812 -22.25 10 -22.25 C 10.363281 -22.25 10.78125 -22.285156 11.25 -22.359375 C 11.726562 -22.441406 12.148438 -22.597656 12.515625 -22.828125 C 12.890625 -23.066406 13.113281 -23.398438 13.1875 -23.828125 L 13.453125 -23.828125 C 13.453125 -22.773438 13.144531 -21.992188 12.53125 -21.484375 C 11.925781 -20.984375 11.109375 -20.71875 10.078125 -20.6875 C 9.035156 -20.6875 8.1875 -20.925781 7.53125 -21.40625 C 6.875 -21.894531 6.546875 -22.703125 6.546875 -23.828125 Z M 6.546875 -23.828125 "/></g></g><g style="fill:#000000;fill-opacity:1;"><g transform="translate(157.594339, 246.202498)"><path style="stroke:none" d="M 0.734375 -17.671875 L 0.734375 -18 L 7.78125 -18 C 8.695312 -18 9.59375 -17.953125 10.46875 -17.859375 C 11.351562 -17.765625 12.148438 -17.570312 12.859375 -17.28125 C 13.566406 -16.988281 14.132812 -16.539062 14.5625 -15.9375 C 14.988281 -15.332031 15.203125 -14.53125 15.203125 -13.53125 C 15.203125 -12.257812 14.835938 -11.238281 14.109375 -10.46875 C 13.378906 -9.707031 12.425781 -9.320312 11.25 -9.3125 L 11.25 -9.203125 C 12.820312 -9.203125 14.054688 -8.84375 14.953125 -8.125 C 15.859375 -7.414062 16.3125 -6.441406 16.3125 -5.203125 C 16.3125 -4.660156 16.222656 -4.085938 16.046875 -3.484375 C 15.878906 -2.890625 15.546875 -2.320312 15.046875 -1.78125 C 14.546875 -1.25 13.820312 -0.816406 12.875 -0.484375 C 11.925781 -0.160156 10.679688 0 9.140625 0 L 0.734375 0 L 0.734375 -0.328125 C 1.328125 -0.328125 1.757812 -0.398438 2.03125 -0.546875 C 2.300781 -0.691406 2.4375 -1.046875 2.4375 -1.609375 L 2.4375 -16.4375 C 2.425781 -16.96875 2.285156 -17.304688 2.015625 -17.453125 C 1.742188 -17.597656 1.316406 -17.671875 0.734375 -17.671875 Z M 8.25 -9.109375 L 5.1875 -9.109375 L 5.1875 -1.609375 C 5.1875 -1.222656 5.25 -0.9375 5.375 -0.75 C 5.507812 -0.5625 5.765625 -0.4375 6.140625 -0.375 C 6.523438 -0.320312 7.085938 -0.296875 7.828125 -0.296875 C 9.679688 -0.296875 11.066406 -0.691406 11.984375 -1.484375 C 12.898438 -2.285156 13.359375 -3.546875 13.359375 -5.265625 C 13.359375 -6.296875 13.128906 -7.09375 12.671875 -7.65625 C 12.222656 -8.21875 11.609375 -8.597656 10.828125 -8.796875 C 10.054688 -9.003906 9.195312 -9.109375 8.25 -9.109375 Z M 5.1875 -16.4375 L 5.1875 -9.40625 L 7.796875 -9.40625 C 8.671875 -9.40625 9.460938 -9.507812 10.171875 -9.71875 C 10.878906 -9.9375 11.441406 -10.34375 11.859375 -10.9375 C 12.273438 -11.53125 12.484375 -12.394531 12.484375 -13.53125 C 12.484375 -14.875 12.140625 -15.898438 11.453125 -16.609375 C 10.765625 -17.316406 9.703125 -17.671875 8.265625 -17.671875 C 7.429688 -17.671875 6.789062 -17.644531 6.34375 -17.59375 C 5.894531 -17.550781 5.585938 -17.441406 5.421875 -17.265625 C 5.265625 -17.097656 5.1875 -16.820312 5.1875 -16.4375 Z M 5.1875 -16.4375 "/></g></g><g style="fill:#000000;fill-opacity:1;"><g transform="translate(174.894818, 246.202498)"><path style="stroke:none" d="M 4.21875 0 L 0.375 0 L 0.375 -0.328125 C 0.78125 -0.328125 1.191406 -0.472656 1.609375 -0.765625 C 2.035156 -1.054688 2.335938 -1.425781 2.515625 -1.875 L 7.90625 -14.765625 L 7.203125 -16.4375 C 7.003906 -16.9375 6.695312 -17.265625 6.28125 -17.421875 C 5.875 -17.585938 5.425781 -17.671875 4.9375 -17.671875 L 4.9375 -18 L 9.265625 -18 L 15.75 -2.5 C 16.09375 -1.6875 16.472656 -1.117188 16.890625 -0.796875 C 17.316406 -0.484375 17.832031 -0.328125 18.4375 -0.328125 L 18.4375 0 L 11.5 0 L 11.5 -0.328125 L 12.171875 -0.328125 C 12.816406 -0.328125 13.179688 -0.535156 13.265625 -0.953125 C 13.359375 -1.367188 13.28125 -1.875 13.03125 -2.46875 L 11.625 -5.90625 L 4.515625 -5.90625 L 2.890625 -1.96875 C 2.671875 -1.445312 2.707031 -1.039062 3 -0.75 C 3.300781 -0.46875 3.707031 -0.328125 4.21875 -0.328125 Z M 8.078125 -14.390625 L 4.671875 -6.21875 L 11.484375 -6.21875 Z M 8.078125 -14.390625 "/></g></g><g style="fill:#000000;fill-opacity:1;"><g transform="translate(193.700767, 246.202498)"><path style="stroke:none" d=""/></g></g><g style="fill:#000000;fill-opacity:1;"><g transform="translate(200.611087, 246.202498)"><path style="stroke:none" d="M 0.8125 -13.328125 L 0.5 -13.328125 L 1.3125 -18 L 16.953125 -18 L 17.78125 -13.328125 L 17.453125 -13.328125 C 17.253906 -14.429688 16.914062 -15.300781 16.4375 -15.9375 C 15.957031 -16.570312 15.363281 -17.019531 14.65625 -17.28125 C 13.957031 -17.539062 13.160156 -17.671875 12.265625 -17.671875 L 10.5 -17.671875 L 10.5 -1.65625 C 10.5 -1.09375 10.632812 -0.726562 10.90625 -0.5625 C 11.1875 -0.40625 11.625 -0.328125 12.21875 -0.328125 L 12.21875 0 L 6.078125 0 L 6.078125 -0.328125 C 6.671875 -0.328125 7.101562 -0.40625 7.375 -0.5625 C 7.644531 -0.726562 7.78125 -1.09375 7.78125 -1.65625 L 7.78125 -17.671875 L 5.96875 -17.671875 C 5.101562 -17.671875 4.316406 -17.539062 3.609375 -17.28125 C 2.898438 -17.019531 2.3125 -16.570312 1.84375 -15.9375 C 1.375 -15.300781 1.03125 -14.429688 0.8125 -13.328125 Z M 0.8125 -13.328125 "/></g></g><g style="fill:#000000;fill-opacity:1;"><g transform="translate(218.874082, 246.202498)"><path style="stroke:none" d="M 0.984375 -17.671875 L 0.984375 -18 L 7.203125 -18 L 7.203125 -17.671875 C 6.609375 -17.671875 6.164062 -17.59375 5.875 -17.4375 C 5.59375 -17.28125 5.453125 -16.863281 5.453125 -16.1875 L 5.453125 -6.421875 C 5.453125 -4.359375 5.875 -2.816406 6.71875 -1.796875 C 7.570312 -0.773438 8.738281 -0.265625 10.21875 -0.265625 C 11.269531 -0.265625 12.195312 -0.4375 13 -0.78125 C 13.800781 -1.132812 14.429688 -1.742188 14.890625 -2.609375 C 15.347656 -3.472656 15.578125 -4.6875 15.578125 -6.25 L 15.578125 -16.4375 C 15.546875 -16.976562 15.382812 -17.316406 15.09375 -17.453125 C 14.8125 -17.597656 14.390625 -17.671875 13.828125 -17.671875 L 13.828125 -18 L 17.65625 -18 L 17.65625 -17.671875 C 17.1875 -17.671875 16.773438 -17.59375 16.421875 -17.4375 C 16.078125 -17.28125 15.90625 -16.863281 15.90625 -16.1875 L 15.90625 -6.25 C 15.90625 -5.769531 15.867188 -5.238281 15.796875 -4.65625 C 15.734375 -4.082031 15.585938 -3.503906 15.359375 -2.921875 C 15.128906 -2.335938 14.785156 -1.800781 14.328125 -1.3125 C 13.878906 -0.832031 13.269531 -0.441406 12.5 -0.140625 C 11.738281 0.148438 10.78125 0.296875 9.625 0.296875 C 7.882812 0.296875 6.507812 0.00390625 5.5 -0.578125 C 4.5 -1.160156 3.785156 -1.957031 3.359375 -2.96875 C 2.941406 -3.988281 2.734375 -5.140625 2.734375 -6.421875 L 2.734375 -16.1875 C 2.734375 -16.863281 2.585938 -17.28125 2.296875 -17.4375 C 2.015625 -17.59375 1.578125 -17.671875 0.984375 -17.671875 Z M 0.984375 -17.671875 "/></g></g><g style="fill:#000000;fill-opacity:1;"><g transform="translate(237.137077, 246.202498)"><path style="stroke:none" d="M 0.625 -18 L 5.359375 -18 L 14.90625 -4.671875 L 14.890625 -16.34375 C 14.890625 -17 14.742188 -17.382812 14.453125 -17.5 C 14.160156 -17.613281 13.726562 -17.671875 13.15625 -17.671875 L 13.15625 -18 L 16.953125 -18 L 16.953125 -17.671875 C 16.398438 -17.671875 15.976562 -17.617188 15.6875 -17.515625 C 15.394531 -17.410156 15.234375 -17.0625 15.203125 -16.46875 L 15.234375 0 L 14.90625 0 L 3.484375 -15.953125 L 3.484375 -1.65625 C 3.484375 -1 3.628906 -0.613281 3.921875 -0.5 C 4.222656 -0.382812 4.660156 -0.328125 5.234375 -0.328125 L 5.234375 0 L 1.40625 0 L 1.40625 -0.328125 C 2 -0.328125 2.4375 -0.382812 2.71875 -0.5 C 3.007812 -0.613281 3.15625 -1 3.15625 -1.65625 L 3.15625 -16.390625 C 2.863281 -16.890625 2.503906 -17.226562 2.078125 -17.40625 C 1.660156 -17.582031 1.175781 -17.671875 0.625 -17.671875 Z M 0.625 -18 "/></g></g><g style="fill:#000000;fill-opacity:1;"><g transform="translate(254.709033, 246.202498)"><path style="stroke:none" d="M 4.21875 0 L 0.375 0 L 0.375 -0.328125 C 0.78125 -0.328125 1.191406 -0.472656 1.609375 -0.765625 C 2.035156 -1.054688 2.335938 -1.425781 2.515625 -1.875 L 7.90625 -14.765625 L 7.203125 -16.4375 C 7.003906 -16.9375 6.695312 -17.265625 6.28125 -17.421875 C 5.875 -17.585938 5.425781 -17.671875 4.9375 -17.671875 L 4.9375 -18 L 9.265625 -18 L 15.75 -2.5 C 16.09375 -1.6875 16.472656 -1.117188 16.890625 -0.796875 C 17.316406 -0.484375 17.832031 -0.328125 18.4375 -0.328125 L 18.4375 0 L 11.5 0 L 11.5 -0.328125 L 12.171875 -0.328125 C 12.816406 -0.328125 13.179688 -0.535156 13.265625 -0.953125 C 13.359375 -1.367188 13.28125 -1.875 13.03125 -2.46875 L 11.625 -5.90625 L 4.515625 -5.90625 L 2.890625 -1.96875 C 2.671875 -1.445312 2.707031 -1.039062 3 -0.75 C 3.300781 -0.46875 3.707031 -0.328125 4.21875 -0.328125 Z M 8.078125 -14.390625 L 4.671875 -6.21875 L 11.484375 -6.21875 Z M 8.078125 -14.390625 "/></g></g><g style="fill:#000000;fill-opacity:1;"><g transform="translate(106.397688, 264.919641)"><path style="stroke:none" d="M 0.390625 0 L 0.390625 -0.171875 C 0.703125 -0.171875 0.929688 -0.210938 1.078125 -0.296875 C 1.222656 -0.378906 1.296875 -0.570312 1.296875 -0.875 L 1.296875 -8.6875 C 1.296875 -8.988281 1.222656 -9.179688 1.078125 -9.265625 C 0.929688 -9.347656 0.703125 -9.390625 0.390625 -9.390625 L 0.390625 -9.5625 L 3.65625 -9.5625 L 3.65625 -9.390625 C 3.34375 -9.390625 3.113281 -9.347656 2.96875 -9.265625 C 2.820312 -9.191406 2.75 -9.015625 2.75 -8.734375 L 2.75 -5.015625 L 6.765625 -5.015625 L 6.765625 -8.6875 C 6.765625 -8.988281 6.691406 -9.179688 6.546875 -9.265625 C 6.398438 -9.347656 6.171875 -9.390625 5.859375 -9.390625 L 5.859375 -9.5625 L 9.125 -9.5625 L 9.125 -9.390625 C 8.8125 -9.390625 8.582031 -9.347656 8.4375 -9.265625 C 8.289062 -9.179688 8.21875 -8.988281 8.21875 -8.6875 L 8.21875 -0.859375 C 8.21875 -0.554688 8.289062 -0.363281 8.4375 -0.28125 C 8.582031 -0.207031 8.8125 -0.171875 9.125 -0.171875 L 9.125 0 L 5.859375 0 L 5.859375 -0.171875 C 6.171875 -0.171875 6.398438 -0.210938 6.546875 -0.296875 C 6.691406 -0.378906 6.765625 -0.570312 6.765625 -0.875 L 6.765625 -4.84375 L 2.75 -4.84375 L 2.75 -0.75 C 2.757812 -0.5 2.835938 -0.335938 2.984375 -0.265625 C 3.140625 -0.203125 3.363281 -0.171875 3.65625 -0.171875 L 3.65625 0 Z M 0.390625 0 "/></g></g><g style="fill:#000000;fill-opacity:1;"><g transform="translate(120.864896, 264.919641)"><path style="stroke:none" d="M 0.53125 -9.390625 L 0.53125 -9.5625 L 3.828125 -9.5625 L 3.828125 -9.390625 C 3.515625 -9.390625 3.28125 -9.347656 3.125 -9.265625 C 2.976562 -9.179688 2.90625 -8.960938 2.90625 -8.609375 L 2.90625 -3.40625 C 2.90625 -2.3125 3.128906 -1.492188 3.578125 -0.953125 C 4.023438 -0.410156 4.644531 -0.140625 5.4375 -0.140625 C 6 -0.140625 6.488281 -0.234375 6.90625 -0.421875 C 7.332031 -0.609375 7.664062 -0.929688 7.90625 -1.390625 C 8.15625 -1.847656 8.28125 -2.492188 8.28125 -3.328125 L 8.28125 -8.734375 C 8.257812 -9.023438 8.171875 -9.207031 8.015625 -9.28125 C 7.867188 -9.351562 7.644531 -9.390625 7.34375 -9.390625 L 7.34375 -9.5625 L 9.390625 -9.5625 L 9.390625 -9.390625 C 9.140625 -9.390625 8.921875 -9.347656 8.734375 -9.265625 C 8.546875 -9.179688 8.453125 -8.960938 8.453125 -8.609375 L 8.453125 -3.328125 C 8.453125 -3.066406 8.429688 -2.78125 8.390625 -2.46875 C 8.359375 -2.164062 8.28125 -1.859375 8.15625 -1.546875 C 8.039062 -1.242188 7.863281 -0.960938 7.625 -0.703125 C 7.382812 -0.441406 7.054688 -0.234375 6.640625 -0.078125 C 6.234375 0.078125 5.726562 0.15625 5.125 0.15625 C 4.195312 0.15625 3.460938 0 2.921875 -0.3125 C 2.390625 -0.625 2.007812 -1.046875 1.78125 -1.578125 C 1.5625 -2.117188 1.453125 -2.726562 1.453125 -3.40625 L 1.453125 -8.609375 C 1.453125 -8.960938 1.375 -9.179688 1.21875 -9.265625 C 1.070312 -9.347656 0.84375 -9.390625 0.53125 -9.390625 Z M 0.53125 -9.390625 "/></g></g><g style="fill:#000000;fill-opacity:1;"><g transform="translate(135.528988, 264.919641)"><path style="stroke:none" d="M 1.296875 -0.875 L 1.296875 -8.6875 C 1.296875 -8.988281 1.222656 -9.179688 1.078125 -9.265625 C 0.929688 -9.347656 0.703125 -9.390625 0.390625 -9.390625 L 0.390625 -9.5625 L 3.65625 -9.5625 L 3.65625 -9.390625 C 3.34375 -9.390625 3.113281 -9.347656 2.96875 -9.265625 C 2.820312 -9.179688 2.75 -8.988281 2.75 -8.6875 L 2.75 -4.46875 L 6.5625 -8.71875 C 6.769531 -8.925781 6.851562 -9.078125 6.8125 -9.171875 C 6.78125 -9.265625 6.671875 -9.320312 6.484375 -9.34375 C 6.304688 -9.375 6.097656 -9.390625 5.859375 -9.390625 L 5.859375 -9.5625 L 8.390625 -9.5625 L 8.390625 -9.390625 C 8.128906 -9.390625 7.910156 -9.375 7.734375 -9.34375 C 7.566406 -9.320312 7.40625 -9.265625 7.25 -9.171875 C 7.101562 -9.078125 6.941406 -8.929688 6.765625 -8.734375 L 3.421875 -4.96875 C 3.597656 -4.675781 3.804688 -4.453125 4.046875 -4.296875 C 4.285156 -4.148438 4.519531 -4.078125 4.75 -4.078125 C 5 -4.078125 5.21875 -4.15625 5.40625 -4.3125 L 7.765625 -0.875 C 7.972656 -0.59375 8.179688 -0.40625 8.390625 -0.3125 C 8.609375 -0.21875 8.835938 -0.171875 9.078125 -0.171875 L 9.078125 0 L 7.671875 0 C 7.296875 0 6.984375 -0.0703125 6.734375 -0.21875 C 6.492188 -0.375 6.285156 -0.566406 6.109375 -0.796875 C 5.941406 -1.035156 5.769531 -1.273438 5.59375 -1.515625 L 3.296875 -4.84375 L 2.75 -4.21875 L 2.75 -0.875 C 2.75 -0.582031 2.820312 -0.390625 2.96875 -0.296875 C 3.113281 -0.210938 3.34375 -0.171875 3.65625 -0.171875 L 3.65625 0 L 0.390625 0 L 0.390625 -0.171875 C 0.703125 -0.171875 0.929688 -0.210938 1.078125 -0.296875 C 1.222656 -0.390625 1.296875 -0.582031 1.296875 -0.875 Z M 1.296875 -0.875 "/></g></g><g style="fill:#000000;fill-opacity:1;"><g transform="translate(149.759956, 264.919641)"><path style="stroke:none" d="M 0.53125 -9.390625 L 0.53125 -9.5625 L 3.828125 -9.5625 L 3.828125 -9.390625 C 3.515625 -9.390625 3.28125 -9.347656 3.125 -9.265625 C 2.976562 -9.179688 2.90625 -8.960938 2.90625 -8.609375 L 2.90625 -3.40625 C 2.90625 -2.3125 3.128906 -1.492188 3.578125 -0.953125 C 4.023438 -0.410156 4.644531 -0.140625 5.4375 -0.140625 C 6 -0.140625 6.488281 -0.234375 6.90625 -0.421875 C 7.332031 -0.609375 7.664062 -0.929688 7.90625 -1.390625 C 8.15625 -1.847656 8.28125 -2.492188 8.28125 -3.328125 L 8.28125 -8.734375 C 8.257812 -9.023438 8.171875 -9.207031 8.015625 -9.28125 C 7.867188 -9.351562 7.644531 -9.390625 7.34375 -9.390625 L 7.34375 -9.5625 L 9.390625 -9.5625 L 9.390625 -9.390625 C 9.140625 -9.390625 8.921875 -9.347656 8.734375 -9.265625 C 8.546875 -9.179688 8.453125 -8.960938 8.453125 -8.609375 L 8.453125 -3.328125 C 8.453125 -3.066406 8.429688 -2.78125 8.390625 -2.46875 C 8.359375 -2.164062 8.28125 -1.859375 8.15625 -1.546875 C 8.039062 -1.242188 7.863281 -0.960938 7.625 -0.703125 C 7.382812 -0.441406 7.054688 -0.234375 6.640625 -0.078125 C 6.234375 0.078125 5.726562 0.15625 5.125 0.15625 C 4.195312 0.15625 3.460938 0 2.921875 -0.3125 C 2.390625 -0.625 2.007812 -1.046875 1.78125 -1.578125 C 1.5625 -2.117188 1.453125 -2.726562 1.453125 -3.40625 L 1.453125 -8.609375 C 1.453125 -8.960938 1.375 -9.179688 1.21875 -9.265625 C 1.070312 -9.347656 0.84375 -9.390625 0.53125 -9.390625 Z M 0.53125 -9.390625 "/></g></g><g style="fill:#000000;fill-opacity:1;"><g transform="translate(164.424048, 264.919641)"><path style="stroke:none" d="M 1.296875 -0.875 L 1.296875 -8.6875 C 1.296875 -8.988281 1.222656 -9.179688 1.078125 -9.265625 C 0.929688 -9.347656 0.703125 -9.390625 0.390625 -9.390625 L 0.390625 -9.5625 L 3.65625 -9.5625 L 3.65625 -9.390625 C 3.34375 -9.390625 3.113281 -9.347656 2.96875 -9.265625 C 2.820312 -9.179688 2.75 -8.988281 2.75 -8.6875 L 2.75 -4.46875 L 6.5625 -8.71875 C 6.769531 -8.925781 6.851562 -9.078125 6.8125 -9.171875 C 6.78125 -9.265625 6.671875 -9.320312 6.484375 -9.34375 C 6.304688 -9.375 6.097656 -9.390625 5.859375 -9.390625 L 5.859375 -9.5625 L 8.390625 -9.5625 L 8.390625 -9.390625 C 8.128906 -9.390625 7.910156 -9.375 7.734375 -9.34375 C 7.566406 -9.320312 7.40625 -9.265625 7.25 -9.171875 C 7.101562 -9.078125 6.941406 -8.929688 6.765625 -8.734375 L 3.421875 -4.96875 C 3.597656 -4.675781 3.804688 -4.453125 4.046875 -4.296875 C 4.285156 -4.148438 4.519531 -4.078125 4.75 -4.078125 C 5 -4.078125 5.21875 -4.15625 5.40625 -4.3125 L 7.765625 -0.875 C 7.972656 -0.59375 8.179688 -0.40625 8.390625 -0.3125 C 8.609375 -0.21875 8.835938 -0.171875 9.078125 -0.171875 L 9.078125 0 L 7.671875 0 C 7.296875 0 6.984375 -0.0703125 6.734375 -0.21875 C 6.492188 -0.375 6.285156 -0.566406 6.109375 -0.796875 C 5.941406 -1.035156 5.769531 -1.273438 5.59375 -1.515625 L 3.296875 -4.84375 L 2.75 -4.21875 L 2.75 -0.875 C 2.75 -0.582031 2.820312 -0.390625 2.96875 -0.296875 C 3.113281 -0.210938 3.34375 -0.171875 3.65625 -0.171875 L 3.65625 0 L 0.390625 0 L 0.390625 -0.171875 C 0.703125 -0.171875 0.929688 -0.210938 1.078125 -0.296875 C 1.222656 -0.390625 1.296875 -0.582031 1.296875 -0.875 Z M 1.296875 -0.875 "/></g></g><g style="fill:#000000;fill-opacity:1;"><g transform="translate(178.655016, 264.919641)"><path style="stroke:none" d=""/></g></g><g style="fill:#000000;fill-opacity:1;"><g transform="translate(187.281629, 264.919641)"><path style="stroke:none" d="M 0.390625 -9.390625 L 0.390625 -9.5625 L 4.140625 -9.5625 C 4.628906 -9.5625 5.109375 -9.535156 5.578125 -9.484375 C 6.046875 -9.441406 6.46875 -9.34375 6.84375 -9.1875 C 7.21875 -9.03125 7.515625 -8.789062 7.734375 -8.46875 C 7.960938 -8.15625 8.078125 -7.726562 8.078125 -7.1875 C 8.078125 -6.519531 7.882812 -5.984375 7.5 -5.578125 C 7.113281 -5.171875 6.609375 -4.960938 5.984375 -4.953125 L 5.984375 -4.890625 C 6.816406 -4.890625 7.472656 -4.695312 7.953125 -4.3125 C 8.429688 -3.9375 8.671875 -3.421875 8.671875 -2.765625 C 8.671875 -2.484375 8.625 -2.179688 8.53125 -1.859375 C 8.445312 -1.535156 8.269531 -1.234375 8 -0.953125 C 7.726562 -0.671875 7.34375 -0.441406 6.84375 -0.265625 C 6.34375 -0.0859375 5.679688 0 4.859375 0 L 0.390625 0 L 0.390625 -0.171875 C 0.703125 -0.171875 0.929688 -0.207031 1.078125 -0.28125 C 1.222656 -0.363281 1.296875 -0.554688 1.296875 -0.859375 L 1.296875 -8.734375 C 1.285156 -9.015625 1.207031 -9.191406 1.0625 -9.265625 C 0.925781 -9.347656 0.703125 -9.390625 0.390625 -9.390625 Z M 4.390625 -4.84375 L 2.75 -4.84375 L 2.75 -0.859375 C 2.75 -0.648438 2.785156 -0.492188 2.859375 -0.390625 C 2.929688 -0.296875 3.066406 -0.234375 3.265625 -0.203125 C 3.460938 -0.171875 3.757812 -0.15625 4.15625 -0.15625 C 5.144531 -0.15625 5.878906 -0.367188 6.359375 -0.796875 C 6.847656 -1.222656 7.09375 -1.890625 7.09375 -2.796875 C 7.09375 -3.347656 6.972656 -3.769531 6.734375 -4.0625 C 6.492188 -4.363281 6.164062 -4.566406 5.75 -4.671875 C 5.34375 -4.785156 4.890625 -4.84375 4.390625 -4.84375 Z M 2.75 -8.734375 L 2.75 -5 L 4.140625 -5 C 4.609375 -5 5.03125 -5.054688 5.40625 -5.171875 C 5.78125 -5.285156 6.078125 -5.5 6.296875 -5.8125 C 6.523438 -6.125 6.640625 -6.582031 6.640625 -7.1875 C 6.640625 -7.90625 6.453125 -8.453125 6.078125 -8.828125 C 5.710938 -9.203125 5.148438 -9.390625 4.390625 -9.390625 C 3.953125 -9.390625 3.613281 -9.375 3.375 -9.34375 C 3.132812 -9.320312 2.96875 -9.265625 2.875 -9.171875 C 2.789062 -9.085938 2.75 -8.941406 2.75 -8.734375 Z M 2.75 -8.734375 "/></g></g><g style="fill:#000000;fill-opacity:1;"><g transform="translate(201.433838, 264.919641)"><path style="stroke:none" d="M 0.53125 -9.390625 L 0.53125 -9.5625 L 3.828125 -9.5625 L 3.828125 -9.390625 C 3.515625 -9.390625 3.28125 -9.347656 3.125 -9.265625 C 2.976562 -9.179688 2.90625 -8.960938 2.90625 -8.609375 L 2.90625 -3.40625 C 2.90625 -2.3125 3.128906 -1.492188 3.578125 -0.953125 C 4.023438 -0.410156 4.644531 -0.140625 5.4375 -0.140625 C 6 -0.140625 6.488281 -0.234375 6.90625 -0.421875 C 7.332031 -0.609375 7.664062 -0.929688 7.90625 -1.390625 C 8.15625 -1.847656 8.28125 -2.492188 8.28125 -3.328125 L 8.28125 -8.734375 C 8.257812 -9.023438 8.171875 -9.207031 8.015625 -9.28125 C 7.867188 -9.351562 7.644531 -9.390625 7.34375 -9.390625 L 7.34375 -9.5625 L 9.390625 -9.5625 L 9.390625 -9.390625 C 9.140625 -9.390625 8.921875 -9.347656 8.734375 -9.265625 C 8.546875 -9.179688 8.453125 -8.960938 8.453125 -8.609375 L 8.453125 -3.328125 C 8.453125 -3.066406 8.429688 -2.78125 8.390625 -2.46875 C 8.359375 -2.164062 8.28125 -1.859375 8.15625 -1.546875 C 8.039062 -1.242188 7.863281 -0.960938 7.625 -0.703125 C 7.382812 -0.441406 7.054688 -0.234375 6.640625 -0.078125 C 6.234375 0.078125 5.726562 0.15625 5.125 0.15625 C 4.195312 0.15625 3.460938 0 2.921875 -0.3125 C 2.390625 -0.625 2.007812 -1.046875 1.78125 -1.578125 C 1.5625 -2.117188 1.453125 -2.726562 1.453125 -3.40625 L 1.453125 -8.609375 C 1.453125 -8.960938 1.375 -9.179688 1.21875 -9.265625 C 1.070312 -9.347656 0.84375 -9.390625 0.53125 -9.390625 Z M 3.609375 -12.25 C 3.804688 -12.25 3.976562 -12.175781 4.125 -12.03125 C 4.269531 -11.882812 4.34375 -11.710938 4.34375 -11.515625 C 4.34375 -11.304688 4.269531 -11.128906 4.125 -10.984375 C 3.976562 -10.847656 3.804688 -10.78125 3.609375 -10.78125 C 3.410156 -10.78125 3.238281 -10.847656 3.09375 -10.984375 C 2.945312 -11.128906 2.875 -11.304688 2.875 -11.515625 C 2.875 -11.710938 2.945312 -11.882812 3.09375 -12.03125 C 3.238281 -12.175781 3.410156 -12.25 3.609375 -12.25 Z M 6 -11.515625 C 6 -11.710938 6.070312 -11.882812 6.21875 -12.03125 C 6.363281 -12.175781 6.535156 -12.25 6.734375 -12.25 C 6.929688 -12.25 7.101562 -12.175781 7.25 -12.03125 C 7.394531 -11.882812 7.46875 -11.710938 7.46875 -11.515625 C 7.46875 -11.304688 7.394531 -11.128906 7.25 -10.984375 C 7.101562 -10.847656 6.929688 -10.78125 6.734375 -10.78125 C 6.535156 -10.78125 6.363281 -10.847656 6.21875 -10.984375 C 6.070312 -11.128906 6 -11.304688 6 -11.515625 Z M 6 -11.515625 "/></g></g><g style="fill:#000000;fill-opacity:1;"><g transform="translate(216.09793, 264.919641)"><path style="stroke:none" d="M 0.390625 0 L 0.390625 -0.171875 C 0.703125 -0.171875 0.929688 -0.210938 1.078125 -0.296875 C 1.222656 -0.390625 1.296875 -0.582031 1.296875 -0.875 L 1.296875 -8.6875 C 1.296875 -8.988281 1.222656 -9.179688 1.078125 -9.265625 C 0.929688 -9.347656 0.703125 -9.390625 0.390625 -9.390625 L 0.390625 -9.5625 L 4.125 -9.5625 C 4.613281 -9.5625 5.09375 -9.535156 5.5625 -9.484375 C 6.03125 -9.441406 6.453125 -9.34375 6.828125 -9.1875 C 7.210938 -9.03125 7.515625 -8.796875 7.734375 -8.484375 C 7.960938 -8.171875 8.078125 -7.753906 8.078125 -7.234375 C 8.078125 -6.710938 7.972656 -6.296875 7.765625 -5.984375 C 7.554688 -5.671875 7.28125 -5.429688 6.9375 -5.265625 C 6.59375 -5.097656 6.21875 -4.984375 5.8125 -4.921875 C 5.40625 -4.867188 5.015625 -4.84375 4.640625 -4.84375 L 4.078125 -4.84375 C 4.253906 -4.570312 4.445312 -4.375 4.65625 -4.25 C 4.875 -4.125 5.085938 -4.0625 5.296875 -4.0625 C 5.546875 -4.0625 5.773438 -4.144531 5.984375 -4.3125 L 8.34375 -0.875 C 8.550781 -0.59375 8.765625 -0.40625 8.984375 -0.3125 C 9.203125 -0.21875 9.429688 -0.171875 9.671875 -0.171875 L 9.671875 0 L 8.375 0 C 8.007812 0 7.691406 -0.0703125 7.421875 -0.21875 C 7.160156 -0.375 6.929688 -0.566406 6.734375 -0.796875 C 6.535156 -1.035156 6.351562 -1.273438 6.1875 -1.515625 L 3.890625 -4.84375 L 2.75 -4.84375 L 2.75 -0.875 C 2.75 -0.582031 2.816406 -0.390625 2.953125 -0.296875 C 3.097656 -0.210938 3.332031 -0.171875 3.65625 -0.171875 L 3.65625 0 Z M 2.75 -5.015625 L 4.140625 -5.015625 C 4.597656 -5.015625 5.015625 -5.070312 5.390625 -5.1875 C 5.773438 -5.3125 6.082031 -5.535156 6.3125 -5.859375 C 6.539062 -6.179688 6.65625 -6.632812 6.65625 -7.21875 C 6.65625 -7.925781 6.457031 -8.460938 6.0625 -8.828125 C 5.664062 -9.203125 5.109375 -9.390625 4.390625 -9.390625 L 2.75 -9.390625 Z M 2.75 -5.015625 "/></g></g><g style="fill:#000000;fill-opacity:1;"><g transform="translate(230.853896, 264.919641)"><path style="stroke:none" d="M 0.65625 -4.796875 C 0.65625 -5.484375 0.773438 -6.125 1.015625 -6.71875 C 1.265625 -7.3125 1.601562 -7.832031 2.03125 -8.28125 C 2.457031 -8.726562 2.957031 -9.078125 3.53125 -9.328125 C 4.101562 -9.585938 4.710938 -9.71875 5.359375 -9.71875 C 6.003906 -9.71875 6.613281 -9.585938 7.1875 -9.328125 C 7.757812 -9.078125 8.265625 -8.726562 8.703125 -8.28125 C 9.140625 -7.832031 9.476562 -7.3125 9.71875 -6.71875 C 9.96875 -6.125 10.09375 -5.484375 10.09375 -4.796875 C 10.09375 -4.117188 9.96875 -3.476562 9.71875 -2.875 C 9.476562 -2.28125 9.140625 -1.753906 8.703125 -1.296875 C 8.265625 -0.835938 7.757812 -0.476562 7.1875 -0.21875 C 6.613281 0.03125 6.003906 0.15625 5.359375 0.15625 C 4.710938 0.15625 4.101562 0.03125 3.53125 -0.21875 C 2.957031 -0.476562 2.457031 -0.835938 2.03125 -1.296875 C 1.601562 -1.753906 1.265625 -2.28125 1.015625 -2.875 C 0.773438 -3.476562 0.65625 -4.117188 0.65625 -4.796875 Z M 5.21875 -9.53125 C 4.71875 -9.53125 4.28125 -9.40625 3.90625 -9.15625 C 3.539062 -8.914062 3.234375 -8.578125 2.984375 -8.140625 C 2.734375 -7.710938 2.546875 -7.222656 2.421875 -6.671875 C 2.296875 -6.128906 2.234375 -5.554688 2.234375 -4.953125 C 2.234375 -4.316406 2.296875 -3.703125 2.421875 -3.109375 C 2.546875 -2.523438 2.738281 -2 3 -1.53125 C 3.269531 -1.070312 3.609375 -0.707031 4.015625 -0.4375 C 4.429688 -0.164062 4.921875 -0.03125 5.484375 -0.03125 C 6.015625 -0.03125 6.46875 -0.148438 6.84375 -0.390625 C 7.226562 -0.640625 7.539062 -0.972656 7.78125 -1.390625 C 8.03125 -1.816406 8.210938 -2.3125 8.328125 -2.875 C 8.453125 -3.4375 8.515625 -4.03125 8.515625 -4.65625 C 8.515625 -5.269531 8.453125 -5.863281 8.328125 -6.4375 C 8.210938 -7.019531 8.019531 -7.539062 7.75 -8 C 7.488281 -8.46875 7.148438 -8.835938 6.734375 -9.109375 C 6.316406 -9.390625 5.8125 -9.53125 5.21875 -9.53125 Z M 5.21875 -9.53125 "/></g></g><g style="fill:#000000;fill-opacity:1;"><g transform="translate(246.554857, 264.919641)"><path style="stroke:none" d="M 0.65625 0 L 0.65625 -3.9375 L 0.828125 -3.9375 C 0.828125 -3.0625 0.953125 -2.34375 1.203125 -1.78125 C 1.460938 -1.226562 1.8125 -0.820312 2.25 -0.5625 C 2.6875 -0.300781 3.171875 -0.171875 3.703125 -0.171875 C 4.035156 -0.171875 4.335938 -0.21875 4.609375 -0.3125 C 4.890625 -0.414062 5.113281 -0.582031 5.28125 -0.8125 C 5.445312 -1.050781 5.53125 -1.363281 5.53125 -1.75 C 5.53125 -2.113281 5.410156 -2.445312 5.171875 -2.75 C 4.941406 -3.0625 4.640625 -3.359375 4.265625 -3.640625 C 3.898438 -3.921875 3.507812 -4.195312 3.09375 -4.46875 C 2.6875 -4.738281 2.296875 -5.023438 1.921875 -5.328125 C 1.546875 -5.628906 1.242188 -5.953125 1.015625 -6.296875 C 0.785156 -6.648438 0.671875 -7.035156 0.671875 -7.453125 C 0.671875 -7.960938 0.804688 -8.382812 1.078125 -8.71875 C 1.359375 -9.050781 1.707031 -9.300781 2.125 -9.46875 C 2.539062 -9.632812 2.96875 -9.71875 3.40625 -9.71875 C 3.726562 -9.71875 4.003906 -9.679688 4.234375 -9.609375 C 4.472656 -9.546875 4.675781 -9.46875 4.84375 -9.375 C 5.007812 -9.28125 5.160156 -9.203125 5.296875 -9.140625 C 5.429688 -9.078125 5.566406 -9.046875 5.703125 -9.046875 C 5.867188 -9.046875 5.984375 -9.082031 6.046875 -9.15625 C 6.109375 -9.238281 6.140625 -9.375 6.140625 -9.5625 L 6.3125 -9.5625 L 6.3125 -6.46875 L 6.140625 -6.46875 C 6.140625 -7.050781 6.023438 -7.5625 5.796875 -8 C 5.578125 -8.445312 5.273438 -8.789062 4.890625 -9.03125 C 4.503906 -9.28125 4.066406 -9.40625 3.578125 -9.40625 C 3.054688 -9.40625 2.679688 -9.28125 2.453125 -9.03125 C 2.222656 -8.78125 2.109375 -8.460938 2.109375 -8.078125 C 2.109375 -7.648438 2.222656 -7.269531 2.453125 -6.9375 C 2.679688 -6.613281 2.972656 -6.316406 3.328125 -6.046875 C 3.691406 -5.785156 4.070312 -5.523438 4.46875 -5.265625 C 4.875 -5.015625 5.253906 -4.75 5.609375 -4.46875 C 5.972656 -4.1875 6.269531 -3.867188 6.5 -3.515625 C 6.726562 -3.171875 6.84375 -2.757812 6.84375 -2.28125 C 6.84375 -1.832031 6.75 -1.425781 6.5625 -1.0625 C 6.382812 -0.695312 6.085938 -0.398438 5.671875 -0.171875 C 5.253906 0.046875 4.671875 0.15625 3.921875 0.15625 C 3.566406 0.15625 3.265625 0.125 3.015625 0.0625 C 2.773438 0 2.5625 -0.0703125 2.375 -0.15625 C 2.195312 -0.238281 2.035156 -0.304688 1.890625 -0.359375 C 1.742188 -0.421875 1.59375 -0.453125 1.4375 -0.453125 C 1.03125 -0.453125 0.828125 -0.300781 0.828125 0 Z M 0.65625 0 "/></g></g><g style="fill:#000000;fill-opacity:1;"><g transform="translate(258.86958, 264.919641)"><path style="stroke:none" d="M 0.53125 -9.390625 L 0.53125 -9.5625 L 3.828125 -9.5625 L 3.828125 -9.390625 C 3.515625 -9.390625 3.28125 -9.347656 3.125 -9.265625 C 2.976562 -9.179688 2.90625 -8.960938 2.90625 -8.609375 L 2.90625 -3.40625 C 2.90625 -2.3125 3.128906 -1.492188 3.578125 -0.953125 C 4.023438 -0.410156 4.644531 -0.140625 5.4375 -0.140625 C 6 -0.140625 6.488281 -0.234375 6.90625 -0.421875 C 7.332031 -0.609375 7.664062 -0.929688 7.90625 -1.390625 C 8.15625 -1.847656 8.28125 -2.492188 8.28125 -3.328125 L 8.28125 -8.734375 C 8.257812 -9.023438 8.171875 -9.207031 8.015625 -9.28125 C 7.867188 -9.351562 7.644531 -9.390625 7.34375 -9.390625 L 7.34375 -9.5625 L 9.390625 -9.5625 L 9.390625 -9.390625 C 9.140625 -9.390625 8.921875 -9.347656 8.734375 -9.265625 C 8.546875 -9.179688 8.453125 -8.960938 8.453125 -8.609375 L 8.453125 -3.328125 C 8.453125 -3.066406 8.429688 -2.78125 8.390625 -2.46875 C 8.359375 -2.164062 8.28125 -1.859375 8.15625 -1.546875 C 8.039062 -1.242188 7.863281 -0.960938 7.625 -0.703125 C 7.382812 -0.441406 7.054688 -0.234375 6.640625 -0.078125 C 6.234375 0.078125 5.726562 0.15625 5.125 0.15625 C 4.195312 0.15625 3.460938 0 2.921875 -0.3125 C 2.390625 -0.625 2.007812 -1.046875 1.78125 -1.578125 C 1.5625 -2.117188 1.453125 -2.726562 1.453125 -3.40625 L 1.453125 -8.609375 C 1.453125 -8.960938 1.375 -9.179688 1.21875 -9.265625 C 1.070312 -9.347656 0.84375 -9.390625 0.53125 -9.390625 Z M 0.53125 -9.390625 "/></g></g></g></svg>